SplineFontDB: 3.0
FontName: LindenHill-Bold
FullName: Linden Hill Bold
FamilyName: Linden Hill
Weight: Bold
Copyright: Copyright (c) 2009 Barry Schwartz\n\nPermission is hereby granted, free of charge, to any person\nobtaining a copy of this software and associated documentation\nfiles (the "Software"), to deal in the Software without\nrestriction, including without limitation the rights to use,\ncopy, modify, merge, publish, distribute, sublicense, and/or sell\ncopies of the Software, and to permit persons to whom the\nSoftware is furnished to do so, subject to the following\nconditions:\n\nThe above copyright notice and this permission notice shall be\nincluded in all copies or substantial portions of the Software.\n\nTHE SOFTWARE IS PROVIDED "AS IS", WITHOUT WARRANTY OF ANY KIND,\nEXPRESS OR IMPLIED, INCLUDING BUT NOT LIMITED TO THE WARRANTIES\nOF MERCHANTABILITY, FITNESS FOR A PARTICULAR PURPOSE AND\nNONINFRINGEMENT. IN NO EVENT SHALL THE AUTHORS OR COPYRIGHT\nHOLDERS BE LIABLE FOR ANY CLAIM, DAMAGES OR OTHER LIABILITY,\nWHETHER IN AN ACTION OF CONTRACT, TORT OR OTHERWISE, ARISING\nFROM, OUT OF OR IN CONNECTION WITH THE SOFTWARE OR THE USE OR\nOTHER DEALINGS IN THE SOFTWARE.
UComments: "Scaling: Cut the 12-point to 640 pixels high and scale it to 122%." 
Version: 001.000
ItalicAngle: 0
UnderlinePosition: -204
UnderlineWidth: 102
Ascent: 1504
Descent: 544
LayerCount: 3
Layer: 0 0 "Back"  1
Layer: 1 0 "Fore"  0
Layer: 2 0 "backup"  1
NeedsXUIDChange: 1
XUID: [1021 658 797806517 427014]
FSType: 0
OS2Version: 0
OS2_WeightWidthSlopeOnly: 0
OS2_UseTypoMetrics: 1
CreationTime: 1249677682
ModificationTime: 1253524243
OS2TypoAscent: 0
OS2TypoAOffset: 1
OS2TypoDescent: 0
OS2TypoDOffset: 1
OS2TypoLinegap: 184
OS2WinAscent: 0
OS2WinAOffset: 1
OS2WinDescent: 0
OS2WinDOffset: 1
HheadAscent: 0
HheadAOffset: 1
HheadDescent: 0
HheadDOffset: 1
OS2Vendor: 'PfEd'

StartChar: i
Encoding: 105 105 0
Width: 652
VWidth: 0
Flags: HW
LayerCount: 3
Fore
Refer: 248 775 N 1 0 0 1 727 0 2
Refer: 189 305 N 1 0 0 1 0 0 2
Layer: 2
SplineSet
62 749 m 5xf0
 182 769 311 795 440 828 c 5
 440 131 l 6
 440 67 444 77 614 75 c 5
 614 0 l 5
 64 0 l 5
 64 75 l 5
 179 76 205 70 205 124 c 6
 205 661 l 6
 205 687 196 701 179 701 c 4
 174 701 65 681 65 681 c 5
 62 749 l 5xf0
304 1176 m 4xe8
 304 1216 402 1309 429 1309 c 4
 470 1309 555 1200 555 1176 c 4
 555 1146 470 1045 435 1045 c 4
 403 1045 304 1141 304 1176 c 4xe8
EndSplineSet
AlternateSubs2: "'aalt' Access All Alternates in Latin lookup 0 subtable" i.TRK
Substitution2: "turkish subtable" i.TRK
EndChar

StartChar: j
Encoding: 106 106 1
Width: 512
VWidth: 0
Flags: HW
LayerCount: 3
Fore
Refer: 248 775 N 1 0 0 1 641 0 2
Refer: 190 567 N 1 0 0 1 0 0 2
Layer: 2
SplineSet
259 1176 m 0xe8
 259 1216 357 1309 384 1309 c 0
 425 1309 510 1200 510 1176 c 0
 510 1146 425 1045 390 1045 c 0
 358 1045 259 1141 259 1176 c 0xe8
-191 -413 m 0
 -191 -358 -144 -293 -116 -264 c 0
 -104 -251 -92 -247 -77 -247 c 0
 -45 -247 -29 -274 -17 -295 c 0
 24 -365 44 -408 89 -408 c 0
 158 -408 177 -269 177 -64 c 2
 177 629 l 2
 177 668 173 695 143 695 c 0
 141 695 138 694 135 694 c 0
 114 691 95 687 36 677 c 1
 32 755 l 1
 122 770 279 797 412 828 c 1
 412 -99 l 2xf0
 412 -394 156 -530 44 -530 c 0
 -28 -530 -191 -507 -191 -413 c 0
EndSplineSet
EndChar

StartChar: l
Encoding: 108 108 2
Width: 639
VWidth: 0
Flags: HMW
HStem: 0 75<64 200.09 438.516 604> 1469 20G<383.5 437>
VStem: 202 235<79.5728 1328.98>
AnchorPoint: "commaright" 589 1340 basechar 0
AnchorPoint: "cedilla" 314 -190 basechar 0
AnchorPoint: "top" 281 1500 basechar 0
LayerCount: 3
Fore
SplineSet
49 1389 m 1
 218 1420 330 1455 437 1489 c 1
 437 130 l 2
 437 70 466 79 604 75 c 1
 604 0 l 1
 64 0 l 1
 64 75 l 1
 162 76 202 69 202 131 c 2
 202 1222 l 2
 202 1306 194 1329 164 1329 c 0
 146.9001119 1329 114.078870033 1318.29698143 56 1310 c 1
 49 1389 l 1
EndSplineSet
EndChar

StartChar: .notdef
Encoding: 65536 -1 4
Width: 1024
VWidth: 0
Flags: W
HStem: 0 70<433.688 549.527> 265 63<435.369 542.758> 1338 114<340.261 556.41>
VStem: 106 549<927.689 1113.28> 106 288<99.812 235.399> 106 225<422.587 702.229> 106 173<1178.01 1278.02> 458 460<417.66 609.346> 590 328<99.5259 237.269> 772 146<833.282 1115.76>
LayerCount: 3
Fore
SplineSet
106 0 m 17xe240
 106 1452 l 9
 918 1452 l 25
 918 0 l 25
 106 0 l 17xe240
279 1211 m 0
 279 1195 286 1178 314 1178 c 0
 373 1178 398 1180 427 1180 c 0
 544 1180 655 1100 655 1039 c 0xf0
 655 861 331 786 331 571 c 0
 331 419 454 328 507 328 c 0
 528 328 543 338 543 361 c 0
 543 402 458 424 458 519 c 0xe5
 458 613 595 675 719 822 c 0
 760 871 772 908 772 970 c 0
 772 1160 535 1338 452 1338 c 0
 368 1338 279 1248 279 1211 c 0
394 168 m 0xe880
 394 140 453 72 490 70 c 1
 540 72 590 152 590 167 c 0
 589 199 532 265 494 265 c 0
 465 265 394 209 394 168 c 0xe880
EndSplineSet
Validated: 1
EndChar

StartChar: k
Encoding: 107 107 5
Width: 1298
VWidth: 0
Flags: HMW
HStem: 0 75<65 200.941 439.387 630 1083.46 1243> 727 75<718 858.943 1002.01 1224> 1469 20G<347.5 439>
VStem: 204 235<80.219 301 404 1322.99>
AnchorPoint: "cedilla" 659 -190 basechar 0
LayerCount: 3
Fore
SplineSet
36 1305 m 1
 32 1384 l 1
 154 1406 256 1423 439 1489 c 1
 439 404 l 1
 822 670 l 2
 848 688 859 700 859 708 c 0
 859 730 781 725 718 727 c 1
 718 802 l 1
 1226 802 l 1
 1224 727 l 1
 1090 726 1057 732 961 665 c 2
 715 493 l 1
 1018 170 l 2
 1100 83 1150 75 1202 75 c 2
 1245 75 l 1
 1243 0 l 1
 836 0 l 1
 529 364 l 1
 439 301 l 1
 439 120 l 2
 439 71 470 77 630 75 c 1
 632 0 l 1
 65 0 l 1
 64 75 l 1
 172 78 204 74 204 138 c 2
 204 1244 l 2
 204 1304 198 1323 159 1323 c 0
 134 1323 95 1315 36 1305 c 1
EndSplineSet
Layer: 2
SplineSet
292 338 m 1
 292 116 l 2
 292 59 311 67 454 65 c 1
 456 0 l 1
 36 0 l 1
 35 65 l 1
 138 66 153 59 153 111 c 2
 153 1289 l 2
 153 1359 151 1385 122 1385 c 0
 113 1385 72 1376 34 1366 c 1
 30 1431 l 1
 104 1445 183 1460 297 1485 c 1
 297 410 l 1
 670 714 l 2
 681 723 684 729 684 735 c 0
 684 747 668 749 642 749 c 0
 625 749 604 748 580 748 c 1
 580 803 l 1
 910 803 l 1
 908 748 l 1
 847 747 830 753 766 702 c 2
 475 471 l 1
 780 114 l 2
 819 69 811 65 872 65 c 2
 926 65 l 1
 925 0 l 1
 683 0 l 1
 364 393 l 1
 292 338 l 1
EndSplineSet
EndChar

StartChar: n
Encoding: 110 110 6
Width: 1083
VWidth: 0
Flags: HMW
HStem: 0 75<26 165.029 404.268 499 561 678.293 918.793 1054> 674 142<570.089 825.5> 815 20G<324.083 400>
VStem: 167 235<77.187 646.852> 680 235<79.875 657.309>
AnchorPoint: "cedilla" 524 -190 basechar 0
AnchorPoint: "top" 537 1000 basechar 0
LayerCount: 3
Fore
SplineSet
24 75 m 1xd8
 155 78 167 65 167 147 c 2
 167 645 l 2
 167 685 159 693 139 693 c 0
 119 693 93 682 32 669 c 1
 28 739 l 1
 402 835 l 1xb8
 398 785 400 756 397 686 c 1
 432 700 604 816 753 816 c 0
 898 816 915 710 915 618 c 2
 915 138 l 2
 915 75 957 75 1055 75 c 1
 1054 0 l 1
 561 0 l 1
 561 75 l 1
 653 78 680 64 680 138 c 2
 680 540 l 2
 680 642 639 674 586 674 c 0
 498 674 402 630 402 630 c 1
 402 147 l 2
 402 65 421 77 499 75 c 1
 499 0 l 1
 26 0 l 1
 24 75 l 1xd8
EndSplineSet
EndChar

StartChar: a
Encoding: 97 97 7
Width: 864
VWidth: 0
Flags: W
HStem: -41 21G<616 639.5> -23 131<178.5 394.413> 393 76<341.696 468> 718 112<238.529 571>
VStem: 52 197<126.096 274.173> 79 120<537.583 651.988> 468 191<154.361 393 469 690.966>
AnchorPoint: "top" 391 1000 basechar 0
LayerCount: 3
Fore
SplineSet
52 139 m 0x7a
 52 388 420 467 468 469 c 1
 468 578 l 2
 468 651 437 718 338 718 c 0
 209 718 193 652 193 652 c 1
 193 652 199 636 199 613 c 0
 199 577 159 527 127 527 c 0
 118 527 79 531 79 587 c 0
 79 627 131 830 473 830 c 0
 669 830 672 721 672 599 c 0
 672 473 659 379 659 284 c 0
 659 77 816 153 816 106 c 0
 816 64 644 -41 635 -41 c 0xb6
 597 -41 522 27 485 111 c 1
 430 5 285 -23 248 -23 c 0
 109 -23 52 51 52 139 c 0x7a
249 213 m 0x7a
 249 127 320 108 360 108 c 0
 416 108 468 153 468 221 c 2
 468 393 l 1
 332 393 249 291 249 213 c 0x7a
EndSplineSet
Layer: 2
SplineSet
472 816 m 0
 664 816 667 710 667 590 c 0
 667 466 655 374 655 281 c 0
 655 78 809 153 809 107 c 0
 809 66 640 -37 631 -37 c 0
 594 -37 520 30 484 112 c 1
 430 8 288 -20 252 -20 c 0
 116 -20 59 53 59 139 c 0
 59 383 420 461 467 463 c 1
 467 569 l 2
 467 641 437 707 340 707 c 0
 214 707 198 642 198 642 c 1
 198 642 204 627 204 604 c 0
 204 569 164 519 133 519 c 0
 124 519 86 523 86 578 c 0
 86 617 137 816 472 816 c 0
361 109 m 0
 416 109 467 152 467 219 c 2
 467 388 l 1
 334 388 253 288 253 212 c 0
 253 128 322 109 361 109 c 0
EndSplineSet
EndChar

StartChar: h
Encoding: 104 104 8
Width: 1126
VWidth: 0
Flags: HMW
HStem: 0 75<50 188.344 427.391 533 625 701.984 940.715 1078> 674 142<591.753 849.5> 1472 20G<319 426>
VStem: 191 235<77.0756 646.886 688 1323.99> 704 235<77.55 657.309>
AnchorPoint: "top" 611 1500 basechar 0
LayerCount: 3
Fore
SplineSet
33 1381 m 1
 148 1408 212 1424 426 1492 c 1
 426 688 l 1
 461 702 628 816 777 816 c 0
 922 816 939 710 939 618 c 2
 939 138 l 2
 939 66 965 78 1079 75 c 1
 1078 0 l 1
 625 0 l 1
 625 75 l 1
 682 78 704 75 704 138 c 2
 704 540 l 2
 704 642 663 674 610 674 c 0
 522 674 426 630 426 630 c 1
 426 147 l 2
 426 65 434 80 533 75 c 1
 533 0 l 1
 50 0 l 1
 48 75 l 1
 171 77 191 65 191 147 c 2
 191 1238 l 2
 191 1304 183 1324 155 1324 c 0
 132 1324 103 1310 38 1298 c 1
 33 1381 l 1
EndSplineSet
EndChar

StartChar: f
Encoding: 102 102 9
Width: 671
VWidth: 0
Flags: W
HStem: 0 75<64 202.982 439.97 594> 702 100<62 204 439 593> 1400 94<457.397 613>
VStem: 204 235<76.9512 702 802 1279.49>
LayerCount: 3
Fore
SplineSet
62 702 m 1
 62 802 l 1
 205 802 l 1
 205 1024 l 2
 205 1428 423 1494 574 1494 c 0
 652 1494 755 1447 755 1380 c 0
 755 1347 674 1242 626 1242 c 0
 584 1242 568 1400 514 1400 c 0
 439 1400 438 1298 438 1206 c 2
 438 802 l 1
 593 802 l 1
 593 702 l 1
 439 702 l 1
 439 138 l 2
 439 67 445 77 596 75 c 1
 594 0 l 1
 64 0 l 1
 61 75 l 1
 186 78 204 66 204 132 c 2
 204 702 l 1
 62 702 l 1
EndSplineSet
Validated: 1
Layer: 2
SplineSet
35 704 m 5
 59 802 l 5
 185 802 l 5
 185 1029 l 6
 185 1056 185 1082 187 1108 c 4
 200 1314 335 1503 555 1503 c 4
 624 1503 723 1482 723 1420 c 4
 723 1396 661 1290 613 1290 c 4
 572 1290 556 1410 481 1410 c 4
 337 1410 327 1151 327 1094 c 6
 327 802 l 5
 558 802 l 5
 534 704 l 5
 328 704 l 5
 328 128 l 6
 328 57 348 69 485 65 c 5
 483 0 l 5
 57 0 l 5
 55 65 l 5
 157 69 184 54 184 120 c 6
 184 704 l 5
 35 704 l 5
EndSplineSet
EndChar

StartChar: e
Encoding: 101 101 10
Width: 896
VWidth: 0
Flags: W
HStem: -21 153<413.669 643.946> 747 75<347.757 492.773>
VStem: 73 216<272.575 459 528 591.138>
AnchorPoint: "top" 452 1000 basechar 0
LayerCount: 3
Fore
SplineSet
73 377 m 0
 73 649 245 822 452 822 c 0
 674 822 794 625 794 559 c 0
 794 536 772 528 764 527 c 2
 289 459 l 1
 289 459 290 132 549 132 c 0
 713 132 790 206 825 206 c 0
 835 206 842 199 842 181 c 0
 842 145 661 -21 452 -21 c 0
 247 -21 73 131 73 377 c 0
290 528 m 1
 556 566 l 1
 556 566 531 747 416 747 c 0
 351 747 295 668 290 528 c 1
EndSplineSet
Layer: 2
SplineSet
816 184 m 4
 816 149 638 -14 433 -14 c 4
 232 -14 62 135 62 376 c 4
 62 643 230 813 433 813 c 4
 651 813 769 620 769 555 c 4
 769 532 747 525 739 524 c 6
 271 454 l 5
 271 454 274 136 528 136 c 4
 689 136 765 209 799 209 c 4
 809 209 816 202 816 184 c 4
274 524 m 5
 529 562 l 5
 529 562 483 738 388 738 c 4
 321 738 284 658 274 524 c 5
EndSplineSet
EndChar

StartChar: d
Encoding: 100 100 11
Width: 1104
VWidth: 0
Flags: HMW
HStem: -29 148<403.931 561.86> 67 69<922.587 1042> 753 70<381.6 608.119> 1476 20G<811.5 899>
VStem: 54 234<258.197 610.781> 664 235<134.364 710.5 775 1326.97>
AnchorPoint: "commaright" 1053 1340 basechar 0
LayerCount: 3
Fore
SplineSet
54 414 m 0xbc
 54 642 214 823 445 823 c 0
 604 823 664 775 664 775 c 1
 664 1212 l 2
 664 1290 663 1327 623 1327 c 0
 610 1327 542 1309 489 1294 c 1
 482 1382 l 1
 584 1401 724 1437 899 1496 c 1
 899 186 l 2
 899 128 904 112 922 112 c 0
 934 112 980 128 1042 136 c 1
 1044 67 l 1x7c
 919 40 846 13 669 -54 c 1
 669 18 671 58 671 89 c 0
 671 105 671 116 669 123 c 1
 666 121 579 -29 422 -29 c 0
 221 -29 54 160 54 414 c 0xbc
288 458 m 0
 288 248 401 119 523 119 c 0xbc
 648 119 664 169 664 169 c 1
 664 668 l 1
 664 668 602 753 499 753 c 0
 412 753 288 713 288 458 c 0
EndSplineSet
EndChar

StartChar: c
Encoding: 99 99 12
Width: 885
VWidth: 0
Flags: W
HStem: -29 147<419.655 653.386> 744 82<362.376 526.874>
VStem: 66 238<254.089 581.378>
AnchorPoint: "cedilla" 464 -190 basechar 0
AnchorPoint: "top" 453 1000 basechar 0
LayerCount: 3
Fore
SplineSet
66 379 m 0
 66 620 231 826 483 826 c 0
 660 826 787 712 787 645 c 0
 787 605 695 569 632 569 c 0
 525 569 591 744 441 744 c 0
 338 744 304 592 304 514 c 0
 304 206 425 118 553 118 c 0
 708 118 749 182 784 182 c 0
 797 182 816 172 816 148 c 0
 816 86 623 -29 464 -29 c 0
 150 -29 66 146 66 379 c 0
EndSplineSet
EndChar

StartChar: b
Encoding: 98 98 13
Width: 1103
VWidth: 0
Flags: MW
HStem: -29 90<419.936 702.638> 686 135<509.874 693.485> 1476 20G<342.5 399>
VStem: 164 235<86.1283 665.153 698 1339.99> 809 225<209.528 557.471>
LayerCount: 3
Fore
SplineSet
13 1397 m 1
 121 1414 286 1466 399 1496 c 1
 399 698 l 1
 428 728 535 821 682 821 c 0
 927 821 1034 610 1034 441 c 0
 1034 210 929 -29 560 -29 c 0
 413 -29 311 26 278 26 c 0
 192 26 196 -124 158 -124 c 0
 150 -124 100 -124 100 -91 c 0
 100 -56 164 100 164 314 c 2
 164 1289 l 2
 164 1325 152 1340 125 1340 c 0
 122 1340 26 1318 19 1318 c 1
 13 1397 l 1
399 168 m 2
 399 75 487 61 569 61 c 0
 661 61 809 115 809 358 c 0
 809 658 610 686 566 686 c 0
 443 686 399 640 399 640 c 1
 399 168 l 2
EndSplineSet
Validated: 1
EndChar

StartChar: g
Encoding: 103 103 14
Width: 993
VWidth: 0
Flags: HMW
HStem: -530 111<243.215 609.506> -93 153<263.116 669.059> 175 75<397.392 533.488> 749 86<361.163 526.65>
VStem: -11 173<-344.542 -167.692> 75 251<337.782 657.064> 100 162<8 126.013> 591 234<331.481 608.626> 736 196<-320.793 -147.342>
AnchorPoint: "top" 467 1000 basechar 0
LayerCount: 3
Fore
SplineSet
-11 -286 m 0xf880
 -11 -101 228 -71 228 -71 c 1
 228 -71 100 -33 100 49 c 0xf2
 100 149 292 192 292 192 c 1
 292 192 75 269 75 495 c 0xf4
 75 699 254 835 467 835 c 0
 616 835 717 750 732 750 c 0
 761 750 901 793 928 793 c 0
 936 793 968 674 968 658 c 0
 968 636 809 610 809 599 c 0
 809 589 825 556 825 497 c 0
 825 368 764 184 416 175 c 0
 336 173 262 139 262 102 c 0xf3
 262 60 310 60 362 60 c 0
 454 60 547 65 593 65 c 0
 886 65 932 -86 932 -180 c 0
 932 -405 635 -530 373 -530 c 0
 165 -530 -11 -450 -11 -286 c 0xf880
406 -419 m 0
 564 -419 736 -343 736 -231 c 0
 736 -85 502 -112 373 -100 c 0
 340 -97 314 -93 314 -93 c 1
 312 -93 l 2
 244 -93 162 -176 162 -244 c 0xf880
 162 -349 276 -419 406 -419 c 0
326 551 m 0xf5
 326 307 418 250 467 250 c 0
 547 250 591 344 591 451 c 0
 591 591 553 749 444 749 c 0
 346 749 326 641 326 551 c 0xf5
EndSplineSet
Layer: 2
SplineSet
-21 -286 m 4xf880
 -21 -222 0 -105 228 -71 c 5
 228 -71 100 -33 100 49 c 4xf2
 100 149 292 192 292 192 c 5
 292 192 75 269 75 495 c 4xf4
 75 699 254 842 467 842 c 4
 616 842 717 750 732 750 c 4
 761 750 901 793 928 793 c 4
 936 793 968 674 968 658 c 4
 968 636 809 610 809 599 c 4
 809 589 825 556 825 497 c 4
 825 368 764 184 416 175 c 4
 336 173 262 139 262 102 c 4xf3
 262 60 310 60 362 60 c 4
 454 60 547 65 593 65 c 4
 886 65 932 -86 932 -180 c 4
 932 -405 635 -530 373 -530 c 4
 165 -530 -21 -450 -21 -286 c 4xf880
152 -242 m 4xf880
 152 -365 274 -419 406 -419 c 4
 564 -419 736 -343 736 -231 c 4
 736 -85 502 -112 373 -100 c 4
 340 -97 314 -93 314 -93 c 5
 224 -93 152 -178 152 -242 c 4xf880
326 551 m 4xf5
 326 307 418 250 467 250 c 4
 547 250 581 344 581 451 c 4
 581 591 553 759 444 759 c 4
 346 759 326 641 326 551 c 4xf5
-11 -286 m 0xf880
 -11 -243 8 -122 236 -72 c 1
 236 -72 100 -33 100 49 c 0xf2
 100 149 292 192 292 192 c 1
 292 192 75 269 75 495 c 0xf4
 75 699 254 842 467 842 c 0
 647 842 718 736 733 736 c 0
 762 736 901 793 928 793 c 0
 936 793 968 683 968 667 c 0
 968 645 809 606 809 595 c 0
 809 585 825 556 825 497 c 0
 825 368 764 184 416 175 c 0
 336 173 262 139 262 102 c 0xf3
 262 56 310 55 362 55 c 0
 454 55 547 60 593 60 c 0
 886 60 932 -84 932 -178 c 0
 932 -410 647 -529 391 -529 c 0
 181 -529 -11 -449 -11 -286 c 0xf880
160 -253 m 0xf880
 160 -373 284 -427 416 -427 c 0
 570 -427 736 -355 736 -229 c 0
 736 -100 546 -109 437 -106 c 0
 380 -104 314 -95 314 -95 c 1
 224 -95 160 -182 160 -253 c 0xf880
326 551 m 0xf5
 326 307 418 250 467 250 c 0
 547 250 581 344 581 451 c 0
 581 591 553 759 444 759 c 0
 346 759 326 641 326 551 c 0xf5
EndSplineSet
EndChar

StartChar: r
Encoding: 114 114 15
Width: 806
VWidth: 0
Flags: HMW
HStem: 0 75<71 212.641 451.582 627> 621 196<508.5 707.762>
VStem: 215 235<77.7336 612.127 653 691.994>
AnchorPoint: "cedilla" 334 -190 basechar 0
AnchorPoint: "top" 419 1000 basechar 0
LayerCount: 3
Fore
SplineSet
35 734 m 1
 122 751 188 759 446 822 c 1
 446 653 l 1
 497 688 578 817 668 817 c 0
 722 817 770 768 770 753 c 1
 770 753 719 527 695 527 c 0
 671 527 641 621 534 621 c 0
 483 621 450 582 450 559 c 0
 450 425 450 291 450 157 c 0
 450 62 451 78 627 75 c 1
 627 0 l 1
 71 0 l 1
 71 75 l 1
 211 76 215 70 215 160 c 2
 215 610 l 2
 215 684 201 692 181 692 c 0
 171 692 169 691 45 666 c 1
 35 734 l 1
EndSplineSet
EndChar

StartChar: s
Encoding: 115 115 16
Width: 806
VWidth: 0
Flags: W
HStem: -27 93<222.036 511.27> 748 83<312.058 536.518>
VStem: 74 59<209.256 287> 101 73<-102 -4.93827> 121 173<524.304 723.183> 524 189<93.883 280.462> 614 54<794.555 866> 624 68<529.06 657.301>
AnchorPoint: "cedilla" 397 -190 basechar 0
AnchorPoint: "top" 408 1000 basechar 0
LayerCount: 3
Fore
SplineSet
385 66 m 0xe0
 454 66 524 82 524 149 c 0xe4
 524 175 506 213 457 243 c 2
 277 352 l 2
 194 402 121 467 121 584 c 0
 121 719 230 831 382 831 c 0
 491 831 537 793 589 793 c 0
 616 793 613 836 614 866 c 1
 668 869 l 1xca
 674 755 684 644 692 530 c 1
 631 526 l 1
 624 588 l 2
 615 665 511 748 408 748 c 0
 337 748 294 707 294 663 c 0xc9
 294 604 352 564 429 520 c 2
 541 456 l 2
 635 402 713 334 713 226 c 0
 713 89 589 -27 405 -27 c 0
 308 -27 209 -1 194 -1 c 0
 180 -1 172 -17 172 -31 c 2
 174 -102 l 1
 101 -103 l 1xd4
 96 21 91 138 74 287 c 1
 133 289 l 1
 149 200 l 2
 165 111 306 66 385 66 c 0xe0
EndSplineSet
Layer: 2
SplineSet
74 287 m 5xe0
 133 289 l 5
 149 200 l 6
 172 69 383 55 399 55 c 4
 484 55 526 107 526 147 c 4xe4
 526 211 400 265 289 342 c 4
 201 403 123 460 123 584 c 4
 123 727 230 831 382 831 c 4
 491 831 537 793 589 793 c 4
 616 793 616 836 617 866 c 5
 668 869 l 5xca
 674 755 686 643 694 529 c 5
 631 526 l 5
 624 588 l 6
 611 702 497 749 395 749 c 4
 350 749 299 719 299 663 c 4xc9
 299 505 713 470 713 226 c 4
 713 89 589 -27 405 -27 c 4
 308 -27 209 -1 194 -1 c 4
 180 -1 172 -17 172 -31 c 6
 174 -102 l 5
 101 -103 l 5xd4
 96 21 91 138 74 287 c 5xe0
EndSplineSet
AlternateSubs2: "'aalt' Access All Alternates lookup 0 subtable" longs
AlternateSubs2: "'aalt' Access All Alternates in Latin lookup 0 subtable" longs
Substitution2: "'hist' Historical Forms in Latin lookup 8 subtable" longs
EndChar

StartChar: o
Encoding: 111 111 17
Width: 1031
VWidth: 0
Flags: W
HStem: -31 96<431.073 623.374> 744 91<406.948 608.031>
VStem: 81 251<187.139 602.907> 695 238<181.083 608.38>
AnchorPoint: "top" 509 1000 basechar 0
LayerCount: 3
Fore
SplineSet
81 395 m 0
 81 614 212 835 514 835 c 0
 860 835 933 571 933 372 c 0
 933 137 762 -31 507 -31 c 0
 193 -31 81 193 81 395 c 0
332 418 m 0
 332 235 402 65 523 65 c 0
 667 65 695 229 695 355 c 0
 695 590 648 744 503 744 c 0
 435 744 332 697 332 418 c 0
EndSplineSet
EndChar

StartChar: w
Encoding: 119 119 18
Width: 1648
VWidth: 0
Flags: W
HStem: -44 21G<499.419 560.249 1087.05 1142.66> 727 75<25 150.795 416.14 525 633 763.745 1014.02 1114 1261 1381.97 1490.52 1599>
AnchorPoint: "top" 848 1000 basechar 0
LayerCount: 3
Fore
SplineSet
25 727 m 5
 25 802 l 5
 525 802 l 5
 525 727 l 5
 464 726 416 728 416 686 c 4
 416 671 422 652 435 624 c 6
 599 271 l 5
 783 649 l 5
 758 708 746 727 691 727 c 6
 631 727 l 5
 633 802 l 5
 1114 802 l 5
 1114 727 l 5
 1047 727 1014 721 1014 689 c 4
 1014 678 1018 664 1026 646 c 6
 1188 282 l 5
 1368 654 l 6
 1377 673 1382 688 1382 698 c 4
 1382 728 1342 726 1261 727 c 5
 1261 802 l 5
 1599 802 l 5
 1601 727 l 5
 1541 727 1505 727 1474 662 c 6
 1133 -44 l 5
 1096 -44 l 5
 828 555 l 5
 551 -44 l 5
 509 -44 l 5
 189 624 l 6
 139 728 125 726 25 727 c 5
EndSplineSet
EndChar

StartChar: u
Encoding: 117 117 19
Width: 1177
VWidth: 0
Flags: HMW
HStem: -47 21G<726.5 773> -25 151<321 584.472> 798 20G<378 438 887.5 951>
VStem: 203 235<154.963 706.804> 716 235<157.212 705.736>
AnchorPoint: "top" 553 1000 basechar 0
LayerCount: 3
Fore
SplineSet
25 784 m 1
 91 788 318 802 438 818 c 1
 438 312 l 2
 438 154 501 126 558 126 c 0
 658 126 716 191 716 191 c 1
 716 653 l 2
 716 705 686 706 659 706 c 0
 630 706 553 700 549 696 c 1
 546 780 l 1
 636 787 824 802 951 818 c 1
 951 229 l 2
 951 161 955 139 980 139 c 0
 993 139 1039 152 1133 183 c 1
 1136 103 l 1
 1050 71 818 -17 728 -47 c 1
 725 0 724 70 724 127 c 1
 687 86 569 -25 425 -25 c 0
 217 -25 203 126 203 225 c 2
 203 658 l 2
 203 702 174 708 135 708 c 0
 114 708 90 705 28 699 c 1
 25 784 l 1
EndSplineSet
EndChar

StartChar: t
Encoding: 116 116 20
Width: 734
VWidth: 0
Flags: W
HStem: -37 148<334.5 565.404> 663 125<394 629>
VStem: 179 215<137.53 663>
AnchorPoint: "commaright" 528 1340 basechar 0
AnchorPoint: "cedilla" 362 -190 basechar 0
LayerCount: 3
Fore
SplineSet
29 676 m 0
 29 701 131 773 296 942 c 0
 374 1021 367 1024 382 1024 c 0
 391 1024 394 1015 394 1007 c 2
 394 788 l 1
 654 788 l 1
 629 663 l 1
 394 663 l 1
 394 259 l 2
 394 164 435 111 506 111 c 0
 577 111 632 158 657 158 c 0
 669 158 678 152 678 135 c 0
 678 49 520 -37 387 -37 c 0
 282 -37 179 18 179 223 c 2
 179 663 l 1
 59 663 l 2
 37 663 29 668 29 676 c 0
EndSplineSet
EndChar

StartChar: y
Encoding: 121 121 21
Width: 1210
VWidth: 0
Flags: W
HStem: -537 197<59.1478 293.665> 727 75<65 199.301 492.029 620 751 908.981 1039.21 1174>
AnchorPoint: "top" 673 1000 basechar 0
LayerCount: 3
Fore
SplineSet
47 -445 m 0
 47 -359 96 -340 151 -340 c 0
 183 -340 216 -348 243 -348 c 0
 350 -348 367 -298 565 28 c 1
 239 623 l 2
 177 736 176 726 65 727 c 1
 64 802 l 1
 621 802 l 1
 620 727 l 1
 531 726 492 729 492 699 c 0
 492 680 507 648 536 594 c 2
 702 273 l 1
 817 472 909 662 909 698 c 0
 909 731 883 726 751 727 c 1
 751 802 l 1
 1174 802 l 1
 1174 727 l 1
 1055 725 1061 736 1003 628 c 0
 516 -266 397 -537 139 -537 c 0
 88 -537 47 -518 47 -445 c 0
EndSplineSet
EndChar

StartChar: quoteright
Encoding: 8217 8217 22
Width: 497
VWidth: 0
Flags: W
HStem: 981 513
VStem: 228 192<1134.96 1375>
LayerCount: 3
Fore
SplineSet
228 1177 m 0
 228 1296 99 1299 99 1338 c 0
 99 1370 217 1494 242 1494 c 0
 259 1494 420 1455 420 1295 c 0
 420 1033 151 981 129 981 c 0
 105 981 99 997 99 1005 c 0
 99 1062 228 1061 228 1177 c 0
EndSplineSet
Validated: 1
EndChar

StartChar: G
Encoding: 71 71 23
Width: 1720
VWidth: 0
Flags: W
HStem: -53 132<681.829 1112.75> 529 90<916 1210 1500 1643> 1283 121<655.255 1127.92>
VStem: 64 320<419.686 946.025> 1210 290<149.775 529> 1292 93<1308.66 1438>
AnchorPoint: "cedilla" 829 -190 basechar 0
AnchorPoint: "top" 861 1500 basechar 0
LayerCount: 3
Fore
SplineSet
64 690 m 0xf8
 64 1116 386 1404 879 1404 c 0
 1132 1404 1292 1304 1292 1304 c 1
 1288 1438 l 1
 1385 1443 l 1xf4
 1388 1310 1405 1107 1419 934 c 1
 1320 928 l 1
 1301 1136 l 1
 1301 1136 1169 1283 861 1283 c 0
 479 1283 384 962 384 714 c 0
 384 393 512 79 884 79 c 0
 1124 79 1210 186 1210 186 c 1
 1210 529 l 1
 916 529 l 1
 916 619 l 1
 1643 619 l 1
 1643 529 l 1
 1500 529 l 1
 1500 109 l 1
 1317 93 1189 -2 1016 -34 c 0
 951 -46 885 -53 819 -53 c 0
 237 -53 64 351 64 690 c 0xf8
EndSplineSet
Layer: 2
SplineSet
76 611 m 0xf8
 76 988 362 1388 855 1388 c 0
 1022 1388 1146 1346 1272 1294 c 1
 1272 1397 l 1
 1354 1397 l 1xf4
 1368 950 l 1
 1288 948 l 1xf2
 1274 1162 l 1
 1274 1162 1117 1291 838 1291 c 0
 442 1291 260 1005 260 708 c 0
 260 387 473 53 860 53 c 0
 1100 53 1215 166 1215 166 c 1
 1215 532 l 1
 970 532 l 1
 968 611 l 1
 1533 611 l 1
 1535 532 l 1
 1381 532 l 1
 1381 112 l 1
 1220 44 1078 -48 822 -48 c 0
 306 -48 76 273 76 611 c 0xf8
EndSplineSet
Position2: "'cpsp' Capital Spacing in Latin lookup 1 subtable" dx=13 dy=0 dh=26 dv=0
EndChar

StartChar: A
Encoding: 65 65 24
Width: 1620
VWidth: 0
Flags: W
HStem: 0 90<62 216.403 364.042 567 954 1111.97 1414.64 1574> 511 105<563 930> 1396 20G<825.422 920.725>
AnchorPoint: "top" 860 1500 basechar 0
LayerCount: 3
Fore
SplineSet
60 90 m 1
 195 93 194 78 268 232 c 2
 835 1416 l 1
 913 1416 l 1
 1346 295 l 2
 1424 93 1429 90 1506 90 c 2
 1574 90 l 1
 1577 0 l 1
 954 0 l 1
 953 90 l 1
 1069 91 1112 87 1112 120 c 0
 1112 135 1103 159 1090 194 c 2
 971 511 l 1
 521 511 l 1
 382 189 l 2
 371 162 364 142 364 128 c 0
 364 85 421 91 567 90 c 1
 568 0 l 1
 62 0 l 1
 60 90 l 1
563 616 m 1
 930 616 l 1
 768 1062 l 1
 563 616 l 1
EndSplineSet
Layer: 2
SplineSet
52 0 m 29
 50 80 l 21
 152 86 143 65 218 232 c 4
 491 840 492 840 520 908 c 4
 731 1416 721 1416 745 1416 c 6
 759 1416 l 6
 781 1416 779 1391 841 1240 c 6
 1278 168 l 6
 1318 70 1324 82 1426 80 c 13
 1423 0 l 29
 956 0 l 29
 958 80 l 21
 1069 82 1110 76 1110 104 c 4
 1110 117 1103 136 1090 168 c 6
 938 540 l 13
 462 540 l 21
 301 180 l 6
 290 156 281 130 281 115 c 4
 281 72 314 83 449 80 c 13
 449 0 l 29
 52 0 l 29
501 630 m 29
 903 630 l 29
 708 1117 l 29
 501 630 l 29
EndSplineSet
Position2: "'cpsp' Capital Spacing in Latin lookup 1 subtable" dx=12 dy=0 dh=24 dv=0
EndChar

StartChar: B
Encoding: 66 66 25
Width: 1298
VWidth: 0
Flags: W
HStem: 0 101<63 209.919 501.697 785.529> 684 90<500 779.822> 1265 100<52 208.672 500.007 748.625>
VStem: 210 290<103.447 684 774 1264.21> 868 278<876.008 1153.32> 935 289<242.581 546.153>
LayerCount: 3
Fore
SplineSet
48 1275 m 1xf4
 52 1365 l 1
 637 1365 l 2
 916 1365 1146 1301 1146 1044 c 0xf8
 1146 774 888 736 888 736 c 1
 888 736 1224 700 1224 368 c 0
 1224 174 1068 0 704 0 c 2
 63 0 l 1
 63 90 l 1
 183 94 210 80 210 150 c 2
 210 1201 l 2
 210 1288 160 1272 48 1275 c 1xf4
497 684 m 1
 500 176 l 2
 500 102 516 101 603 101 c 0
 817 101 935 244 935 389 c 0xf4
 935 507 874 684 546 684 c 2
 497 684 l 1
500 774 m 1
 666 774 l 2
 798 774 868 896 868 1019 c 0xf8
 868 1142 783 1265 557 1265 c 0
 510 1265 500 1250 500 1219 c 2
 500 774 l 1
EndSplineSet
Position2: "'cpsp' Capital Spacing in Latin lookup 1 subtable" dx=9 dy=0 dh=19 dv=0
EndChar

StartChar: C
Encoding: 67 67 26
Width: 1552
VWidth: 0
Flags: W
HStem: -41 117<677.938 1095.58> 1286 113<633.39 1106.83>
VStem: 75 304<406.224 934.848> 1264 86<1362.99 1435> 1378 71<325.254 443.615>
AnchorPoint: "cedilla" 823 -190 basechar 0
AnchorPoint: "top" 819 1500 basechar 0
LayerCount: 3
Fore
SplineSet
75 661 m 0
 75 1251 547 1399 819 1399 c 0
 1104 1399 1212 1321 1240 1321 c 0
 1264 1321 1269 1337 1269 1362 c 0
 1269 1383 1265 1406 1264 1435 c 1
 1350 1445 l 1
 1370 1247 1398 1072 1418 940 c 1
 1328 932 l 1
 1328 932 1311 1039 1306 1058 c 0
 1285 1134 1253 1163 1200 1197 c 0
 1113 1251 983 1286 856 1286 c 0
 773 1286 691 1271 623 1237 c 0
 433 1141 379 917 379 709 c 0
 379 180 683 76 885 76 c 0
 963 76 1040 94 1108 126 c 0
 1264 200 1292 243 1301 254 c 0
 1353 319 1365 384 1378 450 c 1
 1449 442 l 1
 1434 267 1422 213 1404 125 c 1
 1394 125 l 2
 1383 125 1364 123 1337 109 c 0
 1282 80 1199 26 1100 -1 c 0
 1015 -24 920 -41 823 -41 c 0
 320 -41 75 248 75 661 c 0
EndSplineSet
Position2: "'cpsp' Capital Spacing in Latin lookup 1 subtable" dx=11 dy=0 dh=23 dv=0
EndChar

StartChar: D
Encoding: 68 68 27
Width: 1603
VWidth: 0
Flags: W
HStem: 0 100<51 206.405 504.984 889.336> 1270 95<45 205.326 501.141 834.484>
VStem: 207 290<109.053 1267.23> 1201 292<452.247 903.099>
LayerCount: 3
Fore
SplineSet
44 1365 m 1
 732 1365 l 2
 786 1365 879 1365 946 1354 c 0
 1060 1336 1186 1290 1308 1176 c 0
 1428 1063 1493 890 1493 708 c 0
 1493 630 1481 550 1456 472 c 0
 1380 236 1167 0 681 0 c 2
 51 0 l 1
 51 90 l 1
 207 93 207 81 207 181 c 2
 207 1196 l 2
 207 1283 183 1273 45 1275 c 1
 44 1365 l 1
497 194 m 2
 497 108 540 100 621 100 c 0
 1107 100 1201 398 1201 672 c 0
 1201 960 1005 1270 597 1270 c 2
 582 1270 l 2
 517 1270 497 1261 497 1174 c 2
 497 194 l 2
EndSplineSet
Position2: "'cpsp' Capital Spacing in Latin lookup 1 subtable" dx=12 dy=0 dh=24 dv=0
EndChar

StartChar: E
Encoding: 69 69 28
Width: 1308
VWidth: 0
Flags: W
HStem: 0 122<493.669 1007.77> 0 90<55 200.941> 716 105<493.376 898.337> 1260 105<494.062 1037.26> 1275 90<41 200.651>
VStem: 202 290<123.412 715.644 821.265 1256.15> 902 85<503 715.064 822.883 1004> 1093 81<1024 1182.76>
AnchorPoint: "top" 621 1500 basechar 0
LayerCount: 3
Fore
SplineSet
39 1365 m 1x6f
 1130 1365 l 1x6f
 1143 1249 1157 1137 1174 1024 c 1
 1093 1024 l 1
 1053 1248 1028 1260 904 1260 c 2
 606 1260 l 2
 494 1260 492 1254 492 1162 c 2
 492 898 l 2
 492 822 506 821 556 821 c 2
 824 821 l 2
 912 821 900 834 902 1004 c 1
 987 1004 l 1
 987 503 l 1
 902 503 l 1
 899 714 912 716 829 716 c 2
 561 716 l 2
 510 716 492 716 492 662 c 2
 492 206 l 2
 492 135 499 122 553 122 c 0xb7
 1151 129 1125 133 1140 186 c 0
 1154 234 1173 377 1182 419 c 1
 1272 406 l 1
 1248 296 1224 130 1212 0 c 1
 55 0 l 1
 54 90 l 1
 194 92 202 80 202 168 c 2
 202 1187 l 2
 202 1274 202 1275 41 1275 c 1
 39 1365 l 1x6f
EndSplineSet
Position2: "'cpsp' Capital Spacing in Latin lookup 1 subtable" dx=10 dy=0 dh=20 dv=0
EndChar

StartChar: F
Encoding: 70 70 29
Width: 1221
VWidth: 0
Flags: W
HStem: 0 90<50 200.049 494.637 736> 716 105<493.376 898.337> 1260 105<494.062 1046.38> 1275 90<41 200.651>
VStem: 202 290<95.7248 715.644 821.265 1256.15> 902 85<503 715.064 822.883 1003> 1109 56<1027 1145.29>
LayerCount: 3
Fore
SplineSet
202 181 m 2xee
 202 1187 l 2
 202 1274 202 1275 41 1275 c 1
 39 1365 l 1
 1153 1365 l 1xde
 1165 1027 l 1
 1109 1027 l 1
 1069 1251 1028 1260 904 1260 c 2
 606 1260 l 2
 494 1260 492 1254 492 1162 c 2
 492 898 l 2
 492 822 506 821 556 821 c 2
 824 821 l 2
 912 821 900 834 902 1004 c 1
 987 1003 l 1
 987 502 l 1
 902 503 l 1
 899 714 912 716 829 716 c 2
 561 716 l 2
 510 716 492 716 492 662 c 2
 492 179 l 2
 492 80 504 92 736 90 c 1
 736 0 l 1
 50 0 l 1
 49 90 l 1
 191 94 202 77 202 181 c 2xee
EndSplineSet
Position2: "'cpsp' Capital Spacing in Latin lookup 1 subtable" dx=9 dy=0 dh=18 dv=0
EndChar

StartChar: H
Encoding: 72 72 30
Width: 1749
VWidth: 0
Flags: W
HStem: 0 90<66 215.392 510.625 719 1037 1203.3 1496.76 1671> 682 105<507 1205> 1275 90<47 215.725 510.382 682 988 1203.71 1499.34 1660>
VStem: 217 290<96.4586 682 787 1270.09> 1205 290<94.219 682 787 1269.41>
AnchorPoint: "top" 831 1500 basechar 0
LayerCount: 3
Fore
SplineSet
1495 1184 m 2
 1495 179 l 2
 1495 81 1502 93 1671 90 c 1
 1671 0 l 1
 1036 0 l 1
 1037 90 l 1
 1202 93 1205 81 1205 181 c 2
 1205 682 l 1
 507 682 l 1
 507 179 l 2
 507 80 533 92 719 90 c 1
 721 0 l 1
 66 0 l 1
 64 90 l 1
 210 93 217 77 217 181 c 2
 217 1206 l 2
 217 1280 194 1272 47 1275 c 1
 47 1365 l 1
 682 1365 l 1
 682 1275 l 1
 533 1269 507 1292 507 1184 c 2
 507 787 l 1
 1205 787 l 1
 1205 1206 l 2
 1205 1280 1184 1274 988 1275 c 1
 985 1365 l 1
 1660 1365 l 1
 1660 1275 l 1
 1533 1268 1495 1292 1495 1184 c 2
EndSplineSet
Layer: 2
SplineSet
1495 1184 m 6
 1495 179 l 6
 1495 81 1502 93 1671 90 c 5
 1671 0 l 5
 1036 0 l 5
 1037 90 l 5
 1202 93 1205 81 1205 181 c 6
 1205 684 l 5
 507 684 l 5
 507 179 l 6
 507 80 533 92 719 90 c 5
 721 0 l 5
 66 0 l 5
 64 90 l 5
 210 93 217 77 217 181 c 6
 217 1206 l 6
 217 1280 194 1272 47 1275 c 5
 47 1365 l 5
 682 1365 l 5
 682 1275 l 5
 533 1269 507 1292 507 1184 c 6
 507 789 l 5
 1205 789 l 5
 1205 1206 l 6
 1205 1280 1184 1274 988 1275 c 5
 985 1365 l 5
 1660 1365 l 5
 1660 1275 l 5
 1533 1268 1495 1292 1495 1184 c 6
EndSplineSet
Position2: "'cpsp' Capital Spacing in Latin lookup 1 subtable" dx=13 dy=0 dh=26 dv=0
Comment: "Try to keep the crossbar below the x-height blue zone." 
EndChar

StartChar: I
Encoding: 73 73 31
Width: 781
VWidth: 0
Flags: W
HStem: 0 90<72 234.284 529.241 724> 1275 90<57 235.295 530.006 697>
VStem: 237 290<94.4417 1268.99>
AnchorPoint: "top" 366 1500 basechar 0
LayerCount: 3
Fore
SplineSet
527 1184 m 2
 527 179 l 2
 527 80 538 92 724 90 c 1
 726 0 l 1
 71 0 l 1
 72 90 l 1
 218 93 237 77 237 181 c 2
 237 1206 l 2
 237 1280 204 1272 57 1275 c 1
 57 1365 l 1
 697 1365 l 1
 697 1275 l 1
 549 1272 527 1288 527 1184 c 2
EndSplineSet
Position2: "'cpsp' Capital Spacing in Latin lookup 1 subtable" dx=6 dy=0 dh=12 dv=0
EndChar

StartChar: J
Encoding: 74 74 32
Width: 781
VWidth: 0
Flags: W
HStem: -537 144<-52 194.187> 1275 90<92 236.184 529.544 692>
VStem: 237 290<-245.287 1271.85>
AnchorPoint: "top" 361 1500 basechar 0
LayerCount: 3
Fore
SplineSet
237 181 m 2
 237 1206 l 2
 237 1280 224 1274 92 1275 c 1
 92 1365 l 1
 692 1365 l 1
 692 1275 l 1
 544 1272 527 1288 527 1184 c 2
 527 -28 l 2
 527 -133 501 -353 279 -462 c 0
 203 -499 104 -537 -5 -537 c 0
 -99 -537 -117 -525 -117 -463 c 0
 -117 -422 -109 -377 -99 -297 c 0
 -99 -295 -94 -218 -31 -218 c 0
 12 -218 20 -252 32 -282 c 2
 46 -317 l 2
 62 -358 87 -393 129 -393 c 0
 212 -393 237 -306 237 181 c 2
EndSplineSet
Position2: "'cpsp' Capital Spacing in Latin lookup 1 subtable" dx=6 dy=0 dh=12 dv=0
EndChar

StartChar: K
Encoding: 75 75 33
Width: 1613
VWidth: 0
Flags: W
HStem: 0 90<78 234.838 529.716 744 1365.72 1539> 1275 90<77 235.58 529.195 691 1031 1159.97 1317.32 1495>
VStem: 237 290<95.3069 535 657 1270.91>
AnchorPoint: "cedilla" 789 -190 basechar 0
AnchorPoint: "top" 711 1500 basechar 0
LayerCount: 3
Fore
SplineSet
527 535 m 1
 527 179 l 2
 527 80 542 92 744 90 c 1
 746 0 l 1
 77 0 l 1
 78 90 l 1
 224 93 237 77 237 181 c 2
 237 1206 l 2
 237 1280 210 1274 77 1275 c 1
 77 1365 l 1
 691 1365 l 1
 691 1275 l 1
 540 1272 527 1288 527 1184 c 2
 527 657 l 1
 1112 1191 l 2
 1140 1216 1160 1235 1160 1249 c 0
 1160 1267 1126 1275 1031 1275 c 1
 1028 1365 l 1
 1495 1365 l 1
 1495 1275 l 1
 1462 1275 l 2
 1377 1275 1356 1274 1214 1146 c 2
 832 802 l 1
 1360 140 l 2
 1400 90 1455 90 1482 90 c 2
 1540 90 l 1
 1539 0 l 1
 1120 0 l 1
 621 619 l 1
 527 535 l 1
EndSplineSet
Position2: "'cpsp' Capital Spacing in Latin lookup 1 subtable" dx=12 dy=0 dh=24 dv=0
EndChar

StartChar: L
Encoding: 76 76 34
Width: 1311
VWidth: 0
Flags: W
HStem: 0 100<82 245.572 538.781 1040.97> 1275 90<67 245.295 541.852 727>
VStem: 247 290<100.692 1268.22>
AnchorPoint: "commaright" 859 1340 basechar 0
AnchorPoint: "cedilla" 774 -190 basechar 0
AnchorPoint: "top" 721 1500 basechar 0
LayerCount: 3
Fore
SplineSet
537 1184 m 2
 537 184 l 2
 537 109 547 100 600 100 c 0
 601 100 950 102 1041 125 c 0
 1081 135 1106 149 1170 393 c 1
 1250 376 l 1
 1221 251 1195 125 1169 0 c 1
 81 0 l 1
 82 90 l 1
 228 93 247 77 247 181 c 2
 247 1206 l 2
 247 1280 214 1272 67 1275 c 1
 67 1365 l 1
 729 1365 l 1
 727 1275 l 1
 579 1272 537 1288 537 1184 c 2
EndSplineSet
Position2: "'cpsp' Capital Spacing in Latin lookup 1 subtable" dx=10 dy=0 dh=20 dv=0
EndChar

StartChar: M
Encoding: 77 77 35
Width: 2190
VWidth: 0
Flags: W
HStem: -48 21G<945.5 993.5> 0 90<72 220.675 343.131 555 1447 1609.28 1904.24 2099> 1275 90<48 223.431 1905.28 2075>
VStem: 225 115<97.463 1032> 1612 290<94.4417 1052>
LayerCount: 3
Fore
SplineSet
1612 1052 m 1
 1042 0 l 2
 1018 -44 1013 -48 974 -48 c 2
 958 -48 l 2
 933 -48 921 -43 898 0 c 2
 348 1032 l 1
 345 746 340 203 340 174 c 0
 340 86 360 92 555 90 c 1
 555 0 l 1
 71 0 l 1
 72 90 l 1
 202 92 223 79 225 184 c 2
 239 1213 l 2
 239 1214 239 1227 224 1248 c 0
 212 1264 191 1274 152 1274 c 2
 48 1275 l 1
 46 1365 l 1
 505 1365 l 1
 1076 316 l 1
 1644 1365 l 1
 2075 1365 l 1
 2075 1275 l 1
 1927 1272 1902 1288 1902 1184 c 2
 1902 179 l 2
 1902 80 1913 92 2099 90 c 1
 2101 0 l 1
 1446 0 l 1
 1447 90 l 1
 1593 93 1612 77 1612 181 c 2
 1612 1052 l 1
EndSplineSet
Position2: "'cpsp' Capital Spacing in Latin lookup 1 subtable" dx=16 dy=0 dh=33 dv=0
EndChar

StartChar: N
Encoding: 78 78 36
Width: 1610
VWidth: 0
Flags: W
HStem: -34 21G<1344.5 1394> 0 90<68 212.354 340.519 552> 1275 90<71 194.734 1094 1292.93 1411.32 1562>
VStem: 215 120<96.5005 1089> 1293 115<420 1271.63>
AnchorPoint: "cedilla" 824 -190 basechar 0
AnchorPoint: "top" 806 1500 basechar 0
LayerCount: 3
Fore
SplineSet
1408 18 m 2
 1408 -16 1403 -34 1385 -34 c 2
 1356 -34 l 2
 1333 -34 1323 -31 1294 2 c 2
 330 1089 l 1
 335 204 l 2
 335.711873604 77.9983721673 348 92 552 90 c 1
 552 0 l 1
 68 0 l 1
 64 90 l 1
 201 92 215 81 215 183 c 2
 215 1207 l 1
 185 1237 174 1275 97 1275 c 2
 68 1275 l 1
 71 1365 l 1
 473 1365 l 1
 1293 420 l 1
 1293 1227 l 2
 1293 1281 1272 1273 1094 1275 c 1
 1091 1365 l 1
 1563 1365 l 1
 1562 1275 l 1
 1413 1273 1408.87304688 1284.99902344 1408.77246094 1168 c 2
 1408 18 l 2
EndSplineSet
Position2: "'cpsp' Capital Spacing in Latin lookup 1 subtable" dx=12 dy=0 dh=24 dv=0
EndChar

StartChar: O
Encoding: 79 79 37
Width: 1696
VWidth: 0
Flags: W
HStem: -48 128<688.525 1069.28> 1311 105<612.816 1005.27>
VStem: 73 314<476.546 970.197> 1314 310<401.031 884.945>
AnchorPoint: "top" 815 1500 basechar 0
LayerCount: 3
Fore
SplineSet
73 697 m 0
 74 1174 398 1416 825 1416 c 0
 1274 1416 1624 1142 1624 653 c 0
 1624 194 1272 -48 825 -48 c 0
 320 -48 73 298 73 697 c 0
387 831 m 0
 387 487 485 80 879 80 c 0
 1091 80 1314 216 1314 540 c 0
 1314 913 1182 1311 825 1311 c 0
 632 1311 387 1223 387 831 c 0
EndSplineSet
Position2: "'cpsp' Capital Spacing in Latin lookup 1 subtable" dx=12 dy=0 dh=25 dv=0
EndChar

StartChar: p
Encoding: 112 112 38
Width: 1084
VWidth: 0
Flags: MW
HStem: -530 75<18 160.476 396.374 617> -12 86<435.927 719.402> 684 136<517.907 804> 803 20G<344 396 609 804>
VStem: 161 235<-451.283 18 113.781 648.851> 805 240<208.539 545.559>
LayerCount: 3
Fore
SplineSet
18 -455 m 1xec
 144 -454 161 -458 161 -406 c 2
 161 612 l 2
 161 656 152 671 125 671 c 0
 103 671 69 660 18 652 c 1
 18 730 l 1
 94 745 292 792 396 823 c 1xdc
 396 694 l 1
 397 695 523 820 695 820 c 0
 913 820 1045 611 1045 402 c 0
 1045 247.66640625 957.6 -12 608 -12 c 0
 474 -12 396 18 396 18 c 1
 396 -404 l 2
 396 -458 404 -454 618 -455 c 1
 617 -530 l 1
 18 -530 l 1
 18 -455 l 1xec
396 150 m 1
 396 150 451 74 596 74 c 0
 749 74 805 196 805 347 c 0
 805 509 721 684 561 684 c 0xec
 447 684 396 607 396 607 c 1
 396 150 l 1
EndSplineSet
EndChar

StartChar: q
Encoding: 113 113 39
Width: 1083
VWidth: 0
Flags: W
HStem: -530 75<460 681.259 925.406 1077> -16 131<269 579.129> 728 90<366.493 659.805>
VStem: 40 239<265.804 590.178> 687 235<-447.084 99 143.551 691.19> 872 74<780.227 897.194>
LayerCount: 3
Fore
SplineSet
922 501 m 2xf8
 922 -360 l 2
 922 -464 929 -454 1077 -455 c 1
 1077 -530 l 1
 460 -530 l 1
 460 -455 l 1
 657 -454 687 -460 687 -375 c 2
 687 99 l 1xf8
 687 99 572 -16 384 -16 c 0
 154 -16 40 209 40 408 c 0
 40 684 281 818 501 818 c 0
 631 818 763 762 800 762 c 0
 828 762 832 774 843 795 c 0
 852 814 863 841 872 869 c 0
 879 891 882 899 890 899 c 0
 910 899 946 891 946 880 c 0xf4
 946 862 922 758 922 501 c 2xf8
687 178 m 1
 687 666 l 1
 687 666 614 728 502 728 c 0
 334 728 279 585 279 471 c 0
 279 306 363 115 527 115 c 0
 637 115 687 178 687 178 c 1
EndSplineSet
Validated: 1
EndChar

StartChar: v
Encoding: 118 118 40
Width: 1168
VWidth: 0
Flags: W
HStem: -44 21G<530.212 615.822> 727 75<32 177.862 455.038 595 715 852.974 969.181 1134>
LayerCount: 3
Fore
SplineSet
30 802 m 1
 596 802 l 1
 595 727 l 1
 507 723 455 735 455 696 c 0
 455 682 461 662 475 633 c 2
 654 260 l 1
 780 522 853 652 853 694 c 0
 853 730 817 725 714 727 c 1
 715 802 l 1
 1134 802 l 1
 1134 727 l 1
 992 724 991 741 938 632 c 2
 606 -44 l 1
 540 -44 l 1
 217 616 l 2
 157 739 165 725 32 727 c 1
 30 802 l 1
EndSplineSet
Validated: 1
EndChar

StartChar: x
Encoding: 120 120 41
Width: 1294
VWidth: 0
Flags: W
HStem: 0 75<33 211.514 333.049 499 639 778.973 1094.99 1244> 727 75<77 249.462 542.027 661 763 874.964 992.913 1201>
LayerCount: 3
Fore
SplineSet
31 0 m 1
 33 75 l 1
 156 76 167 71 248 142 c 2
 529 388 l 1
 275 666 l 2
 211 736 176 724 77 727 c 1
 77 802 l 1
 661 802 l 1
 661 727 l 1
 579 727 542 726 542 708 c 0
 542 699 551 687 566 669 c 2
 688 529 l 1
 834 655 l 2
 863 680 875 696 875 707 c 0
 875 728 825 726 763 727 c 1
 763 802 l 1
 1202 802 l 1
 1201 727 l 1
 1036 724 1049 739 956 661 c 2
 736 476 l 1
 985 212 l 2
 1100 90 1132 75 1244 75 c 1
 1245 0 l 1
 639 0 l 1
 639 75 l 1
 742 76 779 84 779 105 c 0
 779 117 767 132 748 153 c 2
 580 340 l 1
 356 130 l 2
 340 115 333 105 333 97 c 0
 333 74 400 79 499 75 c 1
 501 0 l 1
 31 0 l 1
EndSplineSet
Validated: 1
EndChar

StartChar: z
Encoding: 122 122 42
Width: 902
VWidth: 0
Flags: W
HStem: -0 195<296 780.71> 630 159<181.409 595>
VStem: 75 72<466.805 586.261> 107 61<801.883 866> 815 68<240.528 353.476>
AnchorPoint: "top" 458 1000 basechar 0
LayerCount: 3
Fore
SplineSet
101 96 m 2xd8
 595 630 l 1
 284 630 l 2
 192 630 163 590 147 462 c 9
 75 468 l 17xe8
 94 595 102 725 107 868 c 9
 168 866 l 17
 169 830 178 789 232 789 c 2
 820 789 l 2
 833 789 832 781 832 776 c 0
 832 770 810 746 779 712 c 2
 296 195 l 1
 627 195 l 2
 806 195 790 247 815 359 c 9
 883 352 l 17
 875 328 836 129 818 0 c 1
 67 -0 l 2
 52 0 46 1 46 18 c 0
 46 39 79 72 101 96 c 2xd8
EndSplineSet
EndChar

StartChar: P
Encoding: 80 80 43
Width: 1377
VWidth: 0
Flags: W
HStem: 0 90<86 266.594 563.094 816> 526 93<559.052 923.875> 1266 99<79 268.454 560.821 844.722>
VStem: 269 290<98.5414 559 632.596 1264.15> 1030 272<757.429 1088.09>
LayerCount: 3
Fore
SplineSet
655 1266 m 2
 635 1266 l 2
 571 1266 559 1260 559 1184 c 2
 559 649 l 1
 559 649 602 619 742 619 c 0
 957 619 1030 726 1030 915 c 0
 1030 1126 869 1266 655 1266 c 2
1302 944 m 0
 1302 764 1192 526 802 526 c 0
 658 526 559 559 559 559 c 1
 559 179 l 2
 559 80 587 93 816 90 c 1
 818 0 l 1
 85 0 l 1
 86 90 l 1
 255 93 269 77 269 181 c 2
 269 1206 l 2
 269 1280 242 1273 79 1275 c 1
 79 1365 l 1
 808 1365 l 2
 1008 1365 1302 1328 1302 944 c 0
EndSplineSet
Position2: "'cpsp' Capital Spacing in Latin lookup 1 subtable" dx=10 dy=0 dh=21 dv=0
EndChar

StartChar: Q
Encoding: 81 81 44
Width: 1726
VWidth: 0
Flags: W
HStem: -530 222<1397.23 1626.78> 0 80<996 1063.21> 1311 105<627.059 995.807>
VStem: 83 304<471.466 978.68> 1321 303<394.057 893.279>
LayerCount: 3
Fore
SplineSet
879 80 m 0
 1188 80 1321 336 1321 614 c 0
 1321 946 1131 1311 825 1311 c 0
 502 1311 387 1054 387 757 c 0
 387 406 561 80 879 80 c 0
83 697 m 0
 83 1174 398 1416 825 1416 c 0
 1476 1416 1624 979 1624 653 c 0
 1624 18 996 0 996 0 c 1
 1099 -63 1143 -96 1172 -119 c 0
 1263 -191 1426 -308 1567 -308 c 0
 1646 -308 1720 -273 1762 -254 c 0
 1774 -248 1784 -246 1792 -246 c 0
 1801 -246 1823 -250 1823 -273 c 0
 1823 -282 1819 -295 1810 -311 c 0
 1728 -453 1586 -530 1443 -530 c 0
 1191 -530 1065 -311 762 -91 c 0
 595 30 637 -22 462 54 c 0
 319 116 83 271 83 697 c 0
EndSplineSet
Position2: "'cpsp' Capital Spacing in Latin lookup 1 subtable" dx=13 dy=0 dh=26 dv=0
EndChar

StartChar: R
Encoding: 82 82 45
Width: 1694
VWidth: 0
Flags: W
HStem: 0 90<72 225.207 523.855 764 1419.59 1605> 608 91<517.167 730> 1266 99<47 226.357 519.88 803.924>
VStem: 227 290<101.766 628 705.012 1264.74> 946 294<826.237 1135.13>
AnchorPoint: "cedilla" 764 -190 basechar 0
AnchorPoint: "top" 671 1500 basechar 0
LayerCount: 3
Fore
SplineSet
517 1184 m 2
 517 718 l 1
 517 718 545 699 649 699 c 0
 802 699 946 799 946 978 c 0
 946 1170 801 1266 617 1266 c 2
 590 1266 l 2
 540 1266 517 1263 517 1184 c 2
1240 987 m 0
 1240 756 1016 666 1016 666 c 1
 1418 136 l 2
 1452 91 1482 90 1605 90 c 1
 1608 0 l 1
 1137 0 l 1
 730 608 l 1
 558 608 520 627 517 628 c 1
 517 179 l 2
 517 80 578 92 764 90 c 1
 764 0 l 1
 72 0 l 1
 72 90 l 1
 218 93 227 77 227 181 c 2
 227 1206 l 2
 227 1280 194 1272 47 1275 c 1
 47 1365 l 1
 710 1365 l 2
 920 1365 1240 1354 1240 987 c 0
EndSplineSet
Position2: "'cpsp' Capital Spacing in Latin lookup 1 subtable" dx=12 dy=0 dh=25 dv=0
EndChar

StartChar: S
Encoding: 83 83 46
Width: 1054
VWidth: 0
Flags: W
HStem: -38 110<278.509 669.544> 1304 102<421.022 751.291>
VStem: 82 86<-113.167 -46.0933> 117 216<983.945 1181.86> 744 234<185.036 367.768> 846 75<1359.02 1438>
AnchorPoint: "cedilla" 515 -190 basechar 0
AnchorPoint: "top" 560 1500 basechar 0
LayerCount: 3
Fore
SplineSet
504 -38 m 0xd8
 355 -38 251 7 215 7 c 0
 171 7 165 -17 165 -45 c 0
 165 -68 168 -112 168 -112 c 1
 82 -119 l 1
 64 52 49 153 3 371 c 1
 93 388 l 1
 116 280 l 2
 133 199 164 163 238 132 c 0
 348 86 428 72 520 72 c 0
 658 72 744 159 744 254 c 0xe8
 744 443 451 544 269 705 c 0
 237 734 117 826 117 1010 c 0
 117 1091 146 1174 204 1244 c 0
 306 1367 447 1406 580 1406 c 0
 718 1406 803 1359 815 1359 c 0
 843 1359 846 1383 846 1430 c 2
 846 1438 l 1
 921 1444 l 1xd4
 933 1279 944 1144 954 1029 c 1
 879 1021 l 1
 863 1184 l 1
 863 1184 742 1304 574 1304 c 0
 447 1304 333 1229 333 1100 c 0
 333 818 978 779 978 341 c 0
 978 140 775 -38 504 -38 c 0xd8
EndSplineSet
Position2: "'cpsp' Capital Spacing in Latin lookup 1 subtable" dx=8 dy=0 dh=16 dv=0
EndChar

StartChar: T
Encoding: 84 84 47
Width: 1522
VWidth: 0
Flags: HMW
HStem: 0 90<455 667.247 962.843 1204> 1250 115<366.743 667.184 959.997 1260.77>
VStem: 108 85<1007.99 1203.82> 669 290<98.1412 1247.75> 1398 84<1000 1226.94>
AnchorPoint: "cedilla" 813 -190 basechar 0
AnchorPoint: "top" 813 1500 basechar 0
LayerCount: 3
Fore
SplineSet
108 1009 m 1
 116 1086 130 1229 141 1380 c 1
 398 1367 652 1365 813 1365 c 0
 996 1365 1299 1374 1483 1380 c 1
 1482 1306 1481 1234 1481 1160 c 0
 1481 1108 1482 1055 1482 1000 c 1
 1398 996 l 1
 1398 996 1393 1084 1391 1114 c 0
 1380 1248 1342 1250 1255 1250 c 2
 1026 1250 l 2
 971 1250 959 1237 959 1184 c 2
 959 174 l 2
 959 84 985 92 1204 90 c 1
 1205 0 l 1
 454 0 l 1
 455 90 l 1
 665 94 669 77 669 181 c 2
 669 1178 l 2
 669 1242 650 1250 586 1250 c 2
 388 1250 l 2
 252 1250 240 1238 224 1172 c 0
 214 1129 203 1068 193 1003 c 1
 108 1009 l 1
EndSplineSet
Position2: "'cpsp' Capital Spacing in Latin lookup 1 subtable" dx=11 dy=0 dh=23 dv=0
EndChar

StartChar: U
Encoding: 85 85 48
Width: 1567
VWidth: 0
Flags: W
HStem: -48 126<668.993 1107.72> 1275 90<43 196.412 490.283 660 1059 1257.93 1374.89 1521>
VStem: 197 290<259.368 1270.91> 1258 115<233.434 1271.8>
AnchorPoint: "top" 851 1500 basechar 0
LayerCount: 3
Fore
SplineSet
1373 493 m 2
 1373 427 1368 349 1359 298 c 0
 1305 4 1095 -48 812 -48 c 0
 644 -48 496 -19 386 53 c 0
 301 109 197 208 197 442 c 2
 197 1206 l 2
 197 1280 190 1272 43 1275 c 1
 43 1365 l 1
 660 1365 l 1
 660 1275 l 1
 512 1272 487 1288 487 1184 c 2
 487 503 l 2
 487 369 494 78 888 78 c 0
 1234 78 1258 280 1258 500 c 2
 1258 1227 l 2
 1258 1281 1237 1273 1059 1275 c 1
 1056 1365 l 1
 1522 1365 l 1
 1521 1275 l 1
 1376 1273 1373 1284 1373 1177 c 2
 1373 493 l 2
EndSplineSet
Position2: "'cpsp' Capital Spacing in Latin lookup 1 subtable" dx=12 dy=0 dh=24 dv=0
EndChar

StartChar: V
Encoding: 86 86 49
Width: 1554
VWidth: 0
Flags: W
HStem: -46 21G<711.741 797.921> 1275 90<44 193.335 522.018 677 1071 1232.97 1362.22 1508>
LayerCount: 3
Fore
SplineSet
44 1275 m 1
 44 1365 l 1
 680 1365 l 1
 677 1275 l 1
 614 1275 l 2
 546 1275 522 1274 522 1250 c 0
 522 1232 534 1202 555 1151 c 2
 866 386 l 1
 1220 1196 l 2
 1228 1215 1233 1229 1233 1240 c 0
 1233 1273 1196 1275 1146 1275 c 2
 1071 1275 l 1
 1068 1365 l 1
 1509 1365 l 1
 1508 1275 l 1
 1373 1273 1381 1281 1310 1122 c 2
 789 -46 l 1
 720 -46 l 1
 241 1114 l 2
 167 1293 197 1272 44 1275 c 1
EndSplineSet
Position2: "'cpsp' Capital Spacing in Latin lookup 1 subtable" dx=11 dy=0 dh=23 dv=0
EndChar

StartChar: W
Encoding: 87 87 50
Width: 2178
VWidth: 0
Flags: W
HStem: -46 21G<652.69 733.174 1402.92 1483.3> 1275 90<84 185.708 499.026 623 778 947.75 1252.02 1377 1761 1893.97 2009.4 2116>
AnchorPoint: "top" 1070 1500 basechar 0
LayerCount: 3
Fore
SplineSet
84 1275 m 1
 84 1365 l 1
 623 1365 l 1
 623 1275 l 1
 534 1274 499 1277 499 1243 c 0
 499 1225 509 1197 525 1154 c 2
 806 398 l 1
 1049 976 l 1
 935 1255 955 1275 863 1275 c 2
 778 1275 l 1
 778 1365 l 1
 1377 1365 l 1
 1377 1275 l 1
 1283 1274 1252 1275 1252 1250 c 0
 1252 1233 1267 1203 1285 1151 c 2
 1556 386 l 1
 1874 1182 l 2
 1886 1213 1894 1233 1894 1247 c 0
 1894 1279 1849 1273 1761 1275 c 1
 1758 1365 l 1
 2116 1365 l 1
 2118 1275 l 1
 2025 1273 2024 1278 1958 1118 c 2
 1475 -46 l 1
 1410 -46 l 1
 1092 852 l 1
 725 -46 l 1
 660 -46 l 1
 236 1114 l 2
 173 1287 158 1274 84 1275 c 1
EndSplineSet
Position2: "'cpsp' Capital Spacing in Latin lookup 1 subtable" dx=16 dy=0 dh=33 dv=0
EndChar

StartChar: X
Encoding: 88 88 51
Width: 1637
VWidth: 0
Flags: W
HStem: 0 90<74 262.043 412.047 571 893 1028.97 1365.83 1524> 1275 90<109 272.662 589.03 716 1024 1137.97 1275.06 1444>
LayerCount: 3
Fore
SplineSet
74 0 m 1
 74 90 l 1
 222 93 227 83 342 226 c 2
 680 645 l 1
 299 1194 l 2
 248 1267 242 1275 182 1275 c 2
 109 1275 l 1
 106 1365 l 1
 716 1365 l 1
 716 1275 l 1
 630 1273 589 1275 589 1252 c 0
 589 1239 596 1220 621 1185 c 2
 846 864 l 1
 1110 1201 l 2
 1129 1225 1138 1242 1138 1253 c 0
 1138 1278 1093 1274 1023 1275 c 1
 1024 1365 l 1
 1446 1365 l 1
 1444 1275 l 1
 1312 1275 1288 1258 1210 1158 c 2
 911 774 l 1
 1288 237 l 2
 1381 104 1404 90 1458 90 c 2
 1524 90 l 1
 1526 0 l 1
 893 0 l 1
 891 90 l 1
 989 90 1029 90 1029 114 c 0
 1029 127 1017 148 996 179 c 2
 744 554 l 1
 450 186 l 2
 425 154 412 133 412 119 c 0
 412 86 476 91 571 90 c 1
 571 0 l 1
 74 0 l 1
EndSplineSet
Position2: "'cpsp' Capital Spacing in Latin lookup 1 subtable" dx=12 dy=0 dh=25 dv=0
EndChar

StartChar: Y
Encoding: 89 89 52
Width: 1421
VWidth: 0
Flags: HW
HStem: 0 90<367 546.001 842.902 1054> 1275 90<40 159.075 500.027 624 921 1097.98 1214.76 1351>
VStem: 549 290<96.4586 628>
AnchorPoint: "top" 761 1500 basechar 0
LayerCount: 3
Fore
SplineSet
549 628 m 1
 212 1150 l 2
 132 1274 141 1275 40 1275 c 1
 37 1365 l 1
 624 1365 l 1
 624 1275 l 1
 537 1274 500 1277 500 1254 c 0
 500 1241 512 1218 535 1182 c 2
 796 760 l 1
 1082 1215 l 2
 1092 1231 1098 1243 1098 1252 c 0
 1098 1270 1076 1275 1015 1275 c 2
 921 1275 l 1
 918 1365 l 1
 1351 1365 l 1
 1351 1275 l 1
 1249 1273 1242 1279 1185 1188 c 2
 839 634 l 1
 839 179 l 2
 839 80 868 92 1054 90 c 1
 1056 0 l 1
 366 0 l 1
 367 90 l 1
 528 94 549 77 549 181 c 2
 549 628 l 1
EndSplineSet
Position2: "'cpsp' Capital Spacing in Latin lookup 1 subtable" dx=10 dy=0 dh=21 dv=0
EndChar

StartChar: Z
Encoding: 90 90 53
Width: 1439
VWidth: 0
Flags: HW
HStem: 0 270<386 1206.03> 1125 240<174.631 1010>
VStem: 62 82<922.427 1105.15> 1300 64<422.906 505.464>
AnchorPoint: "top" 721 1500 basechar 0
LayerCount: 3
Fore
SplineSet
921 270 m 2
 1227 270 1226 289 1300 514 c 1
 1364 503 l 1
 1351 417 1320 238 1284 0 c 1
 74 0 l 2
 51 0 48 5 48 40 c 0
 48 64 64 74 144 163 c 2
 1010 1125 l 1
 236 1125 l 2
 177 1125 176 1118 144 915 c 1
 62 924 l 1
 79 1040 102 1246 112 1365 c 1
 1271 1365 l 2
 1313 1365 1331 1361 1331 1349 c 0
 1331 1341 1323 1329 1308 1312 c 2
 386 270 l 1
 921 270 l 2
EndSplineSet
Position2: "'cpsp' Capital Spacing in Latin lookup 1 subtable" dx=11 dy=0 dh=22 dv=0
EndChar

StartChar: period
Encoding: 46 46 54
Width: 522
VWidth: 0
Flags: W
HStem: -30 315<168.746 302.612>
VStem: 81 308<56.084 197.097>
LayerCount: 3
Fore
SplineSet
81 130 m 0
 81 168 201 284 238 285 c 0
 269 285 389 161 389 135 c 0
 389 82 278 -30 236 -30 c 0
 211 -30 81 77 81 130 c 0
EndSplineSet
Validated: 1
EndChar

StartChar: hyphen
Encoding: 45 45 55
Width: 604
VWidth: 0
Flags: W
HStem: 456 280
VStem: 50 531
LayerCount: 3
Fore
SplineSet
50 501 m 2
 50 545 l 2
 50 590 51 588 117 608 c 2
 536 731 l 2
 546 734 554 736 560 736 c 0
 576 736 581 725 581 702 c 2
 581 650 l 2
 581 610 581 604 520 586 c 2
 123 469 l 2
 95 461 78 456 67 456 c 0
 50 456 50 469 50 501 c 2
EndSplineSet
Validated: 1
EndChar

StartChar: comma
Encoding: 44 44 56
Width: 497
VWidth: 0
Flags: W
HStem: -380 674
VStem: 221 207<-152.301 138.439>
LayerCount: 3
Fore
SplineSet
428 38 m 0
 428 -60 384 -186 304 -274 c 0
 267 -315 221 -344 170 -362 c 0
 143 -371 114 -380 83 -380 c 0
 52 -380 38 -367 38 -345 c 0
 38 -334 45 -322 65 -311 c 0
 118 -281 221 -257 221 -99 c 0
 221 88 75 88 75 132 c 0
 75 171 215 294 240 294 c 0
 257 294 428 236 428 38 c 0
EndSplineSet
Validated: 1
EndChar

StartChar: exclam
Encoding: 33 33 57
Width: 602
VWidth: 0
Flags: W
HStem: -30 315<268.746 402.612>
VStem: 181 308<56.084 197.097> 317 65<399.351 620.903>
LayerCount: 3
Fore
SplineSet
181 130 m 0xc0
 181 168 301 284 338 285 c 0
 369 285 489 161 489 135 c 0
 489 82 378 -30 336 -30 c 0
 311 -30 181 77 181 130 c 0xc0
246 1253 m 0
 246 1269 261 1278 302 1293 c 2
 450 1349 l 2
 466 1355 477 1358 485 1358 c 0
 498 1358 503 1350 503 1337 c 0
 503 1328 500 1315 498 1301 c 2
 382 525 l 2
 364 404 353 398 345 398 c 2
 340 398 l 2
 326 398 321 425 317 451 c 0xa0
 314 467 300 610 299 623 c 0
 276 891 246 1156 246 1253 c 0
EndSplineSet
Position2: "'cpsp' Capital Spacing in Latin lookup 1 subtable" dx=4 dy=0 dh=9 dv=0
EndChar

StartChar: question
Encoding: 63 63 58
Width: 794
VWidth: 0
Flags: W
HStem: -30 315<368.746 502.612> 1228 131<281.877 540.166>
VStem: 214 157<472.626 694.5> 281 308<56.084 197.097> 604 143<1030.58 1188.07>
LayerCount: 3
Fore
SplineSet
281 130 m 0xd8
 281 168 401 284 438 285 c 0
 469 285 589 161 589 135 c 0
 589 82 478 -30 436 -30 c 0
 411 -30 281 77 281 130 c 0xd8
371 512 m 0xe8
 371 451 410 417 410 385 c 0
 410 374 404 365 389 365 c 0
 338 365 214 470 214 636 c 0
 214 753 294 829 383 893 c 2
 475 959 l 2
 549 1011 604 1061 604 1140 c 0
 604 1174 577 1228 442 1228 c 0
 376 1228 289 1198 246 1176 c 0
 221 1164 212 1176 212 1191 c 0
 212 1195 213 1200 214 1204 c 0
 230 1252 276 1359 400 1359 c 0
 462 1359 571 1310 656 1238 c 0
 728 1177 747 1108 747 1046 c 0
 747 929 689 853 629 803 c 2
 554 740 l 2
 445 648 371 591 371 512 c 0xe8
EndSplineSet
Validated: 1
Position2: "'cpsp' Capital Spacing in Latin lookup 1 subtable" dx=6 dy=0 dh=12 dv=0
EndChar

StartChar: semicolon
Encoding: 59 59 59
Width: 522
VWidth: 0
Flags: W
HStem: 505 315<169.166 302.612>
VStem: 81 308<591.16 732.097> 221 207<-152.301 138.439>
LayerCount: 3
Fore
SplineSet
81 665 m 0xc0
 81 703 201 819 238 820 c 0
 269 820 389 696 389 670 c 0
 389 617.039038366 278.045922389 505 236 505 c 0
 210.6875 505 81 612.171875 81 665 c 0xc0
428 38 m 0xa0
 428 -60 384 -186 304 -274 c 0
 267 -315 221 -344 170 -362 c 0
 143 -371 114 -380 83 -380 c 0
 52 -380 38 -367 38 -345 c 0
 38 -334 45 -322 65 -311 c 0
 118 -281 221 -257 221 -99 c 0
 221 88 75 88 75 132 c 0
 75 171 215 294 240 294 c 0
 257 294 428 236 428 38 c 0xa0
EndSplineSet
Validated: 1
EndChar

StartChar: colon
Encoding: 58 58 60
Width: 522
VWidth: 0
Flags: W
HStem: -30 315<169.166 302.612> 505 315<169.166 302.612>
VStem: 81 308<56.1595 197.097 591.16 732.097>
LayerCount: 3
Fore
SplineSet
81 130 m 0
 81 168 201 284 238 285 c 0
 269 285 389 161 389 135 c 0
 389 82.0390625 278.045898438 -30 236 -30 c 0
 210.6875 -30 81 77.171875 81 130 c 0
81 665 m 0
 81 703 201 819 238 820 c 0
 269 820 389 696 389 670 c 0
 389 617.039038366 278.045922389 505 236 505 c 0
 210.6875 505 81 612.171875 81 665 c 0
EndSplineSet
Validated: 1
EndChar

StartChar: emdash
Encoding: 8212 8212 61
Width: 2048
VWidth: 1000
Flags: W
HStem: 541 88<0 2048>
LayerCount: 3
Fore
SplineSet
0 541 m 1
 0 629 l 1
 2048 629 l 1
 2048 541 l 1
 0 541 l 1
EndSplineSet
Validated: 1
EndChar

StartChar: endash
Encoding: 8211 8211 62
Width: 1024
VWidth: 1000
Flags: W
HStem: 541 88<0 1024>
LayerCount: 3
Fore
SplineSet
0 541 m 1
 0 629 l 1
 1024 629 l 1
 1024 541 l 1
 0 541 l 1
EndSplineSet
Validated: 1
EndChar

StartChar: afii00208
Encoding: 8213 8213 63
Width: 2048
VWidth: 1000
Flags: W
HStem: 541 88<0 2048>
LayerCount: 3
Fore
SplineSet
0 541 m 1
 0 629 l 1
 2048 629 l 1
 2048 541 l 1
 0 541 l 1
EndSplineSet
Validated: 1
EndChar

StartChar: quoteleft
Encoding: 8216 8216 64
Width: 497
VWidth: 0
Flags: W
HStem: 981 513
VStem: 99 192<1100 1340.04>
LayerCount: 3
Fore
SplineSet
291 1298 m 0
 291 1179 420 1176 420 1137 c 0
 420 1105 302 981 277 981 c 0
 260 981 99 1020 99 1180 c 0
 99 1442 368 1494 390 1494 c 0
 414 1494 420 1478 420 1470 c 0
 420 1413 291 1414 291 1298 c 0
EndSplineSet
Validated: 1
EndChar

StartChar: quotesinglbase
Encoding: 8218 8218 65
Width: 497
VWidth: 0
Flags: W
HStem: -219 513
VStem: 226 192<-65.0384 175>
LayerCount: 3
Fore
SplineSet
226 -23 m 0
 226 96 97 99 97 138 c 0
 97 170 215 294 240 294 c 0
 257 294 418 255 418 95 c 0
 418 -167 149 -219 127 -219 c 0
 103 -219 97 -203 97 -195 c 0
 97 -138 226 -139 226 -23 c 0
EndSplineSet
Validated: 1
EndChar

StartChar: oe
Encoding: 339 339 69
Width: 1567
VWidth: 0
Flags: W
HStem: -31 96<401.073 597.319> -21 153<1063.52 1314.95> 744 91<376.948 578.569 990.463 1154.29>
VStem: 51 251<187.139 602.907> 665 276<272.575 458.945>
LayerCount: 3
Back
SplineSet
312 418 m 4
 312 235 382 65 503 65 c 4
 647 65 675 229 675 355 c 4
 675 590 628 744 483 744 c 4
 415 744 312 697 312 418 c 4
61 395 m 4
 61 614 192 835 494 835 c 4
 740 835 816 624 816 624 c 5
 816 624 916 822 1094 822 c 4
 1316 822 1436 625 1436 559 c 4
 1436 536 1414 528 1406 527 c 6
 931 459 l 5
 931 459 932 132 1191 132 c 4
 1355 132 1432 206 1467 206 c 4
 1477 206 1484 199 1484 181 c 4
 1484 161.341867375 1430.02929454 102.920244641 1347.00000498 53.9311312759 c 4
 1277.97749586 13.2063275175 1188.87361893 -21 1094 -21 c 4
 873 -21 811 175 811 175 c 5
 811 175 756 -31 487 -31 c 4
 173 -31 61 193 61 395 c 4
932 528 m 5
 1198 566 l 5
 1198 566 1173 747 1058 747 c 4
 993 747 937 668 932 528 c 5
EndSplineSet
Fore
SplineSet
302 418 m 0xb8
 302 235 372 65 493 65 c 0
 637 65 665 229 665 355 c 0
 665 590 618 744 473 744 c 0
 405 744 302 697 302 418 c 0xb8
1494 186 m 0
 1494 135 1325 -21 1129 -21 c 0x78
 872 -21 806 175 806 175 c 1
 806 175 746 -31 477 -31 c 0xb8
 163 -31 51 193 51 395 c 0
 51 614 182 835 484 835 c 0
 754 835 806 619 806 619 c 1
 806 619 876 822 1104 822 c 0
 1326 822 1446 625 1446 559 c 0
 1446 536 1424 528 1416 527 c 2
 941 459 l 1
 941 459 942 132 1201 132 c 0x78
 1365 132 1442 206 1477 206 c 0
 1486 206 1494 199 1494 186 c 0
942 528 m 1
 1208 566 l 1
 1208 566 1183 747 1068 747 c 0
 1003 747 947 668 942 528 c 1
EndSplineSet
Layer: 2
SplineSet
40 400 m 0
 40 612 164 822 444 822 c 0
 623 822 734 747 781 646 c 1
 839 747 955 818 1073 818 c 0
 1297 818 1412 626 1412 555 c 0
 1412 532 1388 525 1380 524 c 2
 865 462 l 1
 864 455 864 445 864 435 c 0
 864 229 994 112 1166 112 c 0
 1327 112 1406 209 1440 209 c 0
 1450 209 1457 202 1457 184 c 0
 1457 146 1306 -26 1084 -26 c 0
 935 -26 837 45 788 135 c 1
 726 39 601 -30 449 -30 c 0
 172 -30 40 193 40 400 c 0
203 449 m 0
 203 260 307 50 475 50 c 0
 643 50 703 213 703 382 c 0
 703 629 573 751 426 751 c 0
 307 751 203 649 203 449 c 0
870 535 m 1
 1222 580 l 1
 1222 580 1166 747 1053 747 c 0
 972 747 892 671 870 535 c 1
EndSplineSet
EndChar

StartChar: ae
Encoding: 230 230 70
Width: 1274
VWidth: 0
Flags: W
HStem: -23 133<153.5 377.949> -21 153<808.739 1038.95> 398 71<345.984 470> 718 112<222.574 432.813> 747 75<743.217 887.773>
VStem: 27 201<120.972 270.097> 67 120<537.583 651.988> 473 211<272.575 398 528 657.507>
LayerCount: 3
Back
SplineSet
233 208 m 0
 233 170 249 110 314 110 c 0
 450 110 517 199 517 199 c 1
 506 235 483 331 483 398 c 1
 381 398 233 327 233 208 c 0
234 130.025192261 m 0
 242.27986145 117.971885681 260.971679688 87 306 87 c 0
 378 87 468 131.496170044 468 221 c 2
 468 377 l 1
 468 393 l 1
 299.555511475 393 222.345932007 258.56854248 222.345932007 175.939208984 c 0
 222.345932007 157.27684021 226.284484863 141.256942749 234 130.025192261 c 0
645 528 m 1
 911 566 l 1
 911 566 886 747 771 747 c 0
 706 747 650 668 645 528 c 1
530.526245117 148.1197052 m 1
 530.526245117 148.1197052 394.282226562 -23 228 -23 c 0
 89 -23 32 51 32 139 c 0
 32 388 420 467 468 469 c 1
 468 578 l 2
 468 651 437 718 338 718 c 0
 209 718 193 652 193 652 c 1
 193 652 199 636 199 613 c 0
 199 577 159 527 127 527 c 0
 118 527 79 531 79 587 c 0
 79 617.302325738 108.842505717 741.149429014 272 799.419760572 c 0
 324.215405728 818.068055078 390.084885062 830 473 830 c 0
 544 830 606.119140625 760.049804688 606.119140625 760.049804688 c 1
 606.119140625 760.049804688 666 822 807 822 c 0
 1029 822 1149 625 1149 559 c 0
 1149 536 1127 528 1119 527 c 2
 644 459 l 1
 644 459 645 132 904 132 c 0
 1068 132 1145 206 1180 206 c 0
 1190 206 1197 199 1197 181 c 0
 1197 145 1036 -21 827 -21 c 0
 618 -21 530.526245117 148.1197052 530.526245117 148.1197052 c 1
EndSplineSet
Fore
SplineSet
228 208 m 0xa5
 228 165 246 110 316 110 c 0
 439 110 508 214 508 214 c 1
 498 252 473 331 473 398 c 1
 371 398 228 327 228 208 c 0xa5
685 528 m 1
 951 566 l 1
 951 566 926 747 811 747 c 0x29
 746 747 690 668 685 528 c 1
396 830 m 0xb3
 592 830 603 660 603 660 c 1
 603 660 667 822 847 822 c 0
 1069 822 1189 625 1189 559 c 0
 1189 536 1167 528 1159 527 c 2
 684 459 l 1
 684 459 685 132 944 132 c 0
 1108 132 1185 206 1220 206 c 0
 1230 206 1237 199 1237 181 c 0
 1237 145 1056 -21 847 -21 c 0x6b
 638 -21 539 148 539 148 c 1
 539 148 389 -23 223 -23 c 0
 84 -23 27 51 27 139 c 0xa5
 27 388 422 467 470 469 c 1
 468 524 l 2
 466 592 473 718 326 718 c 0
 197 718 181 652 181 652 c 1
 181 652 187 636 187 613 c 0
 187 577 147 527 115 527 c 0
 106 527 67 531 67 587 c 0
 67 679 206 830 396 830 c 0xb3
EndSplineSet
EndChar

StartChar: f_i
Encoding: 65537 -1 71
Width: 1207
VWidth: 0
Flags: W
HStem: 0 75<50 171.064 410.397 599 655 808.268 1045.83 1183> 702 100<50 172 407 809> 808 20G<1013 1044> 1390 86<529.344 761.746>
VStem: 172 235<80.0494 702 802 1241.63> 809 235<78.0043 702>
LayerCount: 3
Fore
SplineSet
857 1190 m 0
 777 1190 834 1390 656 1390 c 0
 420 1390 406 1085 406 993 c 2
 406 802 l 1
 808 802 l 2
 895 802 982 812 1044 828 c 1
 1044 131 l 2
 1044 67 1082 78 1183 75 c 1
 1183 0 l 1
 655 0 l 1
 655 75 l 1
 770 76 809 70 809 124 c 2
 809 661 l 2
 809 687 800 702 783 702 c 2
 407 702 l 1
 407 138 l 2
 407 67 450 77 601 75 c 1
 599 0 l 1
 47 0 l 1
 50 75 l 1
 155 76 172 70 172 132 c 2
 172 702 l 1
 50 702 l 1
 50 802 l 1
 173 802 l 1
 173 1029 l 2
 173 1171 217 1268 280 1334 c 0
 381 1441 564 1476 675 1476 c 0
 800 1476 971 1399 971 1343 c 0
 971 1310 905 1190 857 1190 c 0
EndSplineSet
Ligature2: "'liga' Standard Ligatures in Latin lookup 9 subtable" f i
LCarets2: 1 0 
EndChar

StartChar: f_l
Encoding: 65538 -1 72
Width: 1217
VWidth: 0
Flags: W
HStem: 0 75<61 183.755 420.626 584 669 819.445 1058.46 1196> 702 100<61 184 419 629> 1408 76<474.688 621.817>
VStem: 184 235<77.5232 702 802 1271.73> 822 235<79.2366 1329>
LayerCount: 3
Fore
SplineSet
185 1024 m 2
 185 1414 414 1484 557 1484 c 0
 621 1484 762 1460 824 1422 c 1
 914 1444 987 1467 1057 1489 c 1
 1057 130 l 2
 1057 70 1086 78 1196 75 c 1
 1196 0 l 1
 669 0 l 1
 669 75 l 1
 767 76 822 69 822 131 c 2
 822 1329 l 1
 786 1285 728 1233 694 1233 c 0
 618 1233 680 1408 546 1408 c 0
 426 1408 418 1208 418 1116 c 2
 418 802 l 1
 632 802 l 1
 629 702 l 1
 419 702 l 1
 419 138 l 2
 419 67 435 77 586 75 c 1
 584 0 l 1
 61 0 l 1
 61 75 l 1
 178 79 184 71 184 126 c 2
 184 702 l 1
 61 702 l 1
 61 802 l 1
 185 802 l 1
 185 1024 l 2
EndSplineSet
Ligature2: "'liga' Standard Ligatures in Latin lookup 9 subtable" f l
LCarets2: 1 0 
EndChar

StartChar: f_f
Encoding: 65539 -1 73
Width: 1265
VWidth: 0
Flags: W
HStem: 0 75<64 202.982 441.282 616 684 824.982 1064.39 1205> 702 100<62 204 439 826 1061 1208> 1344 78<516.289 685.938> 1391 91<1094.2 1216.79>
VStem: 204 235<78.5222 702 802 1220.34> 826 235<79.2287 702 802 1187.79>
LayerCount: 3
Fore
SplineSet
888 1314 m 1xec
 932 1405 1067 1482 1197 1482 c 0
 1298 1482 1408 1427 1408 1365 c 0
 1408 1332 1330 1224 1292 1224 c 0
 1242 1224 1239 1391 1160 1391 c 0xdc
 1104 1391 1060 1319 1060 1196 c 2
 1060 802 l 1
 1208 802 l 1
 1208 702 l 1
 1061 702 l 1
 1061 138 l 2
 1061 67 1107 78 1205 75 c 1
 1206 0 l 1
 684 0 l 1
 683 75 l 1
 808 78 826 72 826 132 c 2
 826 702 l 1
 439 702 l 1
 439 138 l 2
 439 67 465 77 616 75 c 1
 616 0 l 1
 64 0 l 1
 61 75 l 1
 186 78 204 70 204 132 c 2
 204 702 l 1
 62 702 l 1
 62 802 l 1
 205 802 l 1
 205 1024 l 2
 205 1342 458 1422 616 1422 c 0
 702 1422 853 1372 888 1314 c 1xec
438 802 m 1
 827 802 l 1
 827 1024 l 2
 827 1088 833 1143 843 1190 c 1
 824 1168 803 1152 784 1152 c 0
 708 1152 748 1344 600 1344 c 0xec
 444 1344 438 1084 438 992 c 2
 438 802 l 1
EndSplineSet
Layer: 2
SplineSet
501 1345 m 4
 337 1345 327 1139 327 954 c 6
 327 802 l 5
 665 802 l 5
 665 1023 l 6
 665 1136 670 1320 865 1440 c 4
 914 1470 976 1483 1034 1483 c 4
 1119 1483 1193 1455 1193 1408 c 4
 1193 1375 1128 1276 1087 1276 c 4
 1052 1276 1036 1398 961 1398 c 4
 816 1398 807 1131 807 1074 c 6
 807 802 l 5
 1038 802 l 5
 1014 704 l 5
 808 704 l 5
 808 128 l 6
 808 57 826 69 963 65 c 5
 963 0 l 5
 538 0 l 5
 537 65 l 5
 639 69 664 54 664 120 c 6
 664 704 l 5
 328 704 l 5
 328 128 l 6
 328 57 330 69 467 65 c 5
 468 0 l 5
 49 0 l 5
 49 65 l 5
 151 69 184 54 184 120 c 6
 184 704 l 5
 35 704 l 5
 59 802 l 5
 185 802 l 5
 185 965 l 6
 185 1161 209 1319 412 1396 c 4
 481 1423 516 1430 574 1430 c 4
 659 1430 733 1402 733 1355 c 4
 733 1322 668 1223 627 1223 c 4
 592 1223 576 1345 501 1345 c 4
EndSplineSet
Ligature2: "'liga' Standard Ligatures in Latin lookup 9 subtable" f f
LCarets2: 1 0 
EndChar

StartChar: f_f_i
Encoding: 65540 -1 74
Width: 1655
VWidth: 0
Flags: W
HStem: 0 75<30 144.279 381.681 529 577 700.889 940.555 1073 1125 1258.62 1495.83 1633> 702 100<28 145 380 702 937 1259> 808 20G<1463 1494> 1339 77<443.193 617.257> 1392 86<1029.52 1254.63>
VStem: 145 235<77.7815 702 802 1229.19> 702 235<78.7581 702 802 1145.32> 1259 235<78.0043 702>
CounterMasks: 1 07
LayerCount: 3
Fore
SplineSet
703 802 m 1xf7
 703 981 l 2
 703 1024 713 1112 720 1147 c 1
 702 1150 666 1188 648 1242 c 0
 632 1291 604 1339 538 1339 c 0
 392 1339 379 1162 379 1080 c 2
 379 802 l 1
 703 802 l 1xf7
537 1416 m 0
 625 1416 744 1375 803 1326 c 1
 898 1435 1060 1478 1172 1478 c 0
 1297 1478 1432 1411 1432 1351 c 0
 1432 1311 1400 1183 1352 1183 c 0
 1272 1183 1331 1392 1153 1392 c 0xef
 950 1392 936 1164 936 1042 c 2
 936 802 l 1
 1258 802 l 2
 1345 802 1432 812 1494 828 c 1
 1494 131 l 2
 1494 67 1532 78 1633 75 c 1
 1633 0 l 1
 1125 0 l 1
 1125 75 l 1
 1240 76 1259 70 1259 124 c 2
 1259 661 l 2
 1259 687 1250 702 1233 702 c 2
 937 702 l 1
 937 138 l 2
 937 69 986 76 1075 75 c 1
 1073 0 l 1
 577 0 l 1
 574 75 l 1
 681 78 702 68 702 132 c 2
 702 702 l 1
 380 702 l 1
 380 138 l 2
 380 67 398 78 529 75 c 1
 530 0 l 1
 30 0 l 1
 28 75 l 1
 133 76 145 70 145 132 c 2
 145 702 l 1
 25 702 l 1
 28 802 l 1
 146 802 l 1
 146 1029 l 2
 146 1234 244 1331 350 1377 c 0
 402 1400 467 1416 537 1416 c 0
EndSplineSet
Layer: 2
SplineSet
328 704 m 5
 328 128 l 6
 328 57 330 69 467 65 c 5
 468 0 l 5
 49 0 l 5
 49 65 l 5
 151 69 184 54 184 120 c 6
 184 704 l 5
 35 704 l 5
 59 802 l 5
 185 802 l 5
 185 965 l 6
 185 1161 209 1319 412 1396 c 4
 481 1423 516 1430 574 1430 c 4
 659 1430 733 1402 733 1355 c 4
 733 1322 668 1223 627 1223 c 4
 592 1223 576 1345 501 1345 c 4
 337 1345 327 1139 327 954 c 6
 327 802 l 5
 665 802 l 5
 665 1066 l 6
 665 1281 823 1484 1059 1484 c 4
 1160 1484 1254 1452 1254 1403 c 4
 1254 1362 1191 1290 1143 1290 c 4
 1117 1290 1062 1406 969 1406 c 4
 845 1406 807 1212 807 1094 c 6
 807 802 l 5
 1035 802 l 6
 1096 802 1186 803 1294 832 c 5
 1294 120 l 6
 1294 54 1308 68 1418 65 c 5
 1418 0 l 5
 1020 0 l 5
 1020 65 l 5
 1113 70 1150 58 1150 113 c 6
 1150 630 l 6
 1150 704 1149 704 1017 704 c 6
 808 704 l 5
 808 123 l 6
 808 56 819 69 956 65 c 5
 956 0 l 5
 530 0 l 5
 530 65 l 5
 632 69 664 54 664 120 c 6
 664 704 l 5
 328 704 l 5
EndSplineSet
Ligature2: "'liga' Standard Ligatures in Latin lookup 9 subtable" f f i
LCarets2: 2 0 0 
EndChar

StartChar: f_f_l
Encoding: 65541 -1 75
Width: 1655
VWidth: 0
Flags: W
HStem: 0 75<30 144.279 381.681 529 577 700.889 940.555 1073 1121 1257.09 1495.01 1633> 702 100<28 145 380 702 937 1137> 1339 77<443.193 616.293> 1390 86<988.137 1131.11>
VStem: 145 235<77.7815 702 802 1229.19> 702 235<78.7581 702 802 1145.31> 1259 235<79.5728 1221>
CounterMasks: 1 0e
LayerCount: 3
Fore
SplineSet
1259 1221 m 1xde
 1243 1217 1228 1212 1214 1212 c 0
 1186 1212 1172 1226 1161 1264 c 0
 1146 1317 1132 1390 1070 1390 c 0xde
 954 1390 936 1234 936 1111 c 2
 936 802 l 1
 1137 802 l 1
 1137 702 l 1
 937 702 l 1
 937 138 l 2
 937 69 986 76 1075 75 c 1
 1073 0 l 1
 577 0 l 1
 574 75 l 1
 681 78 702 68 702 132 c 2
 702 702 l 1
 380 702 l 1
 380 138 l 2
 380 67 398 78 529 75 c 1
 530 0 l 1
 30 0 l 1
 28 75 l 1
 133 76 145 70 145 132 c 2
 145 702 l 1
 25 702 l 1
 28 802 l 1
 146 802 l 1
 146 1029 l 2
 146 1234 244 1331 350 1377 c 0
 402 1400 467 1416 537 1416 c 0xee
 625 1416 734 1387 793 1338 c 1
 793 1338 890 1476 1065 1476 c 0
 1120 1476 1193 1454 1264 1423 c 1
 1352 1445 1424 1467 1494 1489 c 1
 1494 130 l 2
 1494 70 1512 82 1633 75 c 1
 1633 0 l 1
 1121 0 l 1
 1121 75 l 1
 1219 76 1259 69 1259 131 c 2
 1259 1221 l 1xde
703 802 m 1
 703 986 l 2
 703 1014 708 1112 715 1147 c 1
 697 1150 666 1188 648 1242 c 0
 632 1291 604 1339 538 1339 c 0xee
 392 1339 379 1162 379 1080 c 2
 379 802 l 1
 703 802 l 1
EndSplineSet
Layer: 2
SplineSet
665 802 m 5
 665 1023 l 6
 665 1136 670 1320 865 1440 c 4
 914 1470 976 1483 1034 1483 c 4
 1077 1483 1117 1476 1146 1463 c 5
 1195 1470 1243 1477 1292 1486 c 5
 1292 120 l 6
 1292 60 1308 67 1428 65 c 5
 1429 0 l 5
 1012 0 l 5
 1015 65 l 5
 1113 66 1148 59 1148 121 c 6
 1148 1320 l 5
 1120 1296 1110 1276 1087 1276 c 4
 1052 1276 1036 1398 961 1398 c 4
 816 1398 807 1131 807 1074 c 6
 807 802 l 5
 1038 802 l 5
 1014 704 l 5
 808 704 l 5
 808 128 l 6
 808 57 816 69 953 65 c 5
 956 0 l 5
 534 0 l 5
 535 65 l 5
 637 69 664 54 664 120 c 6
 664 704 l 5
 328 704 l 5
 328 128 l 6
 328 57 330 69 467 65 c 5
 468 0 l 5
 49 0 l 5
 49 65 l 5
 151 69 184 54 184 120 c 6
 184 704 l 5
 35 704 l 5
 59 802 l 5
 185 802 l 5
 185 965 l 6
 185 1161 209 1319 412 1396 c 4
 481 1423 516 1430 574 1430 c 4
 659 1430 733 1402 733 1355 c 4
 733 1322 668 1223 627 1223 c 4
 592 1223 576 1345 501 1345 c 4
 337 1345 327 1139 327 954 c 6
 327 802 l 5
 665 802 l 5
EndSplineSet
Ligature2: "'liga' Standard Ligatures in Latin lookup 9 subtable" f f l
LCarets2: 2 0 0 
EndChar

StartChar: f_j
Encoding: 65542 -1 76
Width: 1207
VWidth: 0
Flags: W
HStem: -530 122<656.776 773.599> 0 75<50 171.105 410.397 599> 702 100<50 172 407 808.96> 808 20G<1013 1044> 1390 86<529.344 761.746>
VStem: 172 235<80.0288 702 802 1241.63> 809 235<-290.797 702>
LayerCount: 3
Fore
SplineSet
555 -247 m 0
 627 -247 639 -408 721 -408 c 0
 790 -408 809 -269 809 -64 c 2
 809 653 l 2
 809 681 806 702 782 702 c 2
 407 702 l 1
 407 138 l 2
 407 67 450 77 601 75 c 1
 599 0 l 1
 47 0 l 1
 50 75 l 1
 156 79 172 69 172 132 c 2
 172 702 l 1
 50 702 l 1
 50 802 l 1
 173 802 l 1
 173 1029 l 2
 173 1171 217 1268 280 1334 c 0
 381 1441 564 1476 675 1476 c 0
 800 1476 971 1399 971 1343 c 0
 971 1310 905 1190 857 1190 c 0
 777 1190 834 1390 656 1390 c 0
 420 1390 406 1085 406 993 c 2
 406 802 l 1
 808 802 l 2
 895 802 982 812 1044 828 c 1
 1044 -99 l 2
 1044 -394 788 -530 676 -530 c 0
 604 -530 441 -507 441 -413 c 0
 441 -358 488 -293 516 -264 c 0
 528 -251 540 -247 555 -247 c 0
EndSplineSet
Ligature2: "'liga' Standard Ligatures in Latin lookup 9 subtable" f j
LCarets2: 1 0 
EndChar

StartChar: f_f_j
Encoding: 65543 -1 77
Width: 1655
VWidth: 0
Flags: W
HStem: -530 122<1106.78 1223.6> 0 75<30 144.279 381.681 529 577 700.889 940.555 1073> 702 100<28 145 380 702 937 1259> 808 20G<1463 1494> 1339 77<443.193 617.257> 1392 86<1029.52 1254.63>
VStem: 145 235<77.7815 702 802 1229.19> 702 235<78.7581 702 802 1145.32> 1259 235<-290.797 702>
CounterMasks: 1 0380
LayerCount: 3
Back
SplineSet
703 802 m 5xf7
 703 981 l 6
 703 1024 713 1112 720 1147 c 5
 702 1150 666 1188 648 1242 c 4
 632 1291 604 1339 538 1339 c 4
 392 1339 379 1162 379 1080 c 6
 379 802 l 5
 703 802 l 5xf7
537 1416 m 4
 625 1416 744 1375 803 1326 c 5
 898 1435 1060 1478 1172 1478 c 4
 1297 1478 1432 1411 1432 1351 c 4
 1432 1311 1400 1183 1352 1183 c 4
 1272 1183 1331 1392 1153 1392 c 4xef
 950 1392 936 1164 936 1042 c 6
 936 802 l 5
 1258 802 l 6
 1345 802 1432 812 1494 828 c 5
 1494 131 l 6
 1494 67 1532 78 1633 75 c 5
 1633 0 l 5
 1125 0 l 5
 1125 75 l 5
 1240 76 1259 70 1259 124 c 6
 1259 661 l 6
 1259 687 1250 702 1233 702 c 6
 937 702 l 5
 937 138 l 6
 937 69 986 76 1075 75 c 5
 1073 0 l 5
 577 0 l 5
 574 75 l 5
 681 78 702 68 702 132 c 6
 702 702 l 5
 380 702 l 5
 380 138 l 6
 380 67 398 78 529 75 c 5
 530 0 l 5
 30 0 l 5
 28 75 l 5
 133 76 145 70 145 132 c 6
 145 702 l 5
 25 702 l 5
 28 802 l 5
 146 802 l 5
 146 1029 l 6
 146 1234 244 1331 350 1377 c 4
 402 1400 467 1416 537 1416 c 4
EndSplineSet
Fore
SplineSet
1259 661 m 2xf780
 1259 687 1250 702 1233 702 c 2
 937 702 l 1
 937 138 l 2
 937 69 986 76 1075 75 c 1
 1073 0 l 1
 577 0 l 1
 574 75 l 1
 681 78 702 68 702 132 c 2
 702 702 l 1
 380 702 l 1
 380 138 l 2
 380 67 398 78 529 75 c 1
 530 0 l 1
 30 0 l 1
 28 75 l 1
 133 76 145 70 145 132 c 2
 145 702 l 1
 25 702 l 1
 28 802 l 1
 146 802 l 1
 146 1029 l 2
 146 1234 244 1331 350 1377 c 0
 402 1400 467 1416 537 1416 c 0xfb80
 625 1416 744 1375 803 1326 c 1
 898 1435 1060 1478 1172 1478 c 0
 1297 1478 1432 1411 1432 1351 c 0
 1432 1311 1400 1183 1352 1183 c 0
 1272 1183 1331 1392 1153 1392 c 0
 950 1392 936 1164 936 1042 c 2
 936 802 l 1
 1258 802 l 2
 1345 802 1432 812 1494 828 c 1
 1494 -99 l 2
 1494 -394 1238 -530 1126 -530 c 0
 1054 -530 891 -507 891 -413 c 0
 891 -358 938 -293 966 -264 c 0
 978 -251 990 -247 1005 -247 c 0
 1077 -247 1089 -408 1171 -408 c 0
 1240 -408 1259 -269 1259 -64 c 2
 1259 661 l 2xf780
703 802 m 1
 703 981 l 2
 703 1024 713 1112 720 1147 c 1
 702 1150 666 1188 648 1242 c 0
 632 1291 604 1339 538 1339 c 0
 392 1339 379 1162 379 1080 c 2
 379 802 l 1
 703 802 l 1
EndSplineSet
Ligature2: "'liga' Standard Ligatures in Latin lookup 9 subtable" f f j
LCarets2: 2 0 0 
EndChar

StartChar: f_b
Encoding: 65544 -1 78
Width: 1745
VWidth: 0
Flags: W
HStem: -29 90<1077.94 1360.64> 0 75<61 183.851 420.626 584> 686 135<1167.87 1351.49> 702 100<61 184 419 629> 1408 76<474.688 621.817>
VStem: 184 235<77.5074 702 802 1271.73> 822 235<86.1283 665.153 698 1329> 1467 225<209.528 557.471>
LayerCount: 3
Back
SplineSet
185 1024 m 6
 185 1414 414 1484 557 1484 c 4
 621 1484 762 1460 824 1422 c 5
 914 1444 987 1467 1057 1489 c 5
 1057 130 l 6
 1057 70 1086 78 1196 75 c 5
 1196 0 l 5
 669 0 l 5
 669 75 l 5
 767 76 822 69 822 131 c 6
 822 1329 l 5
 786 1285 728 1233 694 1233 c 4
 618 1233 680 1408 546 1408 c 4
 426 1408 418 1208 418 1116 c 6
 418 802 l 5
 632 802 l 5
 629 702 l 5
 419 702 l 5
 419 138 l 6
 419 67 435 77 586 75 c 5
 584 0 l 5
 61 0 l 5
 61 75 l 5
 182 78 184 67 184 126 c 4
 184 318 184 510 184 702 c 5
 61 702 l 5
 61 802 l 5
 185 802 l 5
 185 1024 l 6
EndSplineSet
Fore
SplineSet
822 1329 m 1xaf
 786 1285 728 1233 694 1233 c 0
 618 1233 680 1408 546 1408 c 0
 426 1408 418 1208 418 1116 c 2
 418 802 l 1
 632 802 l 1
 629 702 l 1
 419 702 l 1
 419 138 l 2
 419 67 435 77 586 75 c 1
 584 0 l 1
 61 0 l 1
 61 75 l 1
 182 77 184 72 184 126 c 2
 184 702 l 1
 61 702 l 1
 61 802 l 1
 185 802 l 1x5f
 185 1024 l 2
 185 1414 414 1484 557 1484 c 0
 621 1484 762 1460 824 1422 c 1
 914 1444 987 1467 1057 1489 c 1
 1057 698 l 1
 1086 728 1193 821 1340 821 c 0
 1585 821 1692 610 1692 441 c 0
 1692 210 1587 -29 1218 -29 c 0
 1071 -29 969 26 936 26 c 0
 850 26 854 -124 816 -124 c 0
 808 -124 758 -124 758 -91 c 0
 758 -56 822 100 822 314 c 2
 822 1329 l 1xaf
1057 168 m 2
 1057 75 1145 61 1227 61 c 0
 1319 61 1467 115 1467 358 c 0
 1467 658 1268 686 1224 686 c 0xaf
 1101 686 1057 640 1057 640 c 1
 1057 168 l 2
EndSplineSet
Ligature2: "'liga' Standard Ligatures in Latin lookup 9 subtable" f b
LCarets2: 1 0 
EndChar

StartChar: f_f_b
Encoding: 65545 -1 79
Width: 2183
VWidth: 0
Flags: W
HStem: -29 90<1514.94 1797.64> 0 75<30 144.279 381.681 529 577 700.889 940.555 1073> 686 135<1604.87 1788.49> 702 100<28 145 380 702 937 1137> 1339 77<443.193 616.293> 1390 86<988.137 1131.11>
VStem: 145 235<77.7815 702 802 1229.19> 702 235<78.7581 702 802 1145.31> 1259 235<86.1283 665.153 698 1221> 1904 225<209.528 557.471>
LayerCount: 3
Fore
SplineSet
1259 1221 m 1xa7c0
 1243 1217 1228 1212 1214 1212 c 0
 1186 1212 1172 1226 1161 1264 c 0
 1146 1317 1132 1390 1070 1390 c 0xa7c0
 954 1390 936 1234 936 1111 c 2
 936 802 l 1
 1137 802 l 1
 1137 702 l 1
 937 702 l 1
 937 138 l 2
 937 69 986 76 1075 75 c 1
 1073 0 l 1
 577 0 l 1
 574 75 l 1
 681 78 702 68 702 132 c 2
 702 702 l 1
 380 702 l 1
 380 138 l 2
 380 67 398 78 529 75 c 1
 530 0 l 1
 30 0 l 1
 28 75 l 1
 133 76 145 70 145 132 c 2
 145 702 l 1
 25 702 l 1
 28 802 l 1
 146 802 l 1
 146 1029 l 2
 146 1234 244 1331 350 1377 c 0
 402 1400 467 1416 537 1416 c 0x5bc0
 625 1416 734 1387 793 1338 c 1
 793 1338 890 1476 1065 1476 c 0
 1120 1476 1193 1454 1264 1423 c 1
 1352 1445 1424 1467 1494 1489 c 1
 1494 698 l 1
 1523 728 1630 821 1777 821 c 0
 2022 821 2129 610 2129 441 c 0
 2129 210 2024 -29 1655 -29 c 0
 1508 -29 1406 26 1373 26 c 0
 1287 26 1291 -124 1253 -124 c 0
 1245 -124 1195 -124 1195 -91 c 0
 1195 -56 1259 100 1259 314 c 2
 1259 1221 l 1xa7c0
1494 168 m 2
 1494 75 1582 61 1664 61 c 0
 1756 61 1904 115 1904 358 c 0
 1904 658 1705 686 1661 686 c 0
 1538 686 1494 640 1494 640 c 1
 1494 168 l 2
703 802 m 1x1bc0
 703 986 l 2
 703 1014 708 1112 715 1147 c 1
 697 1150 666 1188 648 1242 c 0
 632 1291 604 1339 538 1339 c 0
 392 1339 379 1162 379 1080 c 2
 379 802 l 1
 703 802 l 1x1bc0
EndSplineSet
Ligature2: "'liga' Standard Ligatures in Latin lookup 9 subtable" f f b
LCarets2: 2 0 0 
EndChar

StartChar: f_h
Encoding: 65546 -1 80
Width: 1793
VWidth: 0
Flags: W
HStem: 0 75<61 183.851 420.626 584 681 819.344 1058.39 1164 1256 1332.98 1571.71 1709> 674 142<1222.75 1435.48> 702 100<61 184 419 629> 1408 76<474.688 621.817>
VStem: 184 235<77.5137 702 802 1271.73> 822 235<77.0756 646.886 688 1329> 1335 235<77.55 657.309>
AnchorPoint: "top" 1242 1500 basechar 0
LayerCount: 3
Fore
SplineSet
822 1329 m 1xde
 786 1285 728 1233 694 1233 c 0
 618 1233 680 1408 546 1408 c 0
 426 1408 418 1208 418 1116 c 2
 418 802 l 1
 632 802 l 1
 629 702 l 1
 419 702 l 1
 419 138 l 2
 419 67 435 77 586 75 c 1
 584 0 l 1
 61 0 l 1
 61 75 l 1
 182 77 184 71 184 126 c 2
 184 702 l 1
 61 702 l 1
 61 802 l 1
 185 802 l 1xbe
 185 1024 l 2
 185 1414 414 1484 557 1484 c 0
 621 1484 762 1460 824 1422 c 1
 914 1444 987 1467 1057 1489 c 1
 1057 688 l 1
 1092 702 1259 816 1408 816 c 0
 1553 816 1570 710 1570 618 c 2
 1570 138 l 2
 1570 66 1596 78 1710 75 c 1
 1709 0 l 1
 1256 0 l 1
 1256 75 l 1
 1313 78 1335 75 1335 138 c 2
 1335 540 l 2
 1335 642 1294 674 1241 674 c 0
 1153 674 1057 630 1057 630 c 1
 1057 147 l 2
 1057 65 1065 80 1164 75 c 1
 1164 0 l 1
 681 0 l 1
 679 75 l 1
 802 77 822 65 822 147 c 2
 822 1329 l 1xde
EndSplineSet
Ligature2: "'liga' Standard Ligatures in Latin lookup 9 subtable" f h
LCarets2: 1 0 
EndChar

StartChar: f_f_h
Encoding: 65547 -1 81
Width: 2183
VWidth: 0
Flags: W
HStem: 0 75<30 144.279 381.681 529 577 700.889 940.555 1073 1118 1256.34 1495.39 1601 1693 1769.98 2008.71 2146> 674 142<1659.75 1872.48> 702 100<28 145 380 702 937 1137> 1339 77<443.193 616.293> 1390 86<988.137 1131.11>
VStem: 145 235<77.7815 702 802 1229.19> 702 235<78.7581 702 802 1145.31> 1259 235<77.0756 646.886 688 1221> 1772 235<77.55 657.309>
AnchorPoint: "top" 1679 1500 basechar 0
LayerCount: 3
Fore
SplineSet
1259 1221 m 1xcf80
 1243 1217 1228 1212 1214 1212 c 0
 1186 1212 1172 1226 1161 1264 c 0
 1146 1317 1132 1390 1070 1390 c 0xcf80
 954 1390 936 1234 936 1111 c 2
 936 802 l 1
 1137 802 l 1
 1137 702 l 1
 937 702 l 1
 937 138 l 2
 937 69 986 76 1075 75 c 1
 1073 0 l 1
 577 0 l 1
 574 75 l 1
 681 78 702 68 702 132 c 2
 702 702 l 1
 380 702 l 1
 380 138 l 2
 380 67 398 78 529 75 c 1
 530 0 l 1
 30 0 l 1
 28 75 l 1
 133 76 145 70 145 132 c 2
 145 702 l 1
 25 702 l 1
 28 802 l 1
 146 802 l 1
 146 1029 l 2
 146 1234 244 1331 350 1377 c 0
 402 1400 467 1416 537 1416 c 0xb780
 625 1416 734 1387 793 1338 c 1
 793 1338 890 1476 1065 1476 c 0
 1120 1476 1193 1454 1264 1423 c 1
 1352 1445 1424 1467 1494 1489 c 1
 1494 688 l 1
 1529 702 1696 816 1845 816 c 0
 1990 816 2007 710 2007 618 c 2
 2007 138 l 2
 2007 66 2033 78 2147 75 c 1
 2146 0 l 1
 1693 0 l 1
 1693 75 l 1
 1750 78 1772 75 1772 138 c 2
 1772 540 l 2
 1772 642 1731 674 1678 674 c 0
 1590 674 1494 630 1494 630 c 1
 1494 147 l 2
 1494 65 1502 80 1601 75 c 1
 1601 0 l 1
 1118 0 l 1
 1116 75 l 1
 1239 77 1259 65 1259 147 c 2
 1259 1221 l 1xcf80
703 802 m 1xb780
 703 986 l 2
 703 1014 708 1112 715 1147 c 1
 697 1150 666 1188 648 1242 c 0
 632 1291 604 1339 538 1339 c 0
 392 1339 379 1162 379 1080 c 2
 379 802 l 1
 703 802 l 1xb780
EndSplineSet
Ligature2: "'liga' Standard Ligatures in Latin lookup 9 subtable" f f h
LCarets2: 2 0 0 
EndChar

StartChar: f_k
Encoding: 65548 -1 82
Width: 1926
VWidth: 0
Flags: W
HStem: 0 75<61 183.827 420.626 584 683 818.941 1057.39 1248 1701.46 1861> 702 100<61 184 419 629> 727 75<1336 1476.94 1620.01 1842> 1408 76<474.688 621.817>
VStem: 184 235<77.4534 702 802 1271.73> 822 235<80.219 301 404 1329>
LayerCount: 3
Fore
SplineSet
1057 1489 m 1xbc
 1057 404 l 1
 1440 670 l 2
 1466 688 1477 700 1477 708 c 0
 1477 730 1399 725 1336 727 c 1
 1336 802 l 1
 1844 802 l 1
 1842 727 l 1
 1708 726 1675 732 1579 665 c 2
 1333 493 l 1
 1636 170 l 2
 1718 83 1768 75 1820 75 c 2
 1863 75 l 1
 1861 0 l 1
 1454 0 l 1
 1147 364 l 1
 1057 301 l 1
 1057 120 l 2
 1057 71 1088 77 1248 75 c 1
 1250 0 l 1
 683 0 l 1
 682 75 l 1
 790 78 822 74 822 138 c 2
 822 1329 l 1
 786 1285 728 1233 694 1233 c 0
 618 1233 680 1408 546 1408 c 0
 426 1408 418 1208 418 1116 c 2
 418 802 l 1
 632 802 l 1xbc
 629 702 l 1
 419 702 l 1
 419 138 l 2
 419 67 435 77 586 75 c 1
 584 0 l 1
 61 0 l 1
 61 75 l 1
 181 78 184 70 184 126 c 2
 184 702 l 1
 61 702 l 1
 61 802 l 1xdc
 185 802 l 1
 185 1024 l 2
 185 1414 414 1484 557 1484 c 0
 621 1484 762 1460 824 1422 c 1
 914 1444 987 1467 1057 1489 c 1xbc
EndSplineSet
Ligature2: "'liga' Standard Ligatures in Latin lookup 9 subtable" f k
LCarets2: 1 0 
EndChar

StartChar: f_f_k
Encoding: 65549 -1 83
Width: 2333
VWidth: 0
Flags: W
HStem: 0 75<30 144.279 381.681 529 577 700.889 940.555 1073 1120 1255.94 1494.39 1685 2138.46 2298> 702 100<28 145 380 702 937 1137> 727 75<1773 1913.94 2057.01 2279> 1339 77<443.193 616.293> 1390 86<988.137 1131.11>
VStem: 145 235<77.7815 702 802 1229.19> 702 235<78.7581 702 802 1145.31> 1259 235<80.219 301 404 1221>
CounterMasks: 1 07
LayerCount: 3
Fore
SplineSet
1259 1221 m 1xaf
 1243 1217 1228 1212 1214 1212 c 0
 1186 1212 1172 1226 1161 1264 c 0
 1146 1317 1132 1390 1070 1390 c 0
 954 1390 936 1234 936 1111 c 2
 936 802 l 1xaf
 1137 802 l 1
 1137 702 l 1
 937 702 l 1
 937 138 l 2
 937 69 986 76 1075 75 c 1
 1073 0 l 1
 577 0 l 1
 574 75 l 1
 681 78 702 68 702 132 c 2
 702 702 l 1
 380 702 l 1
 380 138 l 2
 380 67 398 78 529 75 c 1
 530 0 l 1
 30 0 l 1
 28 75 l 1
 133 76 145 70 145 132 c 2
 145 702 l 1
 25 702 l 1
 28 802 l 1xc7
 146 802 l 1
 146 1029 l 2
 146 1234 244 1331 350 1377 c 0
 402 1400 467 1416 537 1416 c 0xb7
 625 1416 734 1387 793 1338 c 1
 793 1338 890 1476 1065 1476 c 0
 1120 1476 1193 1454 1264 1423 c 1
 1352 1445 1424 1467 1494 1489 c 1
 1494 404 l 1
 1877 670 l 2
 1903 688 1914 700 1914 708 c 0
 1914 730 1836 725 1773 727 c 1
 1773 802 l 1
 2281 802 l 1
 2279 727 l 1
 2145 726 2112 732 2016 665 c 2
 1770 493 l 1
 2073 170 l 2
 2155 83 2205 75 2257 75 c 2
 2300 75 l 1
 2298 0 l 1
 1891 0 l 1
 1584 364 l 1
 1494 301 l 1
 1494 120 l 2
 1494 71 1525 77 1685 75 c 1
 1687 0 l 1
 1120 0 l 1
 1119 75 l 1
 1227 78 1259 74 1259 138 c 2
 1259 1221 l 1xaf
703 802 m 1
 703 986 l 2
 703 1014 708 1112 715 1147 c 1
 697 1150 666 1188 648 1242 c 0
 632 1291 604 1339 538 1339 c 0xb7
 392 1339 379 1162 379 1080 c 2
 379 802 l 1
 703 802 l 1
EndSplineSet
Ligature2: "'liga' Standard Ligatures in Latin lookup 9 subtable" f f k
LCarets2: 2 0 0 
EndChar

StartChar: ampersand
Encoding: 38 38 84
Width: 2100
VWidth: 0
Flags: HW
HStem: -21 149<613.212 1068.39> 2 247<1532.2 1825.3> 900 90<1234 1588.66 1743.01 1997> 1320 102<508.559 764.886>
VStem: 44 241<388.746 678.933> 196 259<1025.51 1270.5> 823 191<1082.45 1264.73> 1625 136<530.919 867.858>
LayerCount: 3
Fore
SplineSet
367 771 m 1xbb
 367 771 285 702 285 570 c 0
 285 203 705 128 865 128 c 0
 1056 128 1138 174 1138 174 c 1
 858 326 564 523 367 771 c 1xbb
1014 1149 m 0
 1014 1031 934 969 849 969 c 0
 810 969 770 982 736 1009 c 0
 722 1020 720 1043 738 1055 c 0
 781 1084 823 1097 823 1163 c 0
 823 1202 804 1246 766 1276 c 0
 724 1309 669 1320 635 1320 c 0
 504 1320 455 1231 455 1170 c 0
 455 1063 523 928 836 685 c 0
 1116 468 1410 330 1410 330 c 1
 1410 330 1625 464 1625 721 c 0
 1625 786 1597 867 1560 886 c 0
 1537 898 1512 900 1491 900 c 2
 1234 900 l 1
 1234 990 l 1
 1998 990 l 1
 1997 900 l 1
 1812 900 l 2
 1757 900 1743 893 1743 870 c 0
 1743 834 1761 802 1761 710 c 0
 1761 480 1534 288 1529 282 c 1
 1534 272 1643 249 1709 249 c 0
 1787 249 1927 277 1992 346 c 0
 2003 357 2012 363 2021 363 c 0
 2037 363 2048 343 2048 302 c 0
 2048 222 1975 123 1856 61 c 0
 1773 17 1693 2 1619 2 c 0x77
 1436 2 1271 103 1271 103 c 1
 1271 103 1056 -21 742 -21 c 0
 405 -21 44 114 44 482 c 0xbb
 44 786 295 860 295 860 c 1
 295 860 196 1002 196 1120 c 0xb7
 196 1316 373 1422 625 1422 c 0
 752 1422 865 1378 936 1314 c 0
 996 1261 1014 1201 1014 1149 c 0
EndSplineSet
Position2: "'cpsp' Capital Spacing in Latin lookup 1 subtable" dx=13 dy=0 dh=26 dv=0
EndChar

StartChar: m
Encoding: 109 109 85
Width: 1657
VWidth: 0
Flags: MW
HStem: 0 75<64 202.845 438.195 560 600 716 951 1075 1113 1228.74 1465.19 1620> 674 142<568.523 825.243 1117.88 1330.02> 812 20G<355.347 437.456>
VStem: 203 235<77.7348 648.279> 716 235<76.067 643.641> 1229 235<79.2081 654.418>
CounterMasks: 1 1c
LayerCount: 3
Fore
SplineSet
33 734 m 1xdc
 126 747 438 832 438 832 c 1xbc
 438 832 434 766 434 685 c 1
 468 703 661 816 799 816 c 0
 952 816 950 681 951 681 c 0
 1018 732 1184 816 1293 816 c 0
 1451 816 1464 708 1464 607 c 2
 1464 128 l 2
 1464 73 1495 77 1620 75 c 1
 1620 0 l 1
 1113 0 l 1
 1113 75 l 1
 1222 76 1229 74 1229 124 c 2
 1229 540 l 2
 1229 645 1179 674 1128 674 c 0
 1015 674 951 616 951 616 c 1
 951 109 l 2
 951 70 983 76 1075 75 c 1
 1075 0 l 1
 599 0 l 1
 600 75 l 1
 694 77 716 70 716 109 c 2
 716 546 l 2
 716 642 678 674 600 674 c 0
 526 674 438 630 438 630 c 1
 438 121 l 2
 438 68 453 77 560 75 c 1
 560 0 l 1
 64 0 l 1
 64 75 l 1
 192 80 203 69 203 121 c 2
 203 629 l 2
 203 667 199 685 175 685 c 0
 156 685 55 663 38 659 c 1
 33 734 l 1xdc
EndSplineSet
Validated: 1
EndChar

StartChar: zero
Encoding: 48 48 86
Width: 1024
VWidth: 0
Flags: W
HStem: -18 89<337.626 658.105> 744 91<330.176 655.51>
VStem: 64 100<246.389 576.478> 826 97<238.28 568.907>
LayerCount: 3
Fore
SplineSet
64 394 m 0
 64 619 228 835 500 835 c 0
 731 835 923 672 923 426 c 0
 923 189 751 -18 494 -18 c 0
 265 -18 64 146 64 394 c 0
164 412 m 0
 164 238 303 71 502 71 c 0
 666 71 826 207 826 404 c 0
 826 575 691 744 490 744 c 0
 322 744 164 608 164 412 c 0
EndSplineSet
Validated: 1
AlternateSubs2: "'aalt' Access All Alternates lookup 0 subtable" zero.lining zero.sub zero.sup zero.denom zero.numer
AlternateSubs2: "'aalt' Access All Alternates in Latin lookup 0 subtable" zero.lining zero.sub zero.sup zero.denom zero.numer
Substitution2: "lining_figures subtable" zero.lining
Substitution2: "'subs' Subscript in Latin lookup 6 subtable" zero.sub
Substitution2: "'sups' Superscript in Latin lookup 5 subtable" zero.sup
Substitution2: "denominators subtable" zero.denom
Substitution2: "numerators subtable" zero.numer
EndChar

StartChar: one
Encoding: 49 49 87
Width: 688
VWidth: 0
Flags: W
HStem: 0 65<63 255.943 406.113 605> 723 65<68 255.197>
VStem: 258 144<69.2339 721.145> 364 45<800.546 848>
LayerCount: 3
Fore
SplineSet
63 0 m 1xe0
 63 65 l 1
 249 67 258 56 258 129 c 2
 258 661 l 2xe0
 258 690 258 723 189 723 c 0
 155 723 67 720 67 720 c 1
 68 785 l 1
 280 788 l 2
 356 789 352 810 364 848 c 1
 409 848 l 1xd0
 409 848 402 636 402 441 c 2
 402 128 l 2
 402 51 444 70 605 65 c 1
 605 0 l 1
 63 0 l 1xe0
EndSplineSet
Validated: 1
Layer: 2
SplineSet
409 857 m 5xd0
 409 857 402 645 402 450 c 6
 402 128 l 6
 402 51 444 70 605 65 c 5
 605 0 l 5
 63 0 l 5
 63 65 l 5
 249 67 258 56 258 129 c 6
 258 675 l 6xe0
 258 704 258 738 189 738 c 4
 155 738 67 737 67 737 c 5
 68 797 l 5
 280 797 l 6
 356 797 352 819 364 857 c 5
 409 857 l 5xd0
EndSplineSet
AlternateSubs2: "'aalt' Access All Alternates lookup 0 subtable" one.lining one.sub one.sup one.denom one.numer
AlternateSubs2: "'aalt' Access All Alternates in Latin lookup 0 subtable" one.lining one.sub one.sup one.denom one.numer
Substitution2: "lining_figures subtable" one.lining
Substitution2: "'subs' Subscript in Latin lookup 6 subtable" one.sub
Substitution2: "'sups' Superscript in Latin lookup 5 subtable" one.sup
Substitution2: "denominators subtable" one.denom
Substitution2: "numerators subtable" one.numer
EndChar

StartChar: two
Encoding: 50 50 88
Width: 1058
VWidth: 0
Flags: W
HStem: -0 86<310.007 685.599> 740 95<276.135 534.989>
VStem: 608 175<453.435 670.017>
LayerCount: 3
Fore
SplineSet
60 17 m 0
 60 54 608 319 608 559 c 0
 608 653 522 740 403 740 c 0
 226 740 222 630 185 630 c 0
 169 630 163 639 163 652 c 0
 163 734 280 835 486 835 c 0
 702 835 783 679 783 607 c 0
 783 460 676 346 566 266 c 0
 429 166 310 102 310 92 c 0
 310 87 320 86 333 86 c 0
 678 86 839 191 881 191 c 0
 891 191 897 186 897 172 c 0
 897 159 865 25 852 12 c 0
 846 6 849 0 760 0 c 2
 88 -0 l 2
 73 0 60 2 60 17 c 0
EndSplineSet
Validated: 1
AlternateSubs2: "'aalt' Access All Alternates lookup 0 subtable" two.lining two.sub two.sup two.denom two.numer
AlternateSubs2: "'aalt' Access All Alternates in Latin lookup 0 subtable" two.lining two.sub two.sup two.denom two.numer
Substitution2: "lining_figures subtable" two.lining
Substitution2: "'subs' Subscript in Latin lookup 6 subtable" two.sub
Substitution2: "'sups' Superscript in Latin lookup 5 subtable" two.sup
Substitution2: "denominators subtable" two.denom
Substitution2: "numerators subtable" two.numer
EndChar

StartChar: three
Encoding: 51 51 89
Width: 968
VWidth: 0
Flags: W
HStem: -539 85<93.6453 486.417> 707 125<264.759 521.952>
VStem: 603 149<377.518 621.431> 681 177<-284.431 33.5578>
LayerCount: 3
Fore
SplineSet
63 -453 m 0xd0
 63 -430 78 -424 93 -424 c 0
 117 -424 182 -454 308 -454 c 0
 475 -454 681 -344 681 -126 c 0xd0
 681 88 523 132 466 142 c 0
 409 153 364 140 364 175 c 0
 364 228 470 198 547 307 c 0
 598 379 603 476 603 486 c 0
 603 566 547 707 406 707 c 0
 226 707 200 614 152 614 c 0
 136 614 128 627 128 646 c 0
 128 682 227 832 461 832 c 0
 628 832 752 726 752 551 c 0xe0
 752 312 544 225 544 225 c 1
 544 225 858 195 858 -113 c 0
 858 -411 549 -539 319 -539 c 0
 226 -539 63 -522 63 -453 c 0xd0
EndSplineSet
Validated: 1
AlternateSubs2: "'aalt' Access All Alternates lookup 0 subtable" three.lining three.sub three.sup three.denom three.numer
AlternateSubs2: "'aalt' Access All Alternates in Latin lookup 0 subtable" three.lining three.sub three.sup three.denom three.numer
Substitution2: "lining_figures subtable" three.lining
Substitution2: "'subs' Subscript in Latin lookup 6 subtable" three.sub
Substitution2: "'sups' Superscript in Latin lookup 5 subtable" three.sup
Substitution2: "denominators subtable" three.denom
Substitution2: "numerators subtable" three.numer
EndChar

StartChar: four
Encoding: 52 52 90
Width: 1142
VWidth: 0
Flags: W
HStem: 0 127<252 732 876 1074> 812 20G<857.5 867.5>
VStem: 732 144<-480 0 127 605>
LayerCount: 3
Fore
SplineSet
39 15 m 0
 39 24 254 238 832 809 c 0
 847 823 854 832 861 832 c 0
 874 832 876 808 876 782 c 2
 876 127 l 9
 1116 127 l 25
 1074 0 l 25
 876 0 l 25
 876 -480 l 25
 732 -540 l 25
 732 0 l 17
 67 0 l 2
 53 0 39 1 39 15 c 0
252 127 m 9
 732 127 l 25
 732 605 l 17
 252 127 l 9
EndSplineSet
Validated: 1
AlternateSubs2: "'aalt' Access All Alternates lookup 0 subtable" four.lining four.sub four.sup four.denom four.numer
AlternateSubs2: "'aalt' Access All Alternates in Latin lookup 0 subtable" four.lining four.sub four.sup four.denom four.numer
Substitution2: "lining_figures subtable" four.lining
Substitution2: "'subs' Subscript in Latin lookup 6 subtable" four.sub
Substitution2: "'sups' Superscript in Latin lookup 5 subtable" four.sup
Substitution2: "denominators subtable" four.denom
Substitution2: "numerators subtable" four.numer
EndChar

StartChar: five
Encoding: 53 53 91
Width: 960
VWidth: 0
Flags: HMW
HStem: -530 78<158.082 523.62> 325 70<251.55 484.398> 694 95<271.29 675.13>
VStem: 190 60<395.837 665.628> 733 168<-243.972 125.377>
LayerCount: 3
Fore
SplineSet
76 -420 m 0
 76 -402 96 -399 97 -399 c 0
 160 -399 117 -452 375 -452 c 0
 575 -452 733 -260 733 -69 c 0
 733 269 443 325 279 325 c 0
 250 325 220 323 190 320 c 1
 190 565 164 768 164 772 c 0
 164 791 174 796 194 796 c 0
 247 796 400 789 496 789 c 0
 561 789 629 792 710 804 c 0
 743 809 746 884 746 884 c 1
 795 878 l 1
 771 705 l 2
 765 662 754 646 727 646 c 0
 646 646 350 694 323 694 c 0
 273 694 250 634 250 460 c 0
 250 395 264 395 302 395 c 0
 350 395 377 408 435 408 c 0
 703 408 901 302 901 -45 c 0
 901 -198 801 -530 381 -530 c 0
 144 -530 76 -441 76 -420 c 0
EndSplineSet
Validated: 1
Layer: 2
SplineSet
42 133 m 4
 105 133 66 56 344 56 c 4
 544 56 702 232 702 417 c 4
 702 707 412 779 248 779 c 4
 219 779 189 777 159 774 c 5
 154 927 l 6
 146 1193 133 1165 133 1229 c 4
 133 1250 142 1256 163 1256 c 4
 216 1256 369 1249 465 1249 c 4
 530 1249 598 1252 679 1264 c 4
 712 1269 715 1341 715 1341 c 5
 764 1336 l 5
 740 1168 l 6
 734 1126 723 1110 696 1110 c 4
 615 1110 319 1157 292 1157 c 4
 242 1157 219 1079 219 910 c 4
 219 847 233 847 271 847 c 4
 319 847 346 854 404 854 c 4
 672 854 870 722 870 440 c 4
 870 291 770 -19 350 -19 c 4
 89 -19 21 92 21 112 c 4
 21 129 41 133 42 133 c 4
EndSplineSet
AlternateSubs2: "'aalt' Access All Alternates lookup 0 subtable" five.lining five.sub five.sup five.denom five.numer
AlternateSubs2: "'aalt' Access All Alternates in Latin lookup 0 subtable" five.lining five.sub five.sup five.denom five.numer
Substitution2: "lining_figures subtable" five.lining
Substitution2: "'subs' Subscript in Latin lookup 6 subtable" five.sub
Substitution2: "'sups' Superscript in Latin lookup 5 subtable" five.sup
Substitution2: "denominators subtable" five.denom
Substitution2: "numerators subtable" five.numer
EndChar

StartChar: six
Encoding: 54 54 92
Width: 1024
VWidth: 0
Flags: W
HStem: -22 74<460.195 662.128> 715 105<392.694 619.871> 1262 78<581.354 848.143>
VStem: 97 168<293.613 741> 757 161<210.661 561.115>
LayerCount: 3
Fore
SplineSet
97 580 m 0
 97 1000 384 1340 697 1340 c 0
 729 1340 874 1315 874 1272 c 0
 874 1256 859 1248 846 1248 c 0
 829 1248 794 1262 743 1262 c 0
 672 1262 603 1239 543 1205 c 0
 263 1046 266 671 250 632 c 1
 333 779 470 820 554 820 c 0
 845 820 918 582 918 443 c 0
 918 143 745 -22 537 -22 c 0
 251 -22 97 246 97 580 c 0
265 483 m 0
 265 242 426 52 567 52 c 0
 673 52 757 155 757 354 c 0
 757 583 639 715 483 715 c 0
 353 715 265 604 265 483 c 0
EndSplineSet
Validated: 1
AlternateSubs2: "'aalt' Access All Alternates lookup 0 subtable" six.lining six.sub six.sup six.denom six.numer
AlternateSubs2: "'aalt' Access All Alternates in Latin lookup 0 subtable" six.lining six.sub six.sup six.denom six.numer
Substitution2: "lining_figures subtable" six.lining
Substitution2: "'subs' Subscript in Latin lookup 6 subtable" six.sub
Substitution2: "'sups' Superscript in Latin lookup 5 subtable" six.sup
Substitution2: "denominators subtable" six.denom
Substitution2: "numerators subtable" six.numer
EndChar

StartChar: seven
Encoding: 55 55 93
Width: 960
VWidth: 0
Flags: HMW
HStem: -532 21G<426 502> 684 115<235.254 714.985>
VStem: 715 92<450.038 786.5>
LayerCount: 3
Fore
SplineSet
69 638 m 0
 69 670 79 729 91 786 c 0
 94 799 111 799 132 799 c 2
 772 799 l 2
 801 799 807 799 807 774 c 0
 807 488 530 -532 474 -532 c 1
 378 -510 326 -513 326 -486 c 0
 326 -429 428 -365 599 146 c 0
 677 376 715 606 715 655 c 0
 715 680 694 684 666 684 c 0
 596 684 392 665 280 647 c 0
 150 627 108 599 92 599 c 0
 76 599 69 606 69 638 c 0
EndSplineSet
Validated: 1
AlternateSubs2: "'aalt' Access All Alternates lookup 0 subtable" seven.lining seven.sub seven.sup seven.denom seven.numer
AlternateSubs2: "'aalt' Access All Alternates in Latin lookup 0 subtable" seven.lining seven.sub seven.sup seven.denom seven.numer
Substitution2: "lining_figures subtable" seven.lining
Substitution2: "'subs' Subscript in Latin lookup 6 subtable" seven.sub
Substitution2: "'sups' Superscript in Latin lookup 5 subtable" seven.sup
Substitution2: "denominators subtable" seven.denom
Substitution2: "numerators subtable" seven.numer
EndChar

StartChar: eight
Encoding: 56 56 94
Width: 1024
VWidth: 0
Flags: W
HStem: -20.9199 78.2803<374.187 665> 1268.64 78.2803<355.363 629.06>
VStem: 94 123<192.641 468.514> 147 131<940.191 1186.05> 753 118<901.517 1156.74> 790 132<190.651 438.621>
LayerCount: 3
Fore
SplineSet
94 320.009765625 m 0xe4
 94 546.610351562 363 663 390 680.509765625 c 1
 252 759.8203125 147 885.48046875 147 1021.44042969 c 0
 147 1221.25976562 304 1346.91992188 524 1346.91992188 c 0
 700 1346.91992188 871 1217.13964844 871 1058.51953125 c 0xd8
 871 829.860351562 616 717.58984375 616 717.58984375 c 1
 666 689.780273438 922 575.450195312 922 362.240234375 c 0
 922 157.26953125 752 -20.919921875 508 -20.919921875 c 0
 282 -20.919921875 94 109.889648438 94 320.009765625 c 0xe4
217 330.309570312 m 0xe4
 217 159.330078125 384 57.3603515625 526 57.3603515625 c 0
 674 57.3603515625 790 170.66015625 790 312.799804688 c 0
 790 467.299804688 656 526.009765625 444 650.639648438 c 1
 444 650.639648438 217 519.830078125 217 330.309570312 c 0xe4
278 1062.63964844 m 0xd8
 278 886.509765625 540 754.669921875 540 754.669921875 c 1
 540 754.669921875 753 846.33984375 753 1027.62011719 c 0
 753 1157.40039062 624 1268.63964844 498 1268.63964844 c 0
 322 1268.63964844 278 1159.45996094 278 1062.63964844 c 0xd8
EndSplineSet
Validated: 1
AlternateSubs2: "'aalt' Access All Alternates lookup 0 subtable" eight.lining eight.sub eight.sup eight.denom eight.numer
AlternateSubs2: "'aalt' Access All Alternates in Latin lookup 0 subtable" eight.lining eight.sub eight.sup eight.denom eight.numer
Substitution2: "lining_figures subtable" eight.lining
Substitution2: "'subs' Subscript in Latin lookup 6 subtable" eight.sub
Substitution2: "'sups' Superscript in Latin lookup 5 subtable" eight.sup
Substitution2: "denominators subtable" eight.denom
Substitution2: "numerators subtable" eight.numer
EndChar

StartChar: nine
Encoding: 57 57 95
Width: 981
VWidth: 0
Flags: W
HStem: -530 71<114.275 408.479> -15 113<363.652 605.542> 754 66<340.048 531.177>
VStem: 64 152<270.133 611.641> 724 174<-30.1702 521.31>
LayerCount: 3
Fore
SplineSet
64 417 m 0
 64 663 233 820 448 820 c 0
 718 820 898 618 898 243 c 0
 898 -159 635 -530 280 -530 c 0
 157 -530 108 -499 108 -484 c 0
 108 -455 128 -449 161 -449 c 0
 189 -449 218 -459 256 -459 c 0
 568.958459047 -459 724 -92.8151831696 724 138 c 1
 724 138 636 -15 436 -15 c 0
 120 -15 64 267 64 417 c 0
216 468 m 0
 216 377 259 98 516 98 c 0
 656 98 724 207 724 321 c 0
 724 534 591 754 427 754 c 0
 357 754 216 673 216 468 c 0
EndSplineSet
Validated: 1
AlternateSubs2: "'aalt' Access All Alternates lookup 0 subtable" nine.lining nine.sub nine.sup nine.denom nine.numer
AlternateSubs2: "'aalt' Access All Alternates in Latin lookup 0 subtable" nine.lining nine.sub nine.sup nine.denom nine.numer
Substitution2: "lining_figures subtable" nine.lining
Substitution2: "'subs' Subscript in Latin lookup 6 subtable" nine.sub
Substitution2: "'sups' Superscript in Latin lookup 5 subtable" nine.sup
Substitution2: "denominators subtable" nine.denom
Substitution2: "numerators subtable" nine.numer
EndChar

StartChar: dollar
Encoding: 36 36 96
Width: 990
VWidth: 0
Flags: W
HStem: -16 62<291.593 456 521 618.656> 1161 57<359.659 458 523 636.886> 1363 20G<458 523>
VStem: 97 144<853.823 1055.59> 456 65<-343 -16 47 541 720 1161 1215.13 1383> 767 141<175.173 398.259>
LayerCount: 3
Fore
SplineSet
46 259 m 0
 46 283 58 288 68 288 c 0
 135 288 56 127 355 57 c 0
 394 48 436 46 456 46 c 1
 456 563 l 1
 344 619 97 721 97 904 c 0
 97 1191 458 1218 458 1218 c 1
 458 1383 l 1
 523 1383 l 1
 523 1218 l 1
 733 1194 718 1188 735 1188 c 0
 747 1188 793 1202 796 1202 c 0
 820 1202 817 1175 833 1071 c 0
 834 1060 839 1024 839 1019 c 2
 839 1004 l 2
 839 993 837 985 825 985 c 0
 799 985 780 1015 758 1044 c 0
 679 1154 523 1161 523 1161 c 1
 523 698 l 1
 737 589 908 537 908 336 c 0
 908 23 521 -15 521 -15 c 1
 521 -343 l 1
 456 -343 l 1
 456 -16 l 1
 456 -16 229 -14 121 34 c 0
 72 55 73 62 61 150 c 0
 54 199 46 249 46 259 c 0
241 962 m 0
 241 819 458 720 458 720 c 1
 458 1161 l 1
 458 1161 241 1144 241 962 c 0
521 47 m 1
 521 47 587 52 653 95 c 0
 696 122 767 196 767 285 c 0
 767 448 522 541 521 541 c 1
 521 47 l 1
EndSplineSet
Validated: 1
Layer: 2
SplineSet
529 731 m 1
 750 613 917 563 917 354 c 0
 917 40 552 -10 527 -10 c 1
 527 -355 l 1
 462 -355 l 1
 462 -11 l 1
 322 -11 184 14 123 41 c 0
 75 62 76 68 64 159 c 0
 59 199 48 263 48 272 c 0
 48 290 55 297 66 297 c 0
 127 297 64 127 360 53 c 0
 390 46 421 41 462 41 c 1
 462 600 l 1
 351 658 102 762 102 952 c 0
 102 1239 438 1277 464 1277 c 1
 464 1451 l 1
 529 1451 l 1
 529 1278 l 1
 754 1253 731 1247 748 1247 c 0
 763 1247 803 1260 810 1261 c 1
 829 1261 827 1234 842 1128 c 0
 844 1117 848 1079 848 1075 c 2
 848 1059 l 2
 848 1048 846 1044 839 1044 c 0
 817 1044 802 1068 776 1104 c 0
 702 1208 564 1230 529 1230 c 1
 529 731 l 1
236 1015 m 0
 236 862 452 762 464 754 c 1
 464 1230 l 1
 431 1230 236 1197 236 1015 c 0
786 299 m 0
 786 475 535 572 532 573 c 1
 527 573 l 1
 527 42 l 1
 766 90 786 259 786 299 c 0
810 1261 m 1
 810 1261 l 1
EndSplineSet
AlternateSubs2: "'aalt' Access All Alternates lookup 0 subtable" dollar.lining
AlternateSubs2: "'aalt' Access All Alternates in Latin lookup 0 subtable" dollar.lining
Substitution2: "lining_figures subtable" dollar.lining
EndChar

StartChar: zero.numer
Encoding: 65550 -1 97
Width: 841
VWidth: 0
Flags: W
HStem: 474 68<322.306 525.518> 1329 73<301.943 511.905>
VStem: 33 126<742.136 1161.12> 651 150<724.784 1166.26>
LayerCount: 3
Fore
SplineSet
33 959 m 0
 33 1206 217 1402 408 1402 c 0
 664 1402 801 1177 801 949 c 0
 801 696 646 474 411 474 c 0
 188 474 33 655 33 959 c 0
159 963 m 0
 159 779 254 542 424 542 c 0
 610 542 651 790 651 935 c 0
 651 1199 533 1329 409 1329 c 0
 260 1329 159 1149 159 963 c 0
EndSplineSet
Validated: 1
AlternateSubs2: "'aalt' Access All Alternates lookup 0 subtable" zero.denom
AlternateSubs2: "'aalt' Access All Alternates in Latin lookup 0 subtable" zero.denom
Substitution2: "Single Substitution lookup 4 subtable" zero.denom
EndChar

StartChar: one.numer
Encoding: 65551 -1 98
Width: 538
VWidth: 0
Flags: W
HStem: 500 59<36 194.201 330.738 517> 1304 59<48 195.289>
VStem: 197 130<563.165 1301.52>
LayerCount: 3
Fore
SplineSet
36 500 m 1
 36 559 l 1
 170 562 197 550 197 616 c 2
 197 1249 l 2
 197 1298 188 1304 130 1304 c 2
 46 1304 l 1
 48 1363 l 1
 227 1363 l 2
 288 1363 294 1394 311 1421 c 1
 340 1420 l 1
 340 1420 327 1229 327 1094 c 2
 327 616 l 2
 327 552 356 562 517 559 c 1
 517 500 l 1
 36 500 l 1
EndSplineSet
Validated: 1
AlternateSubs2: "'aalt' Access All Alternates lookup 0 subtable" one.denom
AlternateSubs2: "'aalt' Access All Alternates in Latin lookup 0 subtable" one.denom
Substitution2: "Single Substitution lookup 4 subtable" one.denom
EndChar

StartChar: two.numer
Encoding: 65552 -1 99
Width: 819
VWidth: 0
Flags: W
HStem: 500 77<255.009 626.744> 1309 89<212.051 464.279>
VStem: 522 169<992.231 1253.32>
LayerCount: 3
Fore
SplineSet
98 512 m 0
 98 538 522 866 522 1129 c 0
 522 1284 392 1309 341 1309 c 0
 181 1309 180 1236 146 1236 c 0
 134 1236 130 1243 130 1253 c 0
 130 1317 236 1398 398 1398 c 0
 583 1398 691 1285 691 1139 c 0
 691 884 255 606 255 583 c 0
 255 578 268 577 284 577 c 0
 584 577 711 647 739 647 c 0
 747 647 752 644 752 632 c 0
 752 622 730 519 714 509 c 0
 709 505 714 500 644 500 c 2
 135 500 l 2
 119 500 98 502 98 512 c 0
EndSplineSet
Validated: 1
AlternateSubs2: "'aalt' Access All Alternates lookup 0 subtable" two.denom
AlternateSubs2: "'aalt' Access All Alternates in Latin lookup 0 subtable" two.denom
Substitution2: "Single Substitution lookup 4 subtable" two.denom
EndChar

StartChar: three.numer
Encoding: 65553 -1 100
Width: 752
VWidth: 0
Flags: W
HStem: 477 72<123.962 441.635> 1314 88<178.62 408.722>
VStem: 453 161<1107.84 1271.55> 530 160<621.375 859.601>
LayerCount: 3
Fore
SplineSet
46 578 m 0xd0
 46 598 64 601 72 601 c 0
 103 601 149 549 300 549 c 0
 493 549 530 679 530 749 c 0xd0
 530 835 444 935 324 954 c 0
 275 962 243 956 243 979 c 0
 243 1005 271 1005 312 1014 c 0
 438 1041 453 1144 453 1182 c 0
 453 1233 401 1314 299 1314 c 0
 168 1314 150 1245 115 1245 c 0
 103 1245 97 1255 97 1269 c 0
 97 1297 173 1402 354 1402 c 0
 483 1402 614 1339 614 1219 c 0xe0
 614 1054 376 995 376 995 c 1
 376 995 690 962 690 748 c 0
 690 560 505 477 320 477 c 0
 177 477 46 531 46 578 c 0xd0
EndSplineSet
Validated: 1
AlternateSubs2: "'aalt' Access All Alternates lookup 0 subtable" three.denom
AlternateSubs2: "'aalt' Access All Alternates in Latin lookup 0 subtable" three.denom
Substitution2: "Single Substitution lookup 4 subtable" three.denom
EndChar

StartChar: four.numer
Encoding: 65554 -1 101
Width: 838
VWidth: 0
Flags: W
HStem: 745 115<226 518 648 781> 1390 20G<633.5 641>
VStem: 518 130<480 745 860 1199>
LayerCount: 3
Fore
SplineSet
63 756 m 0
 63 795 168 863 613 1394 c 0
 623 1406 631 1410 636 1410 c 0
 646 1410 648 1393 648 1375 c 2
 648 860 l 9
 813 860 l 25
 781 745 l 25
 648 745 l 25
 648 480 l 25
 518 480 l 25
 518 745 l 17
 84 745 l 2
 73 745 63 746 63 756 c 0
226 860 m 9
 518 860 l 25
 518 1199 l 17
 226 860 l 9
EndSplineSet
Validated: 1
AlternateSubs2: "'aalt' Access All Alternates lookup 0 subtable" four.denom
AlternateSubs2: "'aalt' Access All Alternates in Latin lookup 0 subtable" four.denom
Substitution2: "Single Substitution lookup 4 subtable" four.denom
EndChar

StartChar: five.numer
Encoding: 65555 -1 102
Width: 731
VWidth: 0
Flags: W
HStem: 483 68<110.135 388.675> 1037 345<107 318.845> 1037 61<175.961 350.703> 1293 83<186.716 495.241>
VStem: 99 76<1098 1290.07> 513 156<664.689 926.205>
LayerCount: 3
Fore
SplineSet
36 586 m 0xbc
 36 599 50 603 51 603 c 0
 97 603 68 551 271 551 c 0
 417 551 513 670 513 794 c 0
 513 989 299 1037 180 1037 c 0
 159 1037 129 1035 107 1032 c 1
 101 1200 99 1275 99 1333 c 0
 99 1375 100 1382 122 1382 c 0xcc
 161 1382 272 1376 342 1376 c 0
 389 1376 439 1378 498 1386 c 0
 522 1390 524 1440 524 1440 c 1
 568 1437 l 1
 551 1308 l 2
 547 1276 539 1263 519 1263 c 0
 460 1263 247 1293 227 1293 c 0
 191 1293 175 1244 175 1138 c 0
 175 1098 180 1098 209 1098 c 0
 245 1098 265 1104 309 1104 c 0
 487 1104 669 1011 669 810 c 0
 669 704 573 483 287 483 c 0
 88 483 36 570 36 586 c 0xbc
EndSplineSet
Validated: 1
AlternateSubs2: "'aalt' Access All Alternates lookup 0 subtable" five.denom
AlternateSubs2: "'aalt' Access All Alternates in Latin lookup 0 subtable" five.denom
Substitution2: "Single Substitution lookup 4 subtable" five.denom
EndChar

StartChar: six.numer
Encoding: 65556 -1 103
Width: 831
VWidth: 0
Flags: W
HStem: 480 65<355.964 547.926> 977 95<310.059 537.739> 1343 68<461.926 691.312>
VStem: 73 155<676.842 1006.35> 628 135<633.755 883.073>
LayerCount: 3
Fore
SplineSet
73 891 m 0
 73 1178 315 1411 567 1411 c 0
 593 1411 710 1390 710 1352 c 0
 710 1338 698 1331 688 1331 c 0
 675 1331 647 1343 607 1343 c 0
 552 1343 498 1328 451 1305 c 0
 232 1198 213 944 201 917 c 1
 267 1030 385 1072 451 1072 c 0
 747 1072 763 818 763 801 c 0
 763 594 599 480 430 480 c 0
 198 480 73 663 73 891 c 0
228 821 m 0
 228 677.63671875 336.168945312 545 454 545 c 0
 538.995117188 545 628 618.982421875 628 739 c 0
 628 886 524 977 407 977 c 0
 310 977 228 898 228 821 c 0
EndSplineSet
Validated: 1
AlternateSubs2: "'aalt' Access All Alternates lookup 0 subtable" six.denom
AlternateSubs2: "'aalt' Access All Alternates in Latin lookup 0 subtable" six.denom
Substitution2: "Single Substitution lookup 4 subtable" six.denom
EndChar

StartChar: seven.numer
Encoding: 65557 -1 104
Width: 734
VWidth: 0
Flags: W
HStem: 1206 180<93.1025 243.043> 1282 104<183.172 551.988>
VStem: 552 102<1131.53 1377>
LayerCount: 3
Fore
SplineSet
76 1241 m 0xa0
 76 1270 84 1323 93 1374 c 0
 95 1386 109 1386 125 1386 c 2xa0
 628 1386 l 2
 650 1386 654 1386 654 1368 c 0
 654 1242 515 798 497 738 c 1
 438 556 l 2
 417 493 417 486 394 486 c 2
 278 486 l 2
 260 486 250 494 250 504 c 0
 250 524 335 586 463 935 c 1
 522 1092 552 1229 552 1262 c 0
 552 1279 536 1282 515 1282 c 0x60
 462 1282 319 1265 235 1249 c 0
 137 1231 106 1206 94 1206 c 0
 82 1206 76 1212 76 1241 c 0xa0
EndSplineSet
Validated: 1
AlternateSubs2: "'aalt' Access All Alternates lookup 0 subtable" seven.denom
AlternateSubs2: "'aalt' Access All Alternates in Latin lookup 0 subtable" seven.denom
Substitution2: "Single Substitution lookup 4 subtable" seven.denom
EndChar

StartChar: eight.numer
Encoding: 65558 -1 105
Width: 772
VWidth: 0
Flags: W
HStem: 476 60<267.837 488.089> 1351 63<275.18 477.111>
VStem: 57 113<606.577 822.192> 100 132<1111.83 1316.76> 548 96<1093.23 1297.96> 557 138<599.557 807.159>
LayerCount: 3
Fore
SplineSet
57 700 m 0xe4
 57 870 269 939 291 952 c 1
 182 1006 100 1085 100 1191 c 0
 100 1328 226 1414 388 1414 c 0
 518 1414 644 1325 644 1216 c 0xd8
 644 1059 463 995 463 995 c 1
 502 976 695 893 695 740 c 0
 695 600 579 476 376 476 c 0
 164 476 57 585 57 700 c 0xe4
170 719 m 0xe4
 170 619 264 536 378 536 c 0
 380 536 382 536 384 536 c 0
 520 539 557 632 557 694 c 0
 557 815 449 862 326 932 c 1
 303 920 170 840 170 719 c 0xe4
232 1217 m 0xd8
 232 1082 417 1020 418 1019 c 1
 418 1019 548 1067 548 1187 c 0
 548 1302 453 1351 371 1351 c 0
 266 1351 232 1278 232 1217 c 0xd8
EndSplineSet
Validated: 1
AlternateSubs2: "'aalt' Access All Alternates lookup 0 subtable" eight.denom
AlternateSubs2: "'aalt' Access All Alternates in Latin lookup 0 subtable" eight.denom
Substitution2: "Single Substitution lookup 4 subtable" eight.denom
EndChar

StartChar: nine.numer
Encoding: 65559 -1 106
Width: 785
VWidth: 0
Flags: W
HStem: 493 81<129.964 425.161> 811 93<280.936 500.245> 1359 58<277.027 443.3>
VStem: 55 137<995.714 1263.17> 575 157<848.458 1207.1> 597 135<752.901 1081.23>
LayerCount: 3
Fore
SplineSet
55 1098 m 0xf4
 55 1258 172 1417 365 1417 c 0
 584 1417 732 1248 732 988 c 0xf8
 732 624 489 493 295 493 c 0
 149 493 61 560 61 610 c 0
 61 626 69 634 82 634 c 0
 123 634 145 574 275 574 c 0
 509 574 597 794 597 923 c 0
 597 934 596 941 596 941 c 1
 596 941 516 811 327 811 c 0
 163.799804688 811 55 944.5 55 1098 c 0xf4
192 1144 m 0
 192 1084 224 904 417 904 c 0
 522 904 575 966 575 1041 c 0
 575 1200 480 1359 357 1359 c 0
 302 1359 192 1312 192 1144 c 0
EndSplineSet
Validated: 1
AlternateSubs2: "'aalt' Access All Alternates lookup 0 subtable" nine.denom
AlternateSubs2: "'aalt' Access All Alternates in Latin lookup 0 subtable" nine.denom
Substitution2: "Single Substitution lookup 4 subtable" nine.denom
EndChar

StartChar: zero.denom
Encoding: 65560 -1 107
Width: 841
VWidth: 0
Flags: W
HStem: -26 68<322.306 525.518> 829 73<301.943 511.905>
VStem: 33 126<242.136 661.124> 651 150<224.784 666.259>
LayerCount: 3
Fore
SplineSet
33 459 m 0
 33 706 217 902 408 902 c 0
 664 902 801 677 801 449 c 0
 801 196 646 -26 411 -26 c 0
 188 -26 33 155 33 459 c 0
159 463 m 0
 159 279 254 42 424 42 c 0
 610 42 651 290 651 435 c 0
 651 699 533 829 409 829 c 0
 260 829 159 649 159 463 c 0
EndSplineSet
Validated: 1
EndChar

StartChar: one.denom
Encoding: 65561 -1 108
Width: 538
VWidth: 0
Flags: W
HStem: 0 59<36 194.201 330.738 517> 804 59<48 195.289>
VStem: 197 130<63.1647 801.518>
LayerCount: 3
Fore
SplineSet
36 0 m 1
 36 59 l 1
 170 62 197 50 197 116 c 2
 197 749 l 2
 197 798 188 804 130 804 c 2
 46 804 l 1
 48 863 l 1
 227 863 l 2
 288 863 294 894 311 921 c 1
 340 920 l 1
 340 920 327 729 327 594 c 2
 327 116 l 2
 327 52 356 62 517 59 c 1
 517 0 l 1
 36 0 l 1
EndSplineSet
Validated: 1
EndChar

StartChar: two.denom
Encoding: 65562 -1 109
Width: 819
VWidth: 0
Flags: W
HStem: 0 77<255.009 626.744> 809 89<212.051 464.279>
VStem: 522 169<492.231 753.323>
LayerCount: 3
Fore
SplineSet
98 12 m 0
 98 38 522 366 522 629 c 0
 522 784 392 809 341 809 c 0
 181 809 180 736 146 736 c 0
 134 736 130 743 130 753 c 0
 130 817 236 898 398 898 c 0
 583 898 691 785 691 639 c 0
 691 384 255 106 255 83 c 0
 255 78 268 77 284 77 c 0
 584 77 711 147 739 147 c 0
 747 147 752 144 752 132 c 0
 752 122 730 19 714 9 c 0
 709 5 714 0 644 0 c 2
 135 0 l 2
 119 0 98 2 98 12 c 0
EndSplineSet
Validated: 1
EndChar

StartChar: three.denom
Encoding: 65563 -1 110
Width: 752
VWidth: 0
Flags: W
HStem: -23 72<123.962 441.635> 814 88<178.62 408.722>
VStem: 453 161<607.84 771.546> 530 160<121.375 359.601>
LayerCount: 3
Fore
SplineSet
46 78 m 0xd0
 46 98 64 101 72 101 c 0
 103 101 149 49 300 49 c 0
 493 49 530 179 530 249 c 0xd0
 530 335 444 435 324 454 c 0
 275 462 243 456 243 479 c 0
 243 505 271 505 312 514 c 0
 438 541 453 644 453 682 c 0
 453 733 401 814 299 814 c 0
 168 814 150 745 115 745 c 0
 103 745 97 755 97 769 c 0
 97 797 173 902 354 902 c 0
 483 902 614 839 614 719 c 0xe0
 614 554 376 495 376 495 c 1
 376 495 690 462 690 248 c 0
 690 60 505 -23 320 -23 c 0
 177 -23 46 31 46 78 c 0xd0
EndSplineSet
Validated: 1
EndChar

StartChar: four.denom
Encoding: 65564 -1 111
Width: 838
VWidth: 0
Flags: W
HStem: -20 21G<518 648> 245 115<226 518 648 781>
VStem: 518 130<-20 245 360 699>
LayerCount: 3
Fore
SplineSet
63 256 m 0
 63 295 168 363 613 894 c 0
 623 906 631 910 636 910 c 0
 646 910 648 893 648 875 c 2
 648 360 l 9
 813 360 l 25
 781 245 l 25
 648 245 l 25
 648 -20 l 25
 518 -20 l 25
 518 245 l 17
 84 245 l 2
 73 245 63 246 63 256 c 0
226 360 m 9
 518 360 l 25
 518 699 l 17
 226 360 l 9
EndSplineSet
Validated: 1
EndChar

StartChar: five.denom
Encoding: 65565 -1 112
Width: 731
VWidth: 0
Flags: W
HStem: -17 68<110.135 388.675> 537 345<107 318.845> 537 61<175.961 350.703> 793 83<186.716 495.241>
VStem: 99 76<598 790.071> 513 156<164.689 426.205>
LayerCount: 3
Fore
SplineSet
36 86 m 0xbc
 36 99 50 103 51 103 c 0
 97 103 68 51 271 51 c 0
 417 51 513 170 513 294 c 0
 513 489 299 537 180 537 c 0
 159 537 129 535 107 532 c 1
 101 700 99 775 99 833 c 0
 99 875 100 882 122 882 c 0xcc
 161 882 272 876 342 876 c 0
 389 876 439 878 498 886 c 0
 522 890 524 940 524 940 c 1
 568 937 l 1
 551 808 l 2
 547 776 539 763 519 763 c 0
 460 763 247 793 227 793 c 0
 191 793 175 744 175 638 c 0
 175 598 180 598 209 598 c 0
 245 598 265 604 309 604 c 0
 487 604 669 511 669 310 c 0
 669 204 573 -17 287 -17 c 0
 88 -17 36 70 36 86 c 0xbc
EndSplineSet
Validated: 1
EndChar

StartChar: six.denom
Encoding: 65566 -1 113
Width: 831
VWidth: 0
Flags: W
HStem: -20 65<355.964 547.926> 477 95<310.059 537.739> 843 68<461.926 691.312>
VStem: 73 155<176.842 506.348> 628 135<133.755 383.073>
LayerCount: 3
Fore
SplineSet
73 391 m 0
 73 678 315 911 567 911 c 0
 593 911 710 890 710 852 c 0
 710 838 698 831 688 831 c 0
 675 831 647 843 607 843 c 0
 552 843 498 828 451 805 c 0
 232 698 213 444 201 417 c 1
 267 530 385 572 451 572 c 0
 747 572 763 318 763 301 c 0
 763 94 599 -20 430 -20 c 0
 198 -20 73 163 73 391 c 0
228 321 m 0
 228 177.636320718 336.168713568 45 454 45 c 0
 538.99550395 45 628 118.982345499 628 239 c 0
 628 386 524 477 407 477 c 0
 310 477 228 398 228 321 c 0
EndSplineSet
Validated: 1
EndChar

StartChar: seven.denom
Encoding: 65567 -1 114
Width: 734
VWidth: 0
Flags: W
HStem: -14 21G<269 405.5> 706 180<93.1025 243.043> 782 104<183.172 551.988>
VStem: 552 102<631.53 877>
LayerCount: 3
Fore
SplineSet
76 741 m 0xd0
 76 770 84 823 93 874 c 0
 95 886 109 886 125 886 c 2xd0
 628 886 l 2
 650 886 654 886 654 868 c 0
 654 742 515 298 497 238 c 1
 438 56 l 2
 417 -7 417 -14 394 -14 c 2
 278 -14 l 2
 260 -14 250 -6 250 4 c 0
 250 24 335 86 463 435 c 1
 522 592 552 729 552 762 c 0
 552 779 536 782 515 782 c 0xb0
 462 782 319 765 235 749 c 0
 137 731 106 706 94 706 c 0
 82 706 76 712 76 741 c 0xd0
EndSplineSet
Validated: 1
EndChar

StartChar: eight.denom
Encoding: 65568 -1 115
Width: 772
VWidth: 0
Flags: W
HStem: -24 60<267.837 488.089> 851 63<275.18 477.111>
VStem: 57 113<106.577 322.192> 100 132<611.833 816.759> 548 96<593.228 797.958> 557 138<99.5575 307.159>
LayerCount: 3
Fore
SplineSet
57 200 m 0xe4
 57 370 269 439 291 452 c 1
 182 506 100 585 100 691 c 0
 100 828 226 914 388 914 c 0
 518 914 644 825 644 716 c 0xd8
 644 559 463 495 463 495 c 1
 502 476 695 393 695 240 c 0
 695 100 579 -24 376 -24 c 0
 164 -24 57 85 57 200 c 0xe4
170 219 m 0xe4
 170 119 264 36 378 36 c 0
 380 36 382 36 384 36 c 0
 520 39 557 132 557 194 c 0
 557 315 449 362 326 432 c 1
 303 420 170 340 170 219 c 0xe4
232 717 m 0xd8
 232 582 417 520 418 519 c 1
 418 519 548 567 548 687 c 0
 548 802 453 851 371 851 c 0
 266 851 232 778 232 717 c 0xd8
EndSplineSet
Validated: 1
Layer: 2
SplineSet
301 458 m 5xe4
 192 512 110 598 110 691 c 4
 110 828 226 914 388 914 c 4
 518 914 644 825 644 716 c 4xd8
 644 559 448 483 448 483 c 5
 487 464 690 385 690 240 c 4
 690 100 561 -21 376 -21 c 4
 205 -21 62 68 62 212 c 4
 62 367 279 446 301 458 c 5xe4
387 47 m 4
 490 47 570 121 570 215 c 4
 570 317 480 356 336 438 c 5
 336 438 172 352 172 227 c 4xe4
 172 114 288 47 387 47 c 4
398 507 m 5
 398 507 538 567 538 687 c 4
 538 773 453 846 371 846 c 4
 256 846 228 774 228 710 c 4xd8
 228 594 398 507 398 507 c 5
EndSplineSet
EndChar

StartChar: nine.denom
Encoding: 65569 -1 116
Width: 785
VWidth: 0
Flags: W
HStem: -7 81<129.964 425.161> 311 93<280.936 500.245> 859 58<277.027 443.3>
VStem: 55 137<495.714 763.174> 575 157<348.458 707.1> 597 135<252.901 581.232>
LayerCount: 3
Fore
SplineSet
55 598 m 0xf4
 55 758 172 917 365 917 c 0
 584 917 732 748 732 488 c 0xf8
 732 124 489 -7 295 -7 c 0
 149 -7 61 60 61 110 c 0
 61 126 69 134 82 134 c 0
 123 134 145 74 275 74 c 0
 509 74 597 294 597 423 c 0
 597 434 596 441 596 441 c 1
 596 441 516 311 327 311 c 0
 163.8 311 55 444.5 55 598 c 0xf4
192 644 m 0
 192 584 224 404 417 404 c 0
 522 404 575 466 575 541 c 0
 575 700 480 859 357 859 c 0
 302 859 192 812 192 644 c 0
EndSplineSet
Validated: 1
EndChar

StartChar: zero.sub
Encoding: 65570 -1 117
Width: 841
VWidth: 0
Flags: W
HStem: -226 68<322.306 525.518> 629 73<301.943 511.905>
VStem: 33 126<42.1356 461.124> 651 150<24.7836 466.259>
LayerCount: 3
Fore
SplineSet
33 259 m 0
 33 506 217 702 408 702 c 0
 664 702 801 477 801 249 c 0
 801 -4 646 -226 411 -226 c 0
 188 -226 33 -45 33 259 c 0
159 263 m 0
 159 79 254 -158 424 -158 c 0
 610 -158 651 90 651 235 c 0
 651 499 533 629 409 629 c 0
 260 629 159 449 159 263 c 0
EndSplineSet
Validated: 1
EndChar

StartChar: one.sub
Encoding: 65571 -1 118
Width: 538
VWidth: 0
Flags: W
HStem: -200 59<36 194.201 330.738 517> 604 59<48 195.289>
VStem: 197 130<-136.835 601.518>
LayerCount: 3
Fore
SplineSet
36 -141 m 1
 170 -138 197 -150 197 -84 c 2
 197 549 l 2
 197 598 188 604 130 604 c 2
 46 604 l 1
 48 663 l 1
 227 663 l 2
 288 663 294 694 311 721 c 1
 340 720 l 1
 340 720 327 529 327 394 c 2
 327 -84 l 2
 327 -148 356 -138 517 -141 c 1
 517 -200 l 1
 36 -200 l 1
 36 -141 l 1
EndSplineSet
Validated: 1
EndChar

StartChar: two.sub
Encoding: 65572 -1 119
Width: 819
VWidth: 0
Flags: W
HStem: -200 77<255.009 626.744> 609 89<212.051 464.279>
VStem: 522 169<292.231 553.323>
LayerCount: 3
Fore
SplineSet
98 -188 m 0
 98 -162 522 166 522 429 c 0
 522 584 392 609 341 609 c 0
 181 609 180 536 146 536 c 0
 134 536 130 543 130 553 c 0
 130 617 236 698 398 698 c 0
 583 698 691 585 691 439 c 0
 691 184 255 -94 255 -117 c 0
 255 -122 268 -123 284 -123 c 0
 584 -123 711 -53 739 -53 c 0
 747 -53 752 -56 752 -68 c 0
 752 -78 730 -181 714 -191 c 0
 709 -195 714 -200 644 -200 c 2
 135 -200 l 2
 119 -200 98 -198 98 -188 c 0
EndSplineSet
Validated: 1
EndChar

StartChar: three.sub
Encoding: 65573 -1 120
Width: 752
VWidth: 0
Flags: W
HStem: -223 72<123.962 441.635> 614 88<178.62 408.722>
VStem: 453 161<407.84 571.546> 530 160<-78.6247 159.601>
LayerCount: 3
Fore
SplineSet
46 -122 m 0xd0
 46 -102 64 -99 72 -99 c 0
 103 -99 149 -151 300 -151 c 0
 493 -151 530 -21 530 49 c 0xd0
 530 135 444 235 324 254 c 0
 275 262 243 256 243 279 c 0
 243 305 271 305 312 314 c 0
 438 341 453 444 453 482 c 0
 453 533 401 614 299 614 c 0
 168 614 150 545 115 545 c 0
 103 545 97 555 97 569 c 0
 97 597 173 702 354 702 c 0
 483 702 614 639 614 519 c 0xe0
 614 354 376 295 376 295 c 1
 376 295 690 262 690 48 c 0
 690 -140 505 -223 320 -223 c 0
 177 -223 46 -169 46 -122 c 0xd0
EndSplineSet
Validated: 1
EndChar

StartChar: four.sub
Encoding: 65574 -1 121
Width: 838
VWidth: 0
Flags: W
HStem: 45 115<226 518 648 781>
VStem: 518 130<-220 45 160 499>
LayerCount: 3
Fore
SplineSet
63 56 m 0
 63 95 168 163 613 694 c 0
 623 706 631 710 636 710 c 0
 646 710 648 693 648 675 c 2
 648 160 l 9
 813 160 l 25
 781 45 l 25
 648 45 l 25
 648 -220 l 25
 518 -220 l 25
 518 45 l 17
 84 45 l 2
 73 45 63 46 63 56 c 0
226 160 m 9
 518 160 l 25
 518 499 l 17
 226 160 l 9
EndSplineSet
Validated: 1
EndChar

StartChar: five.sub
Encoding: 65575 -1 122
Width: 731
VWidth: 0
Flags: W
HStem: -217 68<110.135 388.675> 337 345<107 318.845> 337 61<175.961 350.703> 593 83<186.716 495.241>
VStem: 99 76<398 590.071> 513 156<-35.3111 226.205>
LayerCount: 3
Fore
SplineSet
36 -114 m 0xbc
 36 -101 50 -97 51 -97 c 0
 97 -97 68 -149 271 -149 c 0
 417 -149 513 -30 513 94 c 0
 513 289 299 337 180 337 c 0
 159 337 129 335 107 332 c 1
 101 500 99 575 99 633 c 0
 99 675 100 682 122 682 c 0xcc
 161 682 272 676 342 676 c 0
 389 676 439 678 498 686 c 0
 522 690 524 740 524 740 c 1
 568 737 l 1
 551 608 l 2
 547 576 539 563 519 563 c 0
 460 563 247 593 227 593 c 0
 191 593 175 544 175 438 c 0
 175 398 180 398 209 398 c 0
 245 398 265 404 309 404 c 0
 487 404 669 311 669 110 c 0
 669 4 573 -217 287 -217 c 0
 88 -217 36 -130 36 -114 c 0xbc
EndSplineSet
Validated: 1
EndChar

StartChar: six.sub
Encoding: 65576 -1 123
Width: 831
VWidth: 0
Flags: W
HStem: -220 65<355.964 547.926> 277 95<310.059 537.739> 643 68<461.926 691.312>
VStem: 73 155<-23.1583 306.348> 628 135<-66.2447 183.073>
LayerCount: 3
Fore
SplineSet
73 191 m 0
 73 478 315 711 567 711 c 0
 593 711 710 690 710 652 c 0
 710 638 698 631 688 631 c 0
 675 631 647 643 607 643 c 0
 552 643 498 628 451 605 c 0
 232 498 213 244 201 217 c 1
 267 330 385 372 451 372 c 0
 747 372 763 118 763 101 c 0
 763 -106 599 -220 430 -220 c 0
 198 -220 73 -37 73 191 c 0
228 121 m 0
 228 -22.36328125 336.168945312 -155 454 -155 c 0
 538.995117188 -155 628 -81.017578125 628 39 c 0
 628 186 524 277 407 277 c 0
 310 277 228 198 228 121 c 0
EndSplineSet
Validated: 1
EndChar

StartChar: seven.sub
Encoding: 65577 -1 124
Width: 734
VWidth: 0
Flags: W
HStem: 506 180<93.1025 243.043> 582 104<183.172 551.988>
VStem: 552 102<431.53 677>
LayerCount: 3
Fore
SplineSet
76 541 m 0xa0
 76 570 84 623 93 674 c 0
 95 686 109 686 125 686 c 2xa0
 628 686 l 2
 650 686 654 686 654 668 c 0
 654 542 515 98 497 38 c 1
 438 -144 l 2
 417 -207 417 -214 394 -214 c 2
 278 -214 l 2
 260 -214 250 -206 250 -196 c 0
 250 -176 335 -114 463 235 c 1
 522 392 552 529 552 562 c 0
 552 579 536 582 515 582 c 0x60
 462 582 319 565 235 549 c 0
 137 531 106 506 94 506 c 0
 82 506 76 512 76 541 c 0xa0
EndSplineSet
Validated: 1
EndChar

StartChar: eight.sub
Encoding: 65578 -1 125
Width: 772
VWidth: 0
Flags: W
HStem: -224 60<267.837 488.089> 651 63<275.18 477.111>
VStem: 57 113<-93.423 122.192> 100 132<411.833 616.759> 548 96<393.228 597.958> 557 138<-100.443 107.159>
LayerCount: 3
Fore
SplineSet
57 0 m 0xe4
 57 170 269 239 291 252 c 1
 182 306 100 385 100 491 c 0
 100 628 226 714 388 714 c 0
 518 714 644 625 644 516 c 0xd8
 644 359 463 295 463 295 c 1
 502 276 695 193 695 40 c 0
 695 -100 579 -224 376 -224 c 0
 164 -224 57 -115 57 0 c 0xe4
170 19 m 0xe4
 170 -81 264 -164 378 -164 c 0
 380 -164 382 -164 384 -164 c 0
 520 -161 557 -68 557 -6 c 0
 557 115 449 162 326 232 c 1
 303 220 170 140 170 19 c 0xe4
232 517 m 0xd8
 232 382 417 320 418 319 c 1
 418 319 548 367 548 487 c 0
 548 602 453 651 371 651 c 0
 266 651 232 578 232 517 c 0xd8
EndSplineSet
Validated: 1
EndChar

StartChar: nine.sub
Encoding: 65579 -1 126
Width: 785
VWidth: 0
Flags: W
HStem: -207 81<129.964 425.161> 111 93<280.936 500.245> 659 58<277.027 443.3>
VStem: 55 137<295.714 563.174> 575 157<148.458 507.1> 597 135<52.9012 381.232>
LayerCount: 3
Fore
SplineSet
55 398 m 0xf4
 55 558 172 717 365 717 c 0
 584 717 732 548 732 288 c 0xf8
 732 -76 489 -207 295 -207 c 0
 149 -207 61 -140 61 -90 c 0
 61 -74 69 -66 82 -66 c 0
 123 -66 145 -126 275 -126 c 0
 509 -126 597 94 597 223 c 0
 597 234 596 241 596 241 c 1
 596 241 516 111 327 111 c 0
 163.799804688 111 55 244.5 55 398 c 0xf4
192 444 m 0
 192 384 224 204 417 204 c 0
 522 204 575 266 575 341 c 0
 575 500 480 659 357 659 c 0
 302 659 192 612 192 444 c 0
EndSplineSet
Validated: 1
EndChar

StartChar: zero.sup
Encoding: 65580 -1 127
Width: 841
VWidth: 0
Flags: W
HStem: 574 68<322.306 525.518> 1429 73<301.943 511.905>
VStem: 33 126<842.136 1261.12> 651 150<824.784 1266.26>
LayerCount: 3
Fore
SplineSet
33 1059 m 0
 33 1306 217 1502 408 1502 c 0
 664 1502 801 1277 801 1049 c 0
 801 796 646 574 411 574 c 0
 188 574 33 755 33 1059 c 0
159 1063 m 0
 159 879 254 642 424 642 c 0
 610 642 651 890 651 1035 c 0
 651 1299 533 1429 409 1429 c 0
 260 1429 159 1249 159 1063 c 0
EndSplineSet
Validated: 1
EndChar

StartChar: one.sup
Encoding: 65581 -1 128
Width: 538
VWidth: 0
Flags: W
HStem: 600 59<36 194.201 330.738 517> 1404 59<48 195.289>
VStem: 197 130<663.165 1401.52>
LayerCount: 3
Fore
SplineSet
36 600 m 1
 36 659 l 1
 170 662 197 650 197 716 c 2
 197 1349 l 2
 197 1398 188 1404 130 1404 c 2
 46 1404 l 1
 48 1463 l 1
 227 1463 l 2
 288 1463 294 1494 311 1521 c 1
 340 1520 l 1
 340 1520 327 1329 327 1194 c 2
 327 716 l 2
 327 652 356 662 517 659 c 1
 517 600 l 1
 36 600 l 1
EndSplineSet
Validated: 1
EndChar

StartChar: two.sup
Encoding: 65582 -1 129
Width: 819
VWidth: 0
Flags: W
HStem: 600 77<255.009 626.744> 1409 89<212.051 464.279>
VStem: 522 169<1092.23 1353.32>
LayerCount: 3
Fore
SplineSet
98 612 m 0
 98 638 522 966 522 1229 c 0
 522 1384 392 1409 341 1409 c 0
 181 1409 180 1336 146 1336 c 0
 134 1336 130 1343 130 1353 c 0
 130 1417 236 1498 398 1498 c 0
 583 1498 691 1385 691 1239 c 0
 691 984 255 706 255 683 c 0
 255 678 268 677 284 677 c 0
 584 677 711 747 739 747 c 0
 747 747 752 744 752 732 c 0
 752 722 730 619 714 609 c 0
 709 605 714 600 644 600 c 2
 135 600 l 2
 119 600 98 602 98 612 c 0
EndSplineSet
Validated: 1
EndChar

StartChar: three.sup
Encoding: 65583 -1 130
Width: 752
VWidth: 0
Flags: W
HStem: 577 72<123.962 441.635> 1414 88<178.62 408.722>
VStem: 453 161<1207.84 1371.55> 530 160<721.375 959.601>
LayerCount: 3
Fore
SplineSet
46 678 m 0xd0
 46 698 64 701 72 701 c 0
 103 701 149 649 300 649 c 0
 493 649 530 779 530 849 c 0xd0
 530 935 444 1035 324 1054 c 0
 275 1062 243 1056 243 1079 c 0
 243 1105 271 1105 312 1114 c 0
 438 1141 453 1244 453 1282 c 0
 453 1333 401 1414 299 1414 c 0
 168 1414 150 1345 115 1345 c 0
 103 1345 97 1355 97 1369 c 0
 97 1397 173 1502 354 1502 c 0
 483 1502 614 1439 614 1319 c 0xe0
 614 1154 376 1095 376 1095 c 1
 376 1095 690 1062 690 848 c 0
 690 660 505 577 320 577 c 0
 177 577 46 631 46 678 c 0xd0
EndSplineSet
Validated: 1
EndChar

StartChar: four.sup
Encoding: 65584 -1 131
Width: 838
VWidth: 0
Flags: W
HStem: 845 115<226 518 648 781>
VStem: 518 130<580 845 960 1299>
LayerCount: 3
Fore
SplineSet
63 856 m 0
 63 895 168 963 613 1494 c 0
 623 1506 631 1510 636 1510 c 0
 646 1510 648 1493 648 1475 c 2
 648 960 l 9
 813 960 l 25
 781 845 l 25
 648 845 l 25
 648 580 l 25
 518 580 l 25
 518 845 l 17
 84 845 l 2
 73 845 63 846 63 856 c 0
226 960 m 9
 518 960 l 25
 518 1299 l 17
 226 960 l 9
EndSplineSet
Validated: 1
EndChar

StartChar: five.sup
Encoding: 65585 -1 132
Width: 731
VWidth: 0
Flags: W
HStem: 583 68<110.135 388.675> 1137 345<107 318.845> 1137 61<175.961 350.703> 1393 83<186.716 495.241>
VStem: 99 76<1198 1390.07> 513 156<764.689 1026.2>
LayerCount: 3
Fore
SplineSet
36 686 m 0xbc
 36 699 50 703 51 703 c 0
 97 703 68 651 271 651 c 0
 417 651 513 770 513 894 c 0
 513 1089 299 1137 180 1137 c 0
 159 1137 129 1135 107 1132 c 1
 101 1300 99 1375 99 1433 c 0
 99 1475 100 1482 122 1482 c 0xcc
 161 1482 272 1476 342 1476 c 0
 389 1476 439 1478 498 1486 c 0
 522 1490 524 1540 524 1540 c 1
 568 1537 l 1
 551 1408 l 2
 547 1376 539 1363 519 1363 c 0
 460 1363 247 1393 227 1393 c 0
 191 1393 175 1344 175 1238 c 0
 175 1198 180 1198 209 1198 c 0
 245 1198 265 1204 309 1204 c 0
 487 1204 669 1111 669 910 c 0
 669 804 573 583 287 583 c 0
 88 583 36 670 36 686 c 0xbc
EndSplineSet
Validated: 1
EndChar

StartChar: six.sup
Encoding: 65586 -1 133
Width: 831
VWidth: 0
Flags: W
HStem: 580 65<355.964 547.926> 1077 95<310.059 537.739> 1443 68<461.926 691.312>
VStem: 73 155<776.842 1106.35> 628 135<733.755 983.073>
LayerCount: 3
Fore
SplineSet
73 991 m 0
 73 1278 315 1511 567 1511 c 0
 593 1511 710 1490 710 1452 c 0
 710 1438 698 1431 688 1431 c 0
 675 1431 647 1443 607 1443 c 0
 552 1443 498 1428 451 1405 c 0
 232 1298 213 1044 201 1017 c 1
 267 1130 385 1172 451 1172 c 0
 747 1172 763 918 763 901 c 0
 763 694 599 580 430 580 c 0
 198 580 73 763 73 991 c 0
228 921 m 0
 228 777.63671875 336.168945312 645 454 645 c 0
 538.995117188 645 628 718.982421875 628 839 c 0
 628 986 524 1077 407 1077 c 0
 310 1077 228 998 228 921 c 0
EndSplineSet
Validated: 1
EndChar

StartChar: seven.sup
Encoding: 65587 -1 134
Width: 734
VWidth: 0
Flags: W
HStem: 1306 180<93.1025 243.043> 1382 104<183.172 551.988>
VStem: 552 102<1231.53 1477>
LayerCount: 3
Fore
SplineSet
76 1341 m 0xa0
 76 1370 84 1423 93 1474 c 0
 95 1486 109 1486 125 1486 c 2xa0
 628 1486 l 2
 650 1486 654 1486 654 1468 c 0
 654 1342 515 898 497 838 c 1
 438 656 l 2
 417 593 417 586 394 586 c 2
 278 586 l 2
 260 586 250 594 250 604 c 0
 250 624 335 686 463 1035 c 1
 522 1192 552 1329 552 1362 c 0
 552 1379 536 1382 515 1382 c 0x60
 462 1382 319 1365 235 1349 c 0
 137 1331 106 1306 94 1306 c 0
 82 1306 76 1312 76 1341 c 0xa0
EndSplineSet
Validated: 1
EndChar

StartChar: eight.sup
Encoding: 65588 -1 135
Width: 772
VWidth: 0
Flags: W
HStem: 576 60<267.837 488.089> 1451 63<275.18 477.111>
VStem: 57 113<706.577 922.192> 100 132<1211.83 1416.76> 548 96<1193.23 1397.96> 557 138<699.557 907.159>
LayerCount: 3
Fore
SplineSet
57 800 m 0xe4
 57 970 269 1039 291 1052 c 1
 182 1106 100 1185 100 1291 c 0
 100 1428 226 1514 388 1514 c 0
 518 1514 644 1425 644 1316 c 0xd8
 644 1159 463 1095 463 1095 c 1
 502 1076 695 993 695 840 c 0
 695 700 579 576 376 576 c 0
 164 576 57 685 57 800 c 0xe4
170 819 m 0xe4
 170 719 264 636 378 636 c 0
 380 636 382 636 384 636 c 0
 520 639 557 732 557 794 c 0
 557 915 449 962 326 1032 c 1
 303 1020 170 940 170 819 c 0xe4
232 1317 m 0xd8
 232 1182 417 1120 418 1119 c 1
 418 1119 548 1167 548 1287 c 0
 548 1402 453 1451 371 1451 c 0
 266 1451 232 1378 232 1317 c 0xd8
EndSplineSet
Validated: 1
EndChar

StartChar: nine.sup
Encoding: 65589 -1 136
Width: 785
VWidth: 0
Flags: W
HStem: 593 81<129.964 425.161> 911 93<280.936 500.245> 1459 58<277.027 443.3>
VStem: 55 137<1095.71 1363.17> 575 157<948.458 1307.1> 597 135<852.901 1181.23>
LayerCount: 3
Fore
SplineSet
55 1198 m 0xf4
 55 1358 172 1517 365 1517 c 0
 584 1517 732 1348 732 1088 c 0xf8
 732 724 489 593 295 593 c 0
 149 593 61 660 61 710 c 0
 61 726 69 734 82 734 c 0
 123 734 145 674 275 674 c 0
 509 674 597 894 597 1023 c 0
 597 1034 596 1041 596 1041 c 1
 596 1041 516 911 327 911 c 0
 163.799804688 911 55 1044.5 55 1198 c 0xf4
192 1244 m 0
 192 1184 224 1004 417 1004 c 0
 522 1004 575 1066 575 1141 c 0
 575 1300 480 1459 357 1459 c 0
 302 1459 192 1412 192 1244 c 0
EndSplineSet
Validated: 1
EndChar

StartChar: slash
Encoding: 47 47 137
Width: 851
VWidth: 1000
Flags: W
LayerCount: 3
Fore
SplineSet
11 -473 m 1
 709 1445 l 1
 804 1445 l 1
 106 -473 l 1
 11 -473 l 1
EndSplineSet
Validated: 1
Layer: 2
SplineSet
-10 -530 m 5
 723 1484 l 5
 818 1484 l 5
 85 -530 l 5
 -10 -530 l 5
EndSplineSet
AlternateSubs2: "'aalt' Access All Alternates lookup 0 subtable" fraction
AlternateSubs2: "'aalt' Access All Alternates in Latin lookup 0 subtable" fraction
Substitution2: "numerators subtable" fraction
EndChar

StartChar: fraction
Encoding: 8260 8260 138
Width: 851
VWidth: 1000
Flags: W
HStem: 1393.63 20G<960.519 1003.09>
LayerCount: 3
Fore
SplineSet
-83.1513671875 -96.880859375 m 1
 974.5234375 1413.63476562 l 1
 1044.15136719 1364.88085938 l 1
 -13.5234375 -145.634765625 l 1
 -83.1513671875 -96.880859375 l 1
EndSplineSet
Validated: 1
EndChar

StartChar: zero.lining
Encoding: 65590 -1 139
Width: 1064
VWidth: 0
Flags: W
HStem: -21 81<410.844 663.415> 1216 81<397.922 652.916>
VStem: 49 136<376.414 914.027> 868 157<375.195 930.299>
LayerCount: 3
Fore
SplineSet
49 668 m 0
 49 993 272 1297 523 1297 c 0
 859 1297 1025 977 1025 653 c 0
 1025 319 849 -21 519 -21 c 0
 167 -21 49 309 49 668 c 0
185 675 m 0
 185 376 306 60 537 60 c 0
 754 60 868 346 868 633 c 0
 868 1023 697 1216 525 1216 c 0
 314 1216 185 950 185 675 c 0
EndSplineSet
Validated: 1
EndChar

StartChar: one.lining
Encoding: 65591 -1 140
Width: 688
VWidth: 0
Flags: W
HStem: 0 65<48 259.225 412.967 660> 1165 65<64 258.626>
VStem: 263 144<72.6596 1157.83>
LayerCount: 3
Fore
SplineSet
48 0 m 1
 48 65 l 1
 243 68 263 55 263 134 c 2
 263 1084 l 2
 263 1157 252 1165 174 1165 c 2
 62 1165 l 1
 64 1230 l 1
 285 1230 l 2
 361 1230 368 1275 389 1313 c 1
 424 1312 l 1
 424 1312 407 1035 407 840 c 2
 407 133 l 2
 407 56 446 70 660 65 c 1
 660 0 l 1
 48 0 l 1
EndSplineSet
Validated: 1
Layer: 2
SplineSet
424 1357 m 5
 424 1357 407 1080 407 885 c 6
 407 133 l 6
 407 56 446 70 660 65 c 5
 660 0 l 5
 48 0 l 5
 48 65 l 5
 243 68 263 55 263 134 c 6
 263 1129 l 6
 263 1202 252 1211 174 1211 c 4
 140 1211 62 1210 62 1210 c 5
 65 1275 l 5
 163 1277 243 1278 285 1278 c 4
 361 1278 368 1320 389 1358 c 5
 424 1357 l 5
EndSplineSet
EndChar

StartChar: two.lining
Encoding: 65592 -1 141
Width: 1058
VWidth: 0
Flags: W
HStem: 0 86<286.012 725.027> 1183 99<300.74 593.24>
VStem: 695 176<769.032 1081.47>
LayerCount: 3
Fore
SplineSet
130 17 m 0
 130 42 214 103 372 288 c 0
 521 463 695 711 695 920 c 0
 695 1147 522 1183 454 1183 c 0
 241 1183 240 1074 195 1074 c 0
 179 1074 173 1083 173 1096 c 0
 173 1178 308 1282 514 1282 c 0
 730 1282 871 1122 871 949 c 0
 871 790 739 576 603 417 c 0
 452 241 286 114 286 95 c 0
 286 87 303 86 323 86 c 0
 704 86 915 191 951 191 c 0
 961 191 967 187 967 172 c 0
 967 159 940 25 919 12 c 0
 912 7 919 0 830 0 c 2
 178 0 l 2
 158 0 130 2 130 17 c 0
EndSplineSet
Validated: 1
EndChar

StartChar: three.lining
Encoding: 65593 -1 142
Width: 968
VWidth: 0
Flags: W
HStem: -26 86<172.923 578.471> 1182 120<263.271 550.032>
VStem: 629 172<886.11 1105.59> 720 177<197.218 489.2>
LayerCount: 3
Fore
SplineSet
62 102 m 0xd0
 62 127 85 131 96 131 c 0
 137 131 198 60 399 60 c 0
 656 60 720 248 720 352 c 0xd0
 720 481 594 630 438 659 c 0
 374 671 333 662 333 696 c 0
 333 735 371 735 427 748 c 0
 600 788 629 942 629 999 c 0
 629 1076 551 1182 410 1182 c 0
 230 1182 204 1093 156 1093 c 0
 140 1093 132 1106 132 1124 c 0
 132 1159 231 1302 465 1302 c 0
 632 1302 801 1200 801 1032 c 0xe0
 801 802 516 719 516 719 c 1
 516 719 897 660 897 364 c 0
 897 94 648 -26 412 -26 c 0
 229 -26 62 43 62 102 c 0xd0
EndSplineSet
Validated: 1
EndChar

StartChar: four.lining
Encoding: 65594 -1 143
Width: 1088
VWidth: 0
Flags: W
HStem: 328 127<235 690 834 1012>
VStem: 690 144<-50 328 455 1004>
LayerCount: 3
Fore
SplineSet
57 343 m 0
 57 396 218 524 790 1254 c 0
 803 1270 812 1277 819 1277 c 0
 832 1277 834 1253 834 1227 c 2
 834 455 l 9
 1054 455 l 25
 1012 328 l 25
 834 328 l 25
 834 -50 l 25
 690 -82 l 25
 690 328 l 17
 85 328 l 2
 71 328 57 329 57 343 c 0
235 455 m 9
 690 455 l 25
 690 1004 l 17
 235 455 l 9
EndSplineSet
Validated: 1
EndChar

StartChar: five.lining
Encoding: 65595 -1 144
Width: 960
VWidth: 0
Flags: W
HStem: -19 75<130.579 492.62> 779 477<159 436.229> 779 68<220.55 441.213> 1157 92<242.835 656.492>
VStem: 154 65<847.528 1131.35> 702 168<249.849 584.892>
LayerCount: 3
Fore
SplineSet
21 112 m 0xbc
 21 129 41 133 42 133 c 0
 105 133 66 56 344 56 c 0
 544 56 702 232 702 417 c 0
 702 707 412 779 248 779 c 0
 219 779 189 777 159 774 c 1
 154 927 l 2
 146 1193 133 1165 133 1229 c 0
 133 1250 142 1256 163 1256 c 0xcc
 216 1256 369 1249 465 1249 c 0
 530 1249 598 1252 679 1264 c 0
 712 1269 715 1341 715 1341 c 1
 764 1336 l 1
 740 1168 l 2
 734 1126 723 1110 696 1110 c 0
 615 1110 319 1157 292 1157 c 0
 242 1157 219 1079 219 910 c 0
 219 847 233 847 271 847 c 0
 319 847 346 854 404 854 c 0
 672 854 870 722 870 440 c 0
 870 291 770 -19 350 -19 c 0
 89 -19 21 92 21 112 c 0xbc
EndSplineSet
Validated: 1
EndChar

StartChar: six.lining
Encoding: 65596 -1 145
Width: 1040
VWidth: 0
Flags: W
HStem: -22 72<461.366 672.451> 704 106<403.693 640.781> 1224 76<595.709 865.315>
VStem: 97 183<284.195 709.693> 787 161<215.499 545.678>
LayerCount: 3
Fore
SplineSet
97 562 m 0
 97 970 399 1300 712 1300 c 0
 744 1300 889 1276 889 1234 c 0
 889 1218 874 1211 861 1211 c 0
 844 1211 809 1224 758 1224 c 0
 687 1224 618 1202 558 1169 c 0
 278 1015 266 651 250 613 c 1
 333 756 470 810 554 810 c 0
 928 810 948 453 948 429 c 0
 948 138 745 -22 537 -22 c 0
 251 -22 97 238 97 562 c 0
280 468 m 0
 280 234 426 50 567 50 c 0
 673 50 787 150 787 343 c 0
 787 565 662 704 506 704 c 0
 376 704 280 585 280 468 c 0
EndSplineSet
Validated: 1
EndChar

StartChar: seven.lining
Encoding: 65597 -1 146
Width: 960
VWidth: 0
Flags: W
HStem: -16 21G<364.5 532.5> 1065 200<124.151 289.641> 1150 115<268.254 747.985>
VStem: 748 92<946.953 1252.5>
LayerCount: 3
Fore
SplineSet
102 1104 m 0xd0
 102 1136 112 1195 124 1252 c 0
 127 1265 144 1265 165 1265 c 2xd0
 805 1265 l 2
 834 1265 840 1265 840 1240 c 0
 840 1061 674 428 651 343 c 1
 575 84 l 2
 548 -6 547 -16 518 -16 c 2
 376 -16 l 2
 353 -16 340 -4 340 10 c 0
 340 40 452 131 623 642 c 0
 701 872 748 1072 748 1121 c 0
 748 1146 727 1150 699 1150 c 0xb0
 629 1150 425 1131 313 1113 c 0
 183 1093 141 1065 125 1065 c 0
 109 1065 102 1072 102 1104 c 0xd0
EndSplineSet
Validated: 1
EndChar

StartChar: eight.lining
Encoding: 65598 -1 147
Width: 1020
VWidth: 0
Flags: W
HStem: -24 76<362.187 653> 1228 76<343.363 617.06>
VStem: 82 123<183.341 451.179> 135 131<909.117 1147.82> 741 118<871.57 1119.35> 778 132<181.408 422.156>
LayerCount: 3
Fore
SplineSet
82 307 m 0xe4
 82 527 351 640 378 657 c 1
 240 734 135 856 135 988 c 0
 135 1182 292 1304 512 1304 c 0
 688 1304 859 1178 859 1024 c 0xd8
 859 802 604 693 604 693 c 1
 654 666 910 555 910 348 c 0
 910 149 740 -24 496 -24 c 0
 270 -24 82 103 82 307 c 0xe4
205 317 m 0xe4
 205 151 372 52 514 52 c 0
 662 52 778 162 778 300 c 0
 778 450 644 507 432 628 c 1
 432 628 205 501 205 317 c 0xe4
266 1028 m 0xd8
 266 857 528 729 528 729 c 1
 528 729 741 818 741 994 c 0
 741 1120 612 1228 486 1228 c 0
 310 1228 266 1122 266 1028 c 0xd8
EndSplineSet
Validated: 1
EndChar

StartChar: nine.lining
Encoding: 65599 -1 148
Width: 981
VWidth: 0
Flags: W
HStem: 7 88<180.794 509.933> 462 102<371.026 608.949> 1236 64<349.601 540.211>
VStem: 72 152<728.749 1069.26> 732 174<523.493 980.355>
LayerCount: 3
Fore
SplineSet
68 157 m 0
 68 177 78 188 94 188 c 0
 146 188 174 95 338 95 c 0
 726 95 763 618 763 618 c 1
 763 618 637 462 410 462 c 0
 140 462 72 723 72 869 c 0
 72 1108 241 1300 456 1300 c 0
 726 1300 906 1064 906 700 c 0
 906 348 727 7 372 7 c 0
 183 7 68 92 68 157 c 0
224 919 m 0
 224 831 267 564 524 564 c 0
 664 564 732 655 732 766 c 0
 732 973 609 1236 445 1236 c 0
 384 1236 329 1199 289 1146 c 0
 248 1092 224 1028 224 919 c 0
EndSplineSet
Validated: 1
EndChar

StartChar: dollar.lining
Encoding: 65600 -1 149
Width: 1024
VWidth: 0
Flags: W
HStem: -16 62<306.16 472 537 637.179> 1225 57<372.349 474 539 656.716>
VStem: 102 144<899.889 1107.97> 472 65<-360 -16 47 568 759 1225 1279.01 1456> 796 141<185.673 418.96>
LayerCount: 3
Fore
SplineSet
48 272 m 0
 48 297 61 302 71 302 c 0
 140 302 69 132 368 58 c 0
 408 48 451 46 472 46 c 1
 472 593 l 1
 357 652 102 759 102 952 c 0
 102 1254 474 1282 474 1282 c 1
 474 1456 l 1
 539 1456 l 1
 539 1282 l 1
 760 1258 745 1252 763 1252 c 0
 775 1252 822 1266 825 1266 c 0
 849 1266 846 1238 862 1129 c 0
 863 1118 868 1080 868 1075 c 2
 868 1059 l 2
 868 1048 866 1039 854 1039 c 0
 828 1039 809 1070 787 1101 c 0
 704 1217 539 1225 539 1225 c 1
 539 734 l 1
 760 619 937 566 937 354 c 0
 937 25 537 -15 537 -15 c 1
 537 -360 l 1
 472 -360 l 1
 472 -16 l 1
 472 -16 238 -14 126 36 c 0
 75 58 76 66 64 158 c 0
 57 209 48 262 48 272 c 0
246 1015 m 0
 246 864 474 759 474 759 c 1
 474 1225 l 1
 474 1225 246 1207 246 1015 c 0
537 47 m 1
 537 47 606 53 676 98 c 0
 721 127 796 205 796 299 c 0
 796 471 538 568 537 568 c 1
 537 47 l 1
EndSplineSet
Validated: 1
EndChar

StartChar: bar
Encoding: 124 124 150
Width: 851
VWidth: 1000
Flags: W
VStem: 372 90<-473 1445>
LayerCount: 3
Fore
SplineSet
372 -473 m 1
 372 1445 l 1
 462 1445 l 1
 462 -473 l 1
 372 -473 l 1
EndSplineSet
Validated: 1
EndChar

StartChar: at
Encoding: 64 64 151
Width: 1506
VWidth: 0
Flags: W
HStem: -189 83<529.432 962.879> 118 110<571.76 741.371> 531 55<690.523 822> 922 74<480.277 749.904>
VStem: 80 139<194.751 634.325> 410 145<247.428 411.573> 822 144<262.777 531 586 857.657> 1296 80<218.632 657.836>
LayerCount: 3
Fore
SplineSet
80 403 m 0
 80 699 286 996 680 996 c 0
 850 996 966 861 966 697 c 2
 966 404 l 2
 966 315 980 251 1098 218 c 0
 1112 214 1118 207 1118 201 c 0
 1118 195 1112 186 1098 178 c 0
 1050 148 982 108 976 105 c 1
 904 157 883 196 839 249 c 1
 785 177 690 118 600 118 c 0
 514 118 410 163 410 273 c 0
 410 440 590 586 822 586 c 1
 822 748 l 2
 822 801 779 922 640 922 c 0
 375 922 219 670 219 416 c 0
 219 156 382 -106 754 -106 c 0
 1026 -106 1296 56 1296 438 c 0
 1296 817 1018 923 1018 961 c 0
 1018 968 1021 984 1038 984 c 0
 1081 984 1376 844 1376 438 c 0
 1376 4 1048 -189 719 -189 c 0
 286 -189 80 107 80 403 c 0
555 333 m 0
 555 277 586 228 676 228 c 0
 796 228 822 296 822 341 c 2
 822 531 l 1
 652 530 555 423 555 333 c 0
EndSplineSet
Validated: 1
EndChar

StartChar: parenleft
Encoding: 40 40 152
Width: 694
VWidth: 0
Flags: W
HStem: 1385 20G<565.669 593.368>
VStem: 92 138<170.959 788.517>
LayerCount: 3
Fore
SplineSet
92 468 m 0
 92 1122 576 1405 576 1405 c 1
 609 1367 l 1
 609 1367 230 1071 230 477 c 0
 230 -137 587 -410 587 -410 c 1
 551 -452 l 1
 551 -452 92 -93 92 468 c 0
EndSplineSet
Validated: 1
EndChar

StartChar: parenright
Encoding: 41 41 153
Width: 694
VWidth: 0
Flags: W
HStem: 1385 20G<107.632 135.331>
VStem: 471 138<170.959 788.517>
LayerCount: 3
Fore
SplineSet
92 1367 m 1
 125 1405 l 1
 125 1405 609 1122 609 468 c 0
 609 -93 150 -452 150 -452 c 1
 114 -410 l 1
 114 -410 471 -137 471 477 c 0
 471 1071 92 1367 92 1367 c 1
EndSplineSet
Validated: 1
EndChar

StartChar: asterisk
Encoding: 42 42 154
Width: 944
VWidth: 0
Flags: W
HStem: 852 146<392.122 427.999 508.001 544.216>
VStem: 358 210<531.438 747.721 1121.77 1342.24> 428 72<720.875 851.978 998.087 1108.08>
LayerCount: 3
Fore
SplineSet
78 764 m 0xa0
 78 881 390 885 390 925 c 0
 390 968 78 936 78 1076 c 0
 78 1134 129 1183 177 1183 c 0
 247 1183 381 998 430 998 c 0
 432 998 433 1007 433 1012 c 0
 433 1072 357 1213 357 1250 c 0
 357 1313 400 1361 465 1361 c 0
 526 1361 574 1325 574 1239 c 0
 574 1190 508 1063 508 1003 c 0
 508 993 509 990 511 990 c 0
 552 990 666 1179 757 1179 c 0
 838 1179 855 1107 855 1089 c 0
 854 944 546 962 546 925 c 0
 546 884 839 897 839 761 c 0
 839 722 810 663 754 663 c 0
 658 663 546 853 505 853 c 0
 501 853 500 844 500 837 c 0xa0
 500 783 568 664 568 610 c 0
 568 556 526 514 475 514 c 0
 472 514 469 515 466 515 c 0
 463 515 460 514 457 514 c 0
 408 514 358 555 358 605 c 0xc0
 358 639 428 801 428 842 c 0
 428 848 427 852 423 852 c 0
 390 852 261 664 169 664 c 0
 106 664 78 733 78 764 c 0xa0
EndSplineSet
Validated: 1
Layer: 2
SplineSet
465 1361 m 0
 526 1361 574 1325 574 1239 c 0
 574 1190 508 1063 508 1003 c 0
 508 993 509 990 511 990 c 0
 552 990 666 1179 757 1179 c 0
 838 1179 855 1107 855 1089 c 0
 854 944 546 962 546 925 c 0
 546 884 839 897 839 761 c 0
 839 722 810 663 754 663 c 0
 658 663 546 853 505 853 c 0
 501 853 500 844 500 837 c 0
 500 783 568 664 568 610 c 0
 568 556 526 514 475 514 c 0
 472 514 469 515 466 515 c 0
 463 515 460 514 457 514 c 0
 408 514 358 555 358 605 c 0
 358 639 428 801 428 842 c 0
 428 848 427 852 423 852 c 0
 390 852 261 664 169 664 c 0
 106 664 78 733 78 764 c 0
 78 881 390 885 390 925 c 0
 390 968 78 936 78 1076 c 0
 78 1134 129 1183 177 1183 c 0
 247 1183 381 998 430 998 c 0
 432 998 433 1007 433 1012 c 0
 433 1072 357 1213 357 1250 c 0
 357 1313 400 1361 465 1361 c 0
177 1183 m 0
 247 1183 381 998 430 998 c 0
 432 998 433 1007 433 1012 c 0
 433 1072 357 1213 357 1250 c 0
 357 1313 403 1350 468 1350 c 0
 529 1350 574 1325 574 1239 c 0
 574 1190 508 1063 508 1003 c 0
 508 993 509 990 511 990 c 0
 552 990 666 1179 757 1179 c 0
 817 1179 850 1100 850 1071 c 0
 850 956 546 957 546 925 c 0
 546 884 839 897 839 761 c 0
 839 735 813 663 754 663 c 0
 658 663 546 853 505 853 c 0
 501 853 500 844 500 837 c 0
 500 783 568 664 568 610 c 0
 568 556 514 524 463 524 c 0
 361 524 358 581 358 601 c 0
 358 641 428 801 428 842 c 0
 428 848 427 852 423 852 c 0
 382 852 274 668 179 668 c 0
 127 668 86 732 86 771 c 0
 86 884 390 883 390 925 c 0
 390 968 78 936 78 1076 c 0
 78 1103 110 1183 177 1183 c 0
EndSplineSet
EndChar

StartChar: bracketleft
Encoding: 91 91 155
Width: 820
VWidth: 0
Flags: W
HStem: -473 60<294 620> 1385 60<294 620>
VStem: 168 126<-413 1385>
LayerCount: 3
Fore
SplineSet
168 -473 m 1
 168 1445 l 1
 620 1445 l 1
 620 1385 l 1
 294 1385 l 1
 294 -413 l 1
 620 -413 l 1
 620 -473 l 1
 168 -473 l 1
EndSplineSet
Validated: 1
EndChar

StartChar: backslash
Encoding: 92 92 156
Width: 851
VWidth: 1000
Flags: W
LayerCount: 3
Fore
SplineSet
11 1445 m 1
 106 1445 l 1
 804 -473 l 1
 709 -473 l 1
 11 1445 l 1
EndSplineSet
Validated: 1
EndChar

StartChar: bracketright
Encoding: 93 93 157
Width: 828
VWidth: 0
Flags: W
HStem: -473 60<168 494> 1385 60<168 494>
VStem: 494 126<-413 1385>
LayerCount: 3
Fore
SplineSet
168 -413 m 1
 494 -413 l 1
 494 1385 l 1
 168 1385 l 1
 168 1445 l 1
 620 1445 l 1
 620 -473 l 1
 168 -473 l 1
 168 -413 l 1
EndSplineSet
Validated: 1
EndChar

StartChar: plus
Encoding: 43 43 158
Width: 1728
VWidth: 0
Flags: W
HStem: 421 120<237 804 906 1473>
VStem: 795 120<-137 430 532 1099>
LayerCount: 3
Fore
SplineSet
237 421 m 1
 237 541 l 1
 746 541 804 532 804 532 c 1
 804 532 795 558 795 1099 c 1
 915 1099 l 1
 915 558 906 532 906 532 c 1
 906 532 967 541 1473 541 c 1
 1473 421 l 1
 967 421 906 430 906 430 c 1
 906 430 915 369 915 -137 c 1
 795 -137 l 1
 795 369 804 430 804 430 c 1
 804 430 746 421 237 421 c 1
EndSplineSet
Validated: 1
EndChar

StartChar: braceright
Encoding: 125 125 159
Width: 631
VWidth: 1000
Flags: W
HStem: -473 60<70 176.934> 471 38<496.412 576> 1386 59<70 176.6>
VStem: 282 131<-291.262 424.659 554.104 1259.99>
LayerCount: 3
Fore
SplineSet
70 -413 m 1
 268 -413 282 -229 282 -59 c 0
 282 54 273 146 273 234 c 0
 273 365 307 454 409 492 c 1
 307 530 272 613 272 748 c 0
 272 838 281 930 281 1043 c 0
 281 1211 267 1386 70 1386 c 1
 70 1445 l 1
 322 1445 413 1254 413 1031 c 0
 413 939 406 855 406 781 c 0
 406 520 484 527 576 509 c 1
 576 471 l 1
 494 453 405 469 405 201 c 0
 405 125 413 41 413 -49 c 0
 413 -295 323 -473 70 -473 c 1
 70 -413 l 1
EndSplineSet
Validated: 1
EndChar

StartChar: percent
Encoding: 37 37 160
Width: 1783
VWidth: 0
Flags: W
HStem: -22 83<991.838 1205.75> 552 83<1229.39 1431> 627 83<341.95 555.77> 1182 67<764.843 1273.08> 1201 81<579.922 885.395>
VStem: 235 88<728.619 938.705> 797 98<961.93 1186.1> 884 88<80.0967 290.746> 1447 97<318.419 536.256>
LayerCount: 3
Fore
SplineSet
192 -67 m 0x9680
 192 -61 196 -53 211 -37 c 2
 1441 1275 l 1
 1396 1252 1237 1182 1003 1182 c 0x9680
 957 1182 908 1186 856 1193 c 1
 881 1155 895 1107 895 1044 c 0
 895 815 686 627 476 627 c 0
 313 627 235 739 235 867 c 0
 235 1113 491 1282 667 1282 c 0xae80
 759 1282 765 1249 1000 1249 c 0
 1308 1249 1539 1364 1596 1364 c 0
 1604 1364 1611 1362 1611 1353 c 0
 1611 1339 1594 1316 1575 1296 c 2
 290 -82 l 1
 228 -82 l 2
 207 -82 192 -79 192 -67 c 0x9680
323 813 m 0
 323 760 356 710 429 710 c 0
 616 710 797 970 797 1110 c 0
 797 1164 754 1201 696 1201 c 0xae80
 559 1201 323 959 323 813 c 0
884 219 m 0xc580
 884 466 1141 635 1317 635 c 0
 1441 635 1544 562 1544 395 c 0
 1544 166 1336 -22 1126 -22 c 0
 962 -22 884 91 884 219 c 0xc580
972 165 m 0
 972 112 1005 61 1079 61 c 0
 1266 61 1447 322 1447 462 c 0
 1447 516 1403 552 1345 552 c 0
 1208 552 972 311 972 165 c 0
EndSplineSet
Validated: 1
Layer: 2
SplineSet
707 1304 m 0
 825 1304 834 1262 1138 1262 c 0
 1535 1262 1836 1411 1909 1411 c 0
 1920 1411 1926 1408 1926 1400 c 0
 1926 1384 1907 1357 1880 1328 c 2
 218 -468 l 1
 138 -468 l 2
 107 -468 95 -463 95 -452 c 0
 95 -443 104 -430 119 -414 c 2
 1724 1308 l 1
 1724 1308 1502 1178 1142 1178 c 0
 1080 1178 1014 1184 944 1194 c 1
 979 1145 999 1080 999 995 c 0
 999 700 729 457 460 457 c 0
 250 457 151 602 151 767 c 0
 151 1085 481 1304 707 1304 c 0
626 1039 m 0
 626 849 477 574 325 574 c 0
 215 574 170 662 170 771 c 0
 170 1007 356 1232 491 1232 c 0
 552 1232 848 1256 932 1486 c 1
 1014 1451 l 1
 222 -391 l 1
 150 -359 l 1
 858 1269 l 1
 815 1240 710 1172 562 1163 c 1
 615 1136 626 1059 626 1039 c 0
399 558 m 0
 642 558 879 897 879 1082 c 0
 879 1152 824 1203 744 1203 c 0
 565 1203 258 887 258 696 c 0
 258 625 302 558 399 558 c 0
489 1134 m 0
 397 1134 286 894 286 756 c 0
 286 716 297 672 338 672 c 0
 439 672 552 904 552 1042 c 0
 552 1088 539 1134 489 1134 c 0
870 456 m 0
 969 456 1008 382 1008 285 c 0
 1008 96 856 -200 704 -200 c 0
 594 -200 550 -113 550 -4 c 0
 550 230 733 456 870 456 c 0
868 360 m 0
 778 360 666 123 666 -19 c 0
 666 -60 676 -104 717 -104 c 0
 819 -104 932 131 932 267 c 0
 932 313 918 360 868 360 c 0
1839 152 m 0
 1839 -143 1569 -386 1300 -386 c 0
 1090 -386 991 -241 991 -76 c 0
 991 242 1321 461 1547 461 c 0
 1707 461 1839 367 1839 152 c 0
1239 -285 m 0
 1482 -285 1719 54 1719 239 c 0
 1719 309 1664 360 1584 360 c 0
 1405 360 1098 44 1098 -147 c 0
 1098 -218 1142 -285 1239 -285 c 0
EndSplineSet
EndChar

StartChar: sterling
Encoding: 163 163 161
Width: 1151
VWidth: 0
Flags: W
HStem: -30 82<731.201 874.45> 201 51<393 560.457> 501 81<186 405 547 790> 1287 67<631.803 793.107>
VStem: 388 170<585.947 1090.89> 824 164<1085.4 1268.82> 888 94<68.0306 221.201>
LayerCount: 3
Fore
SplineSet
166 47 m 0xfa
 166 152 320 193 377 231 c 1
 407 263 419 382 419 442 c 0
 419 446 416 469 413 501 c 1
 186 501 l 1
 186 582 l 1
 405 582 l 1
 397 666 388 764 388 806 c 0
 388 1176 553 1354 764 1354 c 0
 879 1354 988 1272 988 1168 c 0
 988 1111 951 1072 910 1072 c 0
 874 1072 839 1095 824 1171 c 0xfc
 812 1228 803 1287 717 1287 c 0
 652 1287 554 1232 554 1060 c 0
 554 1005 558 914 558 736 c 0
 558 681 553 629 547 582 c 1
 790 582 l 1
 790 501 l 1
 534 501 l 1
 501 344 445 246 445 246 c 1
 445 246 456 252 470 252 c 0
 646 252 707 52 815 52 c 0
 859 52 888 98 888 142 c 0
 888 209 806 228 806 295 c 0
 806 329 831 370 870 370 c 0
 935 370 982 281 982 201 c 0
 982 79 882 -30 737 -30 c 0
 607 -30 576 53 510 137 c 0
 476 181 450 201 428 201 c 0
 358 201 357 -27 235 -27 c 0
 195 -27 166 8 166 47 c 0xfa
EndSplineSet
Validated: 1
Layer: 2
SplineSet
784 1503 m 4
 912 1503 1033 1412 1033 1296 c 4
 1033 1233 992 1190 946 1190 c 4
 906 1190 867 1216 850 1300 c 4
 837 1363 827 1428 732 1428 c 4
 660 1428 551 1367 551 1176 c 4
 551 1115 555 1014 555 816 c 4
 555 755 550 697 543 645 c 5
 813 645 l 5
 813 555 l 5
 528 555 l 5
 491 381 429 272 429 272 c 5
 429 272 441 279 457 279 c 4
 653 279 720 56 840 56 c 4
 889 56 921 107 921 156 c 4
 921 230 830 252 830 326 c 4
 830 364 859 410 902 410 c 4
 974 410 1026 311 1026 222 c 4
 1026 87 915 -35 754 -35 c 4
 610 -35 574 58 501 151 c 4
 463 200 434 222 410 222 c 4
 332 222 332 -32 196 -32 c 4
 152 -32 119 8 119 51 c 4
 119 168 291 213 354 255 c 5
 387 291 400 423 400 490 c 4
 400 495 397 520 394 555 c 5
 141 555 l 5
 141 645 l 5
 385 645 l 5
 376 738 366 847 366 894 c 4
 366 1305 550 1503 784 1503 c 4
EndSplineSet
EndChar

StartChar: less
Encoding: 60 60 162
Width: 1560
VWidth: 0
Flags: W
LayerCount: 3
Fore
SplineSet
118 681 m 0
 118 712 128 705 1436 1327 c 9
 1436 1191 l 25
 340 681 l 25
 1436 159 l 25
 1436 23 l 25
 922 280 118 653 118 681 c 0
EndSplineSet
Validated: 1
EndChar

StartChar: equal
Encoding: 61 61 163
Width: 1748
VWidth: 0
Flags: W
HStem: 250 120<246 1482> 592 120<246 1482>
LayerCount: 3
Fore
SplineSet
246 250 m 1
 246 370 l 1
 1482 370 l 1
 1482 250 l 1
 246 250 l 1
246 592 m 1
 246 712 l 1
 1482 712 l 1
 1482 592 l 1
 246 592 l 1
EndSplineSet
Validated: 1
EndChar

StartChar: greater
Encoding: 62 62 164
Width: 1560
VWidth: 0
Flags: W
LayerCount: 3
Fore
SplineSet
118 23 m 25
 118 159 l 25
 1214 681 l 25
 118 1191 l 25
 118 1327 l 17
 1426 705 1436 712 1436 681 c 0
 1436 653 632 280 118 23 c 25
EndSplineSet
Validated: 1
EndChar

StartChar: notequal
Encoding: 8800 8800 165
Width: 1416
VWidth: 0
Flags: W
HStem: 489 100<116 421.534 669.043 1274> 774 100<116 716.66 964.169 1274>
LayerCount: 3
Fore
SplineSet
72.5606223266 152 m 1
 421.534184551 489 l 1
 116 489 l 1
 116 589 l 1
 525.087170374 589 l 1
 716.660194147 774 l 1
 116 774 l 1
 116 874 l 1
 820.213179971 874 l 1
 1174.36439149 1216 l 1
 1318.3206072 1216 l 1
 964.169395681 874 l 1
 1274 874 l 1
 1274 774 l 1
 860.616409858 774 l 1
 669.043386085 589 l 1
 1274 589 l 1
 1274 489 l 1
 565.490400261 489 l 1
 216.516838037 152 l 1
 72.5606223266 152 l 1
EndSplineSet
Validated: 1
EndChar

StartChar: uni2053
Encoding: 8275 8275 167
Width: 1928
VWidth: 0
Flags: W
HStem: 444 109<1297.33 1577.36> 797 123<351.334 623.862>
VStem: 65 66<453.959 562.848> 1794 66<823.688 907.607>
LayerCount: 3
Fore
SplineSet
65 457 m 1
 65 457 149 920 539 920 c 0
 905 920 1187 553 1483 553 c 0
 1707 553 1794 917 1794 917 c 1
 1860 905 l 1
 1850 883 1775 444 1392 444 c 0
 1013 444 733 797 425 797 c 0
 183 797 131 443 131 443 c 1
 65 457 l 1
EndSplineSet
Validated: 1
EndChar

StartChar: plusminus
Encoding: 177 177 168
Width: 1628
VWidth: 0
Flags: W
HStem: -47 120<277 1433> 591 120<277 804 906 1433>
VStem: 795 120<153 600 702 1149>
LayerCount: 3
Fore
SplineSet
277 -47 m 1
 277 73 l 1
 1433 73 l 1
 1433 -47 l 1
 277 -47 l 1
277 591 m 1
 277 711 l 1
 724 711 804 702 804 702 c 1
 804 702 795 784 795 1149 c 1
 915 1149 l 1
 915 802 906 702 906 702 c 1
 906 702 1008 711 1433 711 c 1
 1433 591 l 1
 984 591 906 600 906 600 c 1
 906 600 915 520 915 153 c 1
 795 153 l 1
 795 516 804 600 804 600 c 1
 804 600 724 591 277 591 c 1
EndSplineSet
Validated: 1
EndChar

StartChar: minus
Encoding: 8722 8722 169
Width: 1652
VWidth: 0
Flags: W
HStem: 421 120<225 1421>
LayerCount: 3
Fore
SplineSet
225 421 m 1
 225 541 l 1
 1421 541 l 1
 1421 421 l 1
 225 421 l 1
EndSplineSet
Validated: 1
EndChar

StartChar: multiply
Encoding: 215 215 170
Width: 1728
VWidth: 0
Flags: W
LayerCount: 3
Fore
SplineSet
375.58203125 86.4345703125 m 1
 735.499023438 446.3515625 782.875 481 782.875 481 c 1
 782.875 481 758.125976562 493.020507812 375.58203125 875.565429688 c 1
 460.434570312 960.41796875 l 1
 842.979492188 577.874023438 855 553.125 855 553.125 c 1
 855 553.125 891.76953125 602.622070312 1249.56542969 960.41796875 c 1
 1334.41796875 875.565429688 l 1
 976.622070312 517.76953125 927.125 481 927.125 481 c 1
 927.125 481 976.622070312 444.23046875 1334.41796875 86.4345703125 c 1
 1249.56542969 1.58203125 l 1
 891.76953125 359.377929688 855 408.875 855 408.875 c 1
 855 408.875 820.3515625 361.499023438 460.434570312 1.58203125 c 1
 375.58203125 86.4345703125 l 1
EndSplineSet
Validated: 1
EndChar

StartChar: divide
Encoding: 247 247 171
Width: 1652
VWidth: 0
Flags: W
HStem: 36 248<729.401 916.599> 421 120<225 1421> 678 248<729.401 916.599>
VStem: 699 248<66.4005 253.599 708.401 895.599>
CounterMasks: 1 e0
LayerCount: 3
Fore
SplineSet
225 421 m 1
 225 541 l 1
 1421 541 l 1
 1421 421 l 1
 225 421 l 1
699 160 m 0
 699 228 755 284 823 284 c 0
 891 284 947 228 947 160 c 0
 947 92 891 36 823 36 c 0
 755 36 699 92 699 160 c 0
699 802 m 0
 699 870 755 926 823 926 c 0
 891 926 947 870 947 802 c 0
 947 734 891 678 823 678 c 0
 755 678 699 734 699 802 c 0
EndSplineSet
Validated: 1
EndChar

StartChar: underscore
Encoding: 95 95 172
Width: 380
VWidth: 1000
Flags: W
HStem: -209 88<0 380>
VStem: 0 380<-209 -121>
LayerCount: 3
Fore
SplineSet
0 -121 m 1
 380 -121 l 1
 380 -209 l 1
 0 -209 l 1
 0 -121 l 1
EndSplineSet
Validated: 1
EndChar

StartChar: asciicircum
Encoding: 94 94 173
Width: 825
VWidth: 0
Flags: W
HStem: 678 656
VStem: 82 667
LayerCount: 3
Fore
SplineSet
82 678 m 1
 253 1031 400 1334 417 1334 c 0
 442 1334 442 1328 749 678 c 1
 619 678 l 1
 417 1112 l 1
 210 678 l 1
 82 678 l 1
EndSplineSet
Validated: 1
EndChar

StartChar: numbersign
Encoding: 35 35 174
Width: 990
VWidth: 0
Flags: W
HStem: 526 70<101 282 385 534 636 874> 750 70<103 344 447 596 698 877> 1386 20G<521.437 610 774.403 863>
LayerCount: 3
Fore
SplineSet
101 526 m 1
 101 596 l 1
 302 596 l 1
 344 750 l 1
 103 750 l 1
 103 820 l 1
 364 820 l 1
 527 1406 l 1
 610 1406 l 1
 447 820 l 1
 616 820 l 1
 780 1406 l 1
 863 1406 l 1
 698 820 l 1
 877 820 l 1
 877 750 l 1
 679 750 l 1
 636 596 l 1
 874 596 l 1
 874 526 l 1
 616 526 l 1
 441 -100 l 1
 358 -100 l 1
 534 526 l 1
 365 526 l 1
 192 -100 l 1
 108 -100 l 1
 282 526 l 1
 101 526 l 1
385 596 m 1
 553 596 l 1
 596 750 l 1
 428 750 l 1
 385 596 l 1
EndSplineSet
Validated: 1
Layer: 2
SplineSet
126 284 m 5
 126 354 l 5
 377 354 l 5
 433 564 l 5
 126 564 l 5
 126 634 l 5
 452 634 l 5
 652 1379 l 5
 734 1379 l 5
 534 634 l 5
 750 634 l 5
 950 1379 l 5
 1033 1379 l 5
 833 634 l 5
 1062 634 l 5
 1062 564 l 5
 814 564 l 5
 758 354 l 5
 1062 354 l 5
 1062 284 l 5
 739 284 l 5
 529 -498 l 5
 447 -498 l 5
 656 284 l 5
 440 284 l 5
 231 -498 l 5
 148 -498 l 5
 358 284 l 5
 126 284 l 5
459 354 m 5
 675 354 l 5
 731 564 l 5
 516 564 l 5
 459 354 l 5
EndSplineSet
EndChar

StartChar: currency
Encoding: 164 164 175
Width: 1080
Flags: W
HStem: 134 111<386.645 686.645> 828 107<390.837 686.438>
VStem: 137 117<380.558 690.559> 825 119<383.587 687.127>
LayerCount: 3
Fore
SplineSet
40 90 m 0
 40 115 59 134 77 152 c 2
 218 293 l 1
 167 360 137 444 137 536 c 0
 137 625 166 710 216 776 c 1
 77 917 l 2
 72 922 41 948 41 979 c 0
 41 1011 68 1034 95 1034 c 0
 120 1034 139 1015 157 997 c 2
 299 856 l 1
 365 906 449 935 538 935 c 0
 634 935 716 904 780 856 c 1
 922 997 l 2
 927 1002 953 1033 984 1033 c 0
 1016 1033 1039 1006 1039 979 c 0
 1039 954 1020 935 1002 917 c 2
 861 775 l 1
 911 708 944 623 944 533 c 0
 944 444 911 360 861 294 c 1
 1002 152 l 2
 1007 147 1038 121 1038 90 c 0
 1038 58 1011 35 984 35 c 0
 959 35 940 54 922 72 c 2
 780 213 l 1
 714 163 629 134 538 134 c 0
 449 134 364 161 298 211 c 1
 157 72 l 2
 152 67 126 36 95 36 c 0
 63 36 40 63 40 90 c 0
254 533 m 0
 254 371 384 245 539 245 c 0
 694 245 825 375 825 535 c 0
 825 693 696 828 539 828 c 0
 380 828 254 692 254 533 c 0
EndSplineSet
Validated: 1
EndChar

StartChar: dagger
Encoding: 8224 8224 176
Width: 968
VWidth: 0
Flags: W
HStem: 759 188<104.394 345.625 620.79 854.383> 829 45<364.31 453.875 514.001 604.384> 1464 20G<452 506.5>
VStem: 378 203<1089.98 1462.05> 413 125<-442.456 115.771> 457 49<701.315 827.954 874.001 1026.38>
LayerCount: 3
Fore
SplineSet
88 848 m 0xa4
 88 920 155 947 183 947 c 0xa4
 267 947 387 874 450 874 c 0
 454 874 454 876 454 878 c 0
 454 990 378 1247 378 1331 c 0
 378 1438 425 1484 479 1484 c 0
 534 1484 581 1445 581 1338 c 0
 581 1282 514 988 514 891 c 0
 514 875 516 874 520 874 c 0x70
 608 879 673 947 759 947 c 0
 798 947 869 925 869 857 c 0
 869 783 806 759 758 759 c 0
 686 759 599 828 511 828 c 0
 506 828 506 827 506 823 c 0xa4
 506 789 581 426 581 426 c 1xb0
 581 426 538 250 538 -339 c 0
 538 -380 510 -448 478 -448 c 0
 434 -448 413 -380 413 -341 c 0xa8
 413 256 372 426 372 426 c 1
 372 426 457 792 457 825 c 0
 457 827 451 829 450 829 c 0x64
 372 829 282 759 190 759 c 0
 180 759 88 761 88 848 c 0xa4
EndSplineSet
Validated: 1
Layer: 2
SplineSet
413 -341 m 4
 413 256 372 426 372 426 c 5
 372 426 457 792 457 825 c 4
 457 827 451 829 450 829 c 4
 372 829 282 759 190 759 c 4
 180 759 88 761 88 848 c 4
 88 920 155 947 183 947 c 4
 267 947 387 874 450 874 c 4
 454 874 454 876 454 878 c 4
 454 990 378 1247 378 1331 c 4
 378 1438 425 1484 479 1484 c 4
 534 1484 581 1445 581 1338 c 4
 581 1282 514 988 514 891 c 4
 514 875 516 874 520 874 c 4
 608 879 673 947 759 947 c 4
 798 947 869 925 869 857 c 4
 869 783 806 759 758 759 c 4
 686 759 599 828 511 828 c 4
 506 828 506 827 506 823 c 4
 506 789 581 426 581 426 c 5
 581 426 538 250 538 -339 c 4
 538 -380 510 -448 478 -448 c 4
 434 -448 413 -380 413 -341 c 4
EndSplineSet
EndChar

StartChar: daggerdbl
Encoding: 8225 8225 177
Width: 968
VWidth: 0
Flags: W
HStem: -67 188<103.617 337.017 610.991 851.606> 6 46<353.333 442.999 503.125 592.396> 909 188<105.394 346.009 619.983 853.383> 979 45<364.604 453.875 514.001 603.667>
VStem: 377 202<-408.436 -143.346 1173.35 1438.52> 443 60<-131.252 5.99854 52.0459 169.011 857.984 977.954 1024 1150.84>
LayerCount: 3
Fore
SplineSet
89 23 m 0x84
 89 97 152 121 200 121 c 0x84
 272 121 359 52 446 52 c 0
 451 52 451 53 451 57 c 0
 451 91 386 289 386 289 c 1
 451 509 l 1
 382 721 l 1
 382 721 457 942 457 975 c 0
 457 977 451 979 450 979 c 0x54
 372 979 283 909 191 909 c 0
 181 909 89 911 89 998 c 0
 89 1070 156 1097 184 1097 c 0x24
 268 1097 387 1024 450 1024 c 0
 454 1024 454 1026 454 1028 c 0
 454 1140 378 1242 378 1326 c 0
 378 1425 430 1459 484 1459 c 0
 539 1459 580 1430 580 1333 c 0
 580 1277 514 1138 514 1041 c 0
 514 1025 516 1024 520 1024 c 0x14
 607 1029 672 1097 758 1097 c 0
 797 1097 868 1075 868 1007 c 0
 868 933 805 909 757 909 c 0
 685 909 598 978 511 978 c 0
 506 978 506 977 506 973 c 0
 506 939 571 721 571 721 c 1
 506 509 l 1
 575 289 l 1
 575 289 500 88 500 55 c 0
 500 53 506 51 507 51 c 0
 585 51 674 121 766 121 c 0
 776 121 868 119 868 32 c 0
 868 -40 801 -67 773 -67 c 0xa4
 689 -67 570 6 507 6 c 0
 503 6 503 4 503 2 c 0x44
 503 -110 579 -212 579 -296 c 0
 579 -392 527 -429 473 -429 c 0
 418 -429 377 -398 377 -303 c 0x48
 377 -247 443 -108 443 -11 c 0
 443 5 441 6 437 6 c 0x44
 350 1 285 -67 199 -67 c 0
 160 -67 89 -45 89 23 c 0x84
EndSplineSet
Validated: 1
Layer: 2
SplineSet
382 721 m 5
 382 721 457 942 457 975 c 4
 457 977 451 979 450 979 c 4
 372 979 283 909 191 909 c 4
 181 909 89 911 89 998 c 4
 89 1070 156 1097 184 1097 c 4
 268 1097 387 1024 450 1024 c 4
 454 1024 454 1026 454 1028 c 4
 454 1140 378 1242 378 1326 c 4
 378 1425 430 1459 484 1459 c 4
 539 1459 580 1430 580 1333 c 4
 580 1277 514 1138 514 1041 c 4
 514 1025 516 1024 520 1024 c 4
 607 1029 672 1097 758 1097 c 4
 797 1097 868 1075 868 1007 c 4
 868 933 805 909 757 909 c 4
 685 909 598 978 511 978 c 4
 506 978 506 977 506 973 c 4
 506 939 571 721 571 721 c 5
 506 509 l 5
 575 289 l 5
 575 289 500 88 500 55 c 4
 500 53 506 51 507 51 c 4
 585 51 674 121 766 121 c 4
 776 121 868 119 868 32 c 4
 868 -40 801 -67 773 -67 c 4
 689 -67 570 6 507 6 c 4
 503 6 503 4 503 2 c 4
 503 -110 579 -212 579 -296 c 4
 579 -392 527 -429 473 -429 c 4
 418 -429 377 -398 377 -303 c 4
 377 -247 443 -108 443 -11 c 4
 443 5 441 6 437 6 c 4
 350 1 285 -67 199 -67 c 4
 160 -67 89 -45 89 23 c 4
 89 97 152 121 200 121 c 4
 272 121 359 52 446 52 c 4
 451 52 451 53 451 57 c 4
 451 91 386 289 386 289 c 5
 451 509 l 5
 382 721 l 5
EndSplineSet
EndChar

StartChar: paragraph
Encoding: 182 182 178
Width: 1370
VWidth: 0
Flags: W
HStem: 1356 65<698.397 961.98>
VStem: 76 340<391.001 946.797> 621 71<-12 1326> 1219 126<-378.133 -236.412>
LayerCount: 3
Fore
SplineSet
76 698 m 0
 76 1141 427 1421 830 1421 c 0
 1020 1421 1084 1354 1084 1322 c 0
 1084 1298 1062 1285 1046 1285 c 0
 1002 1285 962 1356 812 1356 c 0
 757 1356 712 1346 696 1345 c 9
 692 -28 l 17
 903 -79 1345 -37 1345 -267 c 0
 1345 -327 1316 -392 1260 -392 c 0
 1246 -392 1205 -390 1205 -337 c 0
 1205 -314 1219 -303 1219 -287 c 0
 1219 -161 703 -145 483 -44 c 0
 201 86 76 365 76 698 c 0
416 89 m 17
 473 39 528 12 621 -12 c 9
 621 1326 l 17
 512 1300 451 1256 416 1225 c 9
 416 89 l 17
EndSplineSet
Validated: 1
Layer: 2
SplineSet
1197 1209 m 0
 1148 1209 1104 1288 937 1288 c 0
 876 1288 827 1276 809 1275 c 9
 804 -250 l 17
 1038 -307 1530 -260 1530 -516 c 0
 1530 -583 1497 -655 1435 -655 c 0
 1420 -655 1374 -653 1374 -594 c 0
 1374 -568 1390 -549 1390 -542 c 0
 1390 -394 827 -385 572 -268 c 0
 259 -124 120 187 120 557 c 0
 120 1049 510 1360 958 1360 c 0
 1169 1360 1240 1286 1240 1250 c 0
 1240 1223 1215 1209 1197 1209 c 0
497 1142 m 9
 497 -120 l 17
 560 -176 622 -206 725 -233 c 9
 725 1254 l 17
 604 1225 536 1176 497 1142 c 9
EndSplineSet
EndChar

StartChar: section
Encoding: 167 167 179
Width: 914
VWidth: 0
Flags: W
HStem: -431 65<380.051 593.667> -50 20G<284.5 331.5> 180 40<570.618 694.064> 796 37<268.13 376.5> 1370 68<339.008 512.128>
VStem: 114 92<551.061 761.154> 180 102<1088.44 1325.26> 196 156<-317.72 -137.5> 516 187<1179.33 1350.12> 666 103<-312.851 -89.4729> 733 80<251.542 620.108>
LayerCount: 3
Fore
SplineSet
114 604 m 0xfc40
 114 777 220 833 311 833 c 0
 322 833 331 832 338 831 c 1
 333 841 180 981 180 1173 c 0
 180 1361 312 1438 443 1438 c 0
 616 1438 703 1329 703 1237 c 0
 703 1152 654 1122 601 1122 c 0
 540 1122 470 1162 470 1210 c 0
 470 1251 516 1288 516 1323 c 0
 516 1349 490 1370 456 1370 c 0
 371 1370 282 1337 282 1206 c 0
 282 970 813 814 813 417 c 0xfaa0
 813 215 707 180 636 180 c 0
 605 180 589 186 568 191 c 1
 626 137 769 4 769 -179 c 0
 769 -350 629 -431 489 -431 c 0
 346 -431 196 -344 196 -183 c 0
 196 -92 251 -30 318 -30 c 0
 345 -30 433 -84 433 -131 c 0
 433 -180 352 -229 352 -279 c 0xf940
 352 -314 377 -366 494 -366 c 0
 570 -366 666 -308 666 -216 c 0
 666 -70 502 32 358 165 c 1
 175 327 114 485 114 604 c 0xfc40
206 681 m 0xfc20
 206 520 511 220 622 220 c 0
 683 220 733 252 733 313 c 0
 733 472 405 796 348 796 c 0
 263 796 206 747 206 681 c 0xfc20
EndSplineSet
Validated: 1
Layer: 2
SplineSet
114 604 m 4xfc40
 114 777 220 833 311 833 c 4
 322 833 331 832 338 831 c 5
 333 841 180 981 180 1173 c 4
 180 1361 312 1438 443 1438 c 4
 572 1438 704 1362 704 1241 c 4
 704 1184 658 1114 583 1114 c 4
 526 1114 471 1146 471 1210 c 4
 471 1277 517 1279 517 1327 c 4
 517 1344 505 1370 448 1370 c 4
 372 1370 282 1336 282 1206 c 4
 282 970 813 814 813 417 c 4xfaa0
 813 215 707 180 636 180 c 4
 605 180 589 186 568 191 c 5
 626 137 769 4 769 -179 c 4
 769 -350 629 -431 489 -431 c 4
 346 -431 196 -344 196 -183 c 4
 196 -92 272 -32 339 -32 c 4
 400 -32 433 -84 433 -131 c 4
 433 -230 352 -229 352 -279 c 4xf940
 352 -314 377 -366 494 -366 c 4
 570 -366 666 -308 666 -216 c 4
 666 -70 502 32 358 165 c 5
 175 327 114 485 114 604 c 4xfc40
789 -139 m 0xf080
 789 -313 646 -396 500 -396 c 0
 349 -396 196 -308 196 -143 c 0
 196 -50 274 13 344 13 c 0
 410 13 447 -42 447 -91 c 0
 447 -191 362 -193 362 -239 c 0xf280
 362 -272 387 -321 505 -321 c 0
 583 -321 676 -264 676 -176 c 0
 676 -33 511 67 360 201 c 0
 176 364 114 523 114 644 c 0xf880
 114 751 161 877 316 877 c 0
 322 877 328 876 334 876 c 1
 334 876 180 1021 180 1213 c 0
 180 1404 314 1483 452 1483 c 0
 588 1483 724 1406 724 1281 c 0
 724 1222 676 1149 598 1149 c 0
 538 1149 476 1182 476 1250 c 0
 476 1318 525 1323 525 1367 c 0
 525 1386 507 1405 457 1405 c 0
 380 1405 292 1373 292 1246 c 0
 292 1014 833 856 833 457 c 0xf540
 833 247 719 215 651 215 c 0
 622 215 601 221 601 221 c 1
 601 221 789 67 789 -139 c 0xf080
348 796 m 4
 263 796 206 747 206 681 c 4xfc20
 206 520 511 220 622 220 c 4
 683 220 733 252 733 313 c 4
 733 472 405 796 348 796 c 4
353 831 m 0
 271 831 216 784 216 721 c 0
 216 562 527 265 637 265 c 0
 695 265 743 295 743 353 c 0xf840
 743 509 409 831 353 831 c 0
EndSplineSet
EndChar

StartChar: brokenbar
Encoding: 166 166 180
Width: 851
VWidth: 1000
Flags: W
VStem: 372 90<-473 295 677 1445>
LayerCount: 3
Fore
SplineSet
372 295 m 1
 462 295 l 1
 462 -473 l 1
 372 -473 l 1
 372 295 l 1
372 677 m 1
 372 1445 l 1
 462 1445 l 1
 462 677 l 1
 372 677 l 1
EndSplineSet
Validated: 1
EndChar

StartChar: exclamdown
Encoding: 161 161 181
Width: 522
VWidth: 0
Flags: W
HStem: -21 21G<153 168.5> 1161 177<147.9 275.646>
VStem: 135 161<-2.33789 502.814 1183.82 1316.85>
LayerCount: 3
Fore
SplineSet
124 1250 m 0
 124 1281 185 1338 213 1338 c 0
 237 1338 300 1279 300 1247 c 0
 300 1219 233 1161 212 1161 c 0
 177 1161 124 1225 124 1250 c 0
135 3 m 0
 140 251 184 551 191 796 c 0
 195 932 185 1005 227 1005 c 0
 256 1005 259 946 261 933 c 0
 285 628 296 159 296 47 c 0
 296 -11 175 -21 162 -21 c 0
 144 -21 135 -12 135 3 c 0
EndSplineSet
Validated: 1
Position2: "'cpsp' Capital Spacing in Latin lookup 1 subtable" dx=4 dy=0 dh=8 dv=0
EndChar

StartChar: questiondown
Encoding: 191 191 182
Width: 690
VWidth: 0
Flags: W
HStem: -19 153<347.187 561.995> 1173 194<340.646 472.35>
VStem: 107 108<228.104 422.666> 309 196<1203.3 1335.3> 456 119<779.826 973.918>
LayerCount: 3
Fore
SplineSet
107 378 m 0xe8
 107 444 118 483 163 536 c 0
 302 700 456 769 456 880 c 0
 456 989 361 1017 361 1055 c 0
 361 1070 371 1081 390 1081 c 0
 441 1081 575 988 575 822 c 0
 575 590 215 508 215 302 c 0
 215 228 344 134 479 134 c 0
 512 134 547 136 605 136 c 0
 624 136 632 130 632 111 c 0
 632 79 541 -19 451 -19 c 0
 365 -19 107 173 107 378 c 0xe8
309 1271 m 0xf0
 309 1296 372 1366 409 1367 c 0
 440 1367 505 1294 505 1270 c 0
 505 1231 432 1173 405 1173 c 0
 370 1173 310 1241 309 1271 c 0xf0
EndSplineSet
Validated: 1
Position2: "'cpsp' Capital Spacing in Latin lookup 1 subtable" dx=5 dy=0 dh=10 dv=0
EndChar

StartChar: cent
Encoding: 162 162 183
Width: 1016
VWidth: 0
Flags: W
HStem: -24 69<434.352 692.976> 829 57<607 676.515> 1464 20G<689 776>
VStem: 118 164<225.575 648.525> 713 149<630 777.785>
LayerCount: 3
Fore
SplineSet
118 448 m 0
 118 662 258 892 546 892 c 1
 694 1484 l 1
 776 1474 l 1
 607 886 l 1
 747 863 862 776 862 664 c 0
 862 596 810 538 742 538 c 0
 683 538 632 583 632 635 c 0
 632 705 713 727 713 759 c 0
 713 786 658 827 591 829 c 1
 396 107 l 1
 444 64 503 45 562 45 c 0
 740 45 848 210 850 212 c 1
 894 170 l 1
 878 156 755 -24 539 -24 c 0
 482 -24 424 -11 370 13 c 1
 265 -413 l 1
 193 -395 l 1
 319 41 l 1
 203 115 118 252 118 448 c 0
282 436 m 0
 282 312 309 222 351 159 c 1
 528 823 l 1
 373 792 282 633 282 436 c 0
EndSplineSet
Validated: 1
Layer: 2
SplineSet
632 635 m 4
 632 705 713 727 713 759 c 4
 713 786 658 827 591 829 c 5
 396 107 l 5
 444 64 503 45 562 45 c 4
 740 45 848 210 850 212 c 5
 894 170 l 5
 878 156 755 -24 539 -24 c 4
 482 -24 424 -11 370 13 c 5
 265 -413 l 5
 193 -395 l 5
 319 41 l 5
 203 115 118 252 118 448 c 4
 118 662 258 892 546 892 c 5
 694 1484 l 5
 776 1474 l 5
 607 886 l 5
 747 863 862 776 862 664 c 4
 862 596 810 538 742 538 c 4
 683 538 632 583 632 635 c 4
351 159 m 5
 528 823 l 5
 373 792 282 633 282 436 c 4
 282 312 309 222 351 159 c 5
EndSplineSet
EndChar

StartChar: minute
Encoding: 8242 8242 185
Width: 474
VWidth: 0
Flags: W
HStem: 972 531<138 329>
VStem: 112 280
LayerCount: 3
Fore
SplineSet
112 997 m 0
 112 1025 146 1116 162 1162 c 0
 221 1336 224 1503 329 1503 c 0
 376 1503 392 1456 392 1436 c 0
 391 1370 296 1231 242 1131 c 0
 178 1014 171 972 138 972 c 0
 117 972 112 987 112 997 c 0
EndSplineSet
Validated: 1
EndChar

StartChar: second
Encoding: 8243 8243 186
Width: 720
VWidth: 0
Flags: W
HStem: 979 525<333 562>
VStem: 126 111<1028.01 1217.31>
LayerCount: 3
Fore
SplineSet
126 1000 m 0
 126 1026 193 1358 216 1441 c 0
 227 1482 262 1504 302 1504 c 0
 344 1504 370 1464 370 1438 c 0
 370 1388 291 1250 237 1132 c 16
 194 1038 180 979 150 979 c 0
 137 979 126 988 126 1000 c 0
319 1006 m 0
 319 1030 348 1108 376 1170 c 16
 447 1326 461 1501 562 1501 c 0
 614 1501 626 1471 626 1451 c 0
 626 1388 519 1235 454 1135 c 0
 387 1032 373 982 343 982 c 0
 333 982 319 984 319 1006 c 0
EndSplineSet
Validated: 1
EndChar

StartChar: degree
Encoding: 176 176 187
Width: 585
VWidth: 0
Flags: W
HStem: 996.526 73.5479<181.473 388.527> 1419.93 73.5479<181.473 388.527>
VStem: 36.5264 73.5479<1141.47 1348.53> 459.926 73.5479<1141.47 1348.53>
LayerCount: 3
Fore
SplineSet
36.5263671875 1245 m 0
 36.5263671875 1382.4140625 147.5859375 1493.47363281 285 1493.47363281 c 0
 422.4140625 1493.47363281 533.473632812 1382.4140625 533.473632812 1245 c 0
 533.473632812 1107.5859375 422.4140625 996.526367188 285 996.526367188 c 0
 147.5859375 996.526367188 36.5263671875 1107.5859375 36.5263671875 1245 c 0
110.07421875 1245 m 0
 110.07421875 1148.25976562 188.259765625 1070.07421875 285 1070.07421875 c 0
 381.740234375 1070.07421875 459.92578125 1148.25976562 459.92578125 1245 c 0
 459.92578125 1341.74023438 381.740234375 1419.92578125 285 1419.92578125 c 0
 188.259765625 1419.92578125 110.07421875 1341.74023438 110.07421875 1245 c 0
EndSplineSet
Validated: 1
EndChar

StartChar: yen
Encoding: 165 165 188
Width: 1289
VWidth: 0
Flags: W
HStem: 0 80<352 543.481 717.121 926> 404 98<249 548 714 1034> 704 98<249 442 840 1034> 1285 80<45 155.471 357.045 504 891 1055.95 1150.98 1261>
VStem: 548 166<85.0458 404 502 635>
LayerCount: 3
Fore
SplineSet
42 1285 m 1
 45 1365 l 1
 504 1365 l 1
 504 1285 l 1
 418 1281 357 1290 357 1257 c 0
 357 1241 366 1229 597 866 c 2
 687 724 l 1
 1045 1232 l 2
 1052 1243 1056 1251 1056 1258 c 0
 1056 1287 990 1283 891 1285 c 1
 888 1365 l 1
 1261 1365 l 1
 1261 1285 l 1
 1186 1282 1176 1286 1115 1198 c 2
 840 802 l 1
 1058 802 l 1
 1034 704 l 1
 757 704 l 1
 714 635 l 1
 714 502 l 1
 1058 502 l 1
 1034 404 l 1
 714 404 l 1
 714 174 l 2
 714 68 717 84 927 80 c 1
 926 0 l 1
 351 0 l 1
 352 80 l 1
 526 83 548 67 548 171 c 2
 548 404 l 1
 225 404 l 1
 249 502 l 1
 548 502 l 1
 548 651 l 1
 519 704 l 1
 225 704 l 1
 249 802 l 1
 442 802 l 1
 212 1160 l 2
 132 1284 143 1285 42 1285 c 1
EndSplineSet
Validated: 1
EndChar

StartChar: dotlessi
Encoding: 305 305 189
Width: 652
VWidth: 0
Flags: HMW
HStem: 0 75<64 204.494 440.504 614> 808 20G<375.5 440>
VStem: 205 235<76.9766 700.99>
AnchorPoint: "top" 327 1000 basechar 0
LayerCount: 3
Fore
SplineSet
62 749 m 1
 182 769 311 795 440 828 c 1
 440 131 l 2
 440 67 444 77 614 75 c 1
 614 0 l 1
 64 0 l 1
 64 75 l 1
 179 76 205 70 205 124 c 2
 205 661 l 2
 205 687 196 701 179 701 c 0
 174 701 65 681 65 681 c 1
 62 749 l 1
EndSplineSet
EndChar

StartChar: uni0237
Encoding: 567 567 190
Width: 512
VWidth: 0
Flags: W
HStem: -530 122<24.8778 141.599> 808 20G<345.5 412>
VStem: 177 235<-290.797 694.98>
AnchorPoint: "top" 241 1000 basechar 0
LayerCount: 3
Fore
SplineSet
-191 -413 m 0
 -191 -358 -144 -293 -116 -264 c 0
 -104 -251 -92 -247 -77 -247 c 0
 -45 -247 -29 -274 -17 -295 c 0
 24 -365 44 -408 89 -408 c 0
 158 -408 177 -269 177 -64 c 2
 177 629 l 2
 177 668 173 695 143 695 c 0
 141 695 138 694 135 694 c 0
 114 691 95 687 36 677 c 1
 32 755 l 1
 122 770 279 797 412 828 c 1
 412 -99 l 2
 412 -394 156 -530 44 -530 c 0
 -28 -530 -191 -507 -191 -413 c 0
EndSplineSet
EndChar

StartChar: bullet
Encoding: 8226 8226 226
Width: 858
Flags: W
HStem: 370 494<291.326 566.918>
VStem: 182 494<479.326 754.918>
LayerCount: 3
Fore
SplineSet
182 617 m 0
 182 753 292 864 429 864 c 0
 565 864 676 755 676 618 c 0
 676 481 567 370 430 370 c 0
 293 370 182 480 182 617 c 0
EndSplineSet
Validated: 1
EndChar

StartChar: quotereversed
Encoding: 8219 8219 227
Width: 497
VWidth: 0
Flags: W
HStem: 981 513
VStem: 99 192<1134.96 1375>
LayerCount: 3
Fore
SplineSet
291 1177 m 0
 291 1061 420 1062 420 1005 c 0
 420 997 414 981 390 981 c 0
 368 981 99 1033 99 1295 c 0
 99 1455 260 1494 277 1494 c 0
 302 1494 420 1370 420 1338 c 0
 420 1299 291 1296 291 1177 c 0
EndSplineSet
Validated: 1
EndChar

StartChar: figuredash
Encoding: 8210 8210 230
Width: 1065
VWidth: 0
Flags: W
HStem: 0 70<433.688 549.527> 265 63<435.369 542.758> 541 88<1000 2064> 1338 114<340.261 556.41>
VStem: 106 549<927.689 1113.28> 106 288<99.812 235.399> 106 225<422.587 702.229> 106 173<1178.01 1278.02> 458 460<417.66 609.346> 590 328<99.5259 237.269> 772 146<833.282 1115.76>
LayerCount: 3
Fore
SplineSet
106 0 m 17xf120
 106 1452 l 9
 918 1452 l 25
 918 0 l 25
 106 0 l 17xf120
279 1211 m 0
 279 1195 286 1178 314 1178 c 0
 373 1178 398 1180 427 1180 c 0
 544 1180 655 1100 655 1039 c 0xf8
 655 861 331 786 331 571 c 0
 331 419 454 328 507 328 c 0
 528 328 543 338 543 361 c 0
 543 402 458 424 458 519 c 0xf280
 458 613 595 675 719 822 c 0
 760 871 772 908 772 970 c 0
 772 1160 535 1338 452 1338 c 0
 368 1338 279 1248 279 1211 c 0
394 168 m 0xf440
 394 140 453 72 490 70 c 1
 540 72 590 152 590 167 c 0
 589 199 532 265 494 265 c 0
 465 265 394 209 394 168 c 0xf440
1000 541 m 1
 1000 629 l 1
 2064 629 l 1
 2064 541 l 1
 1000 541 l 1
EndSplineSet
Validated: 1
EndChar

StartChar: braceleft
Encoding: 123 123 231
Width: 631
VWidth: 1000
Flags: W
HStem: -473 60<469.066 576> 471 38<70 149.588> 1386 59<469.4 576>
VStem: 233 131<-291.262 424.659 554.104 1259.99>
LayerCount: 3
Fore
SplineSet
70 471 m 1
 70 509 l 1
 162 527 240 520 240 781 c 0
 240 855 233 939 233 1031 c 0
 233 1254 324 1445 576 1445 c 1
 576 1386 l 1
 379 1386 365 1211 365 1043 c 0
 365 930 374 838 374 748 c 0
 374 613 339 530 237 492 c 1
 339 454 373 365 373 234 c 0
 373 146 364 54 364 -59 c 0
 364 -229 378 -413 576 -413 c 1
 576 -473 l 1
 323 -473 233 -295 233 -49 c 0
 233 41 241 125 241 201 c 0
 241 469 152 453 70 471 c 1
EndSplineSet
Validated: 1
EndChar

StartChar: logicalnot
Encoding: 172 172 232
Width: 1472
VWidth: 0
Flags: W
HStem: 421 120<125 1151>
VStem: 1151 120<-67 421>
LayerCount: 3
Fore
SplineSet
125 421 m 1
 125 541 l 1
 1271 541 l 1
 1271 -67 l 1
 1151 -67 l 1
 1151 421 l 1
 125 421 l 1
EndSplineSet
Validated: 1
Layer: 2
SplineSet
225 421 m 5
 225 541 l 5
 1421 541 l 5
 1421 -117 l 5
 1301 -117 l 5
 1301 421 l 5
 225 421 l 5
EndSplineSet
EndChar

StartChar: guilsinglleft
Encoding: 8249 8249 235
Width: 464
Flags: W
HStem: 171 544
VStem: 40 346
LayerCount: 3
Fore
SplineSet
40 443 m 1
 352 715 l 1
 386 677 l 1
 194 443 l 1
 386 209 l 1
 352 171 l 1
 40 443 l 1
EndSplineSet
Validated: 1
EndChar

StartChar: guilsinglright
Encoding: 8250 8250 236
Width: 449
Flags: W
HStem: 171 544
VStem: 40 346
LayerCount: 3
Fore
SplineSet
40 209 m 1
 232 443 l 1
 40 677 l 1
 74 715 l 1
 386 443 l 1
 74 171 l 1
 40 209 l 1
EndSplineSet
Validated: 1
EndChar

StartChar: registered
Encoding: 174 174 237
Width: 979
Flags: W
HStem: 690 63<349.025 640.797> 885 48<276 326 405 462 683.844 733> 1111 42<405 475> 1347 49<272 326 405 514.002> 1492 58<358.093 622.832>
VStem: 63 65<969.918 1268.33> 326 79<933 1113 1153 1347> 561 93<1164.19 1321.96> 845 65<961.048 1268.33>
LayerCount: 3
Fore
SplineSet
63 1118 m 0
 63 1358 250 1550 486 1550 c 0
 726 1550 910 1358 910 1118 c 0
 910 885 750 690 486 690 c 0
 250 690 63 885 63 1118 c 0
128 1117 m 0
 128 917 288 753 491 753 c 0
 708 753 845 917 845 1117 c 0
 845 1320 688 1492 491 1492 c 0
 288 1492 128 1320 128 1117 c 0
271 1347 m 1
 272 1396 l 1
 441 1396 l 2
 517 1396 560 1389 597 1359 c 0
 635 1329 654 1287 654 1247 c 0
 654 1200 628 1150 555 1126 c 1
 688 950 l 2
 699 936 704 933 712 933 c 2
 733 933 l 1
 735 885 l 1
 633 885 l 1
 475 1111 l 1
 471 1111 467 1111 463 1111 c 0
 431 1111 415 1112 405 1113 c 1
 405 943 l 2
 405 933 405 933 425 933 c 0
 438 933 451 933 464 933 c 1
 462 885 l 1
 276 885 l 1
 276 933 l 1
 297 933 l 2
 324 933 326 934 326 941 c 2
 326 1331 l 2
 326 1346 319 1347 298 1347 c 2
 271 1347 l 1
405 1156 m 1
 414 1153 429 1153 443 1153 c 0
 538 1153 561 1186 561 1237 c 0
 561 1301 513 1347 418 1347 c 0
 408 1347 405 1347 405 1323 c 2
 405 1156 l 1
EndSplineSet
Validated: 1
Layer: 2
SplineSet
60 1118 m 4
 60 1358 250 1550 486 1550 c 4
 726 1550 919 1358 919 1118 c 4
 919 885 726 690 486 690 c 4
 250 690 60 885 60 1118 c 4
121 1118 m 4
 121 922 290 755 486 755 c 4
 689 755 856 922 856 1118 c 4
 856 1321 689 1487 486 1487 c 4
 290 1487 121 1321 121 1118 c 4
EndSplineSet
EndChar

StartChar: copyright
Encoding: 169 169 238
Width: 1630
Flags: W
HStem: -262 80<602.986 1031.49> -12 81<685.837 1023.55> 864 86<653.765 999.613> 1145 82<591.074 1036.34>
VStem: 72 89<241.443 716.11> 315 137<302.859 662.174> 1457 89<252.848 723.437>
LayerCount: 3
Fore
SplineSet
72 486 m 0
 72 891 396 1227 819 1227 c 0
 1237 1227 1546 892 1546 486 c 0
 1546 85 1245 -262 817 -262 c 0
 379 -262 72 63 72 486 c 0
161 486 m 0
 161 116 441 -182 819 -182 c 0
 1169 -182 1457 110 1457 489 c 0
 1457 839 1194 1145 817 1145 c 0
 449 1145 161 844 161 486 c 0
315 462 m 0
 315 800 595 950 816 950 c 0
 1046 950 1140 875 1162 868 c 1
 1162 726 l 2
 1162 702 1160 692 1155 692 c 0
 1134 692 1057 864 820 864 c 0
 598 864 452 681 452 483 c 0
 452 274 618 69 851 69 c 0
 1102 69 1167 261 1183 261 c 0
 1187 261 1188 251 1188 226 c 2
 1188 113 l 1
 1188 113 1058 -12 817 -12 c 0
 497 -12 315 209 315 462 c 0
EndSplineSet
Validated: 1
EndChar

StartChar: uni00B5
Encoding: 181 181 239
Width: 1030
Flags: W
HStem: -37 128<208.171 335.266 694.758 838.715>
VStem: 17.9606 130.494<-402.043 -210.338> 612.736 150<56.2136 373.041> 731.736 159<562.188 758.498>
LayerCount: 3
Fore
SplineSet
17.9606025492 -307.414173228 m 0xe0
 17.9606025492 -117.549606299 91.6306694781 55.5622047244 145.041468001 289.17007874 c 0
 242.654306682 716.365354331 234.366424153 775 267.517954271 775 c 0
 272.122333454 775 355.001158749 765.25388601 355.001158749 728.041450777 c 0
 355.001158749 684.626943005 262.50405562 222.129533679 262.50405562 155.678756477 c 0
 262.50405562 128.212435233 269.879014358 91 299.37884931 91 c 0
 438.581195492 91 641.392560789 446.29015544 731.73580533 651.844559585 c 0
 789.73580533 773.227979275 768.73580533 774.113989637 802.73580533 774.113989637 c 0
 835.73580533 774.113989637 890.73580533 757.279792746 890.73580533 736.901554404 c 0xd0
 890.73580533 712.093264249 762.73580533 233.647668394 762.73580533 146.81865285 c 0
 762.73580533 118.466321244 786.711341658 100.74611399 811.645899438 100.74611399 c 0
 888.367615685 100.74611399 905.630001841 231.875647668 944.949881418 231.875647668 c 0
 966.048353386 231.875647668 967.966396292 214.04694935 967.966396292 199.03330866 c 0
 967.966396292 121.150047584 846.953777393 -44 693.736187335 -44 c 0
 625.42261215 -44 612.73580533 20.3573893204 612.73580533 92.0699088488 c 0
 612.73580533 175.734514965 652.73580533 348.580074854 652.73580533 369.726074202 c 0
 652.73580533 377.08120441 650.926393865 379.839378238 649.116982399 379.839378238 c 0
 631.927573474 379.839378238 596.644049893 265.988975371 453.7005441 108.067448814 c 0
 384.942908402 31.8611307662 291.758217917 -37 215.762936356 -37 c 0
 152.433535055 -37 145.195889193 52 137.95824333 52 c 0
 130.720597467 52 99.9606025492 -102 99.9606025492 -175 c 0
 99.9606025492 -242 148.454229432 -322 148.454229432 -344 c 0
 148.454229432 -354 134.061549997 -407 77.4503442165 -407 c 0
 35.231817872 -407 17.9606025492 -376.286614173 17.9606025492 -307.414173228 c 0xe0
EndSplineSet
Validated: 1
EndChar

StartChar: Euro
Encoding: 8364 8364 240
Width: 1257
Flags: W
HStem: -20 96<545.69 926.138> 377 99<87 199 317 901> 555 97<80 199 317 976> 788 21G<1061.5 1080.91> 953 96<542.764 924.582>
VStem: 199 97<476 555>
LayerCount: 3
Fore
SplineSet
40 555 m 1
 80 652 l 1
 215 652 l 1
 305 959 573 1049 720 1049 c 0
 878 1049 995 1004 1117 889 c 1
 1090 822 1072 788 1072 788 c 1
 1051 822 936 953 730 953 c 0
 592 953 400 881 317 652 c 1
 1016 652 l 1
 976 555 l 1
 296 555 l 1
 296 547 295 534 295 516 c 0
 295 497 296 484 296 476 c 1
 943 476 l 1
 901 377 l 1
 317 377 l 1
 389 163 588 76 727 76 c 0
 951 76 1066 226 1071 231 c 1
 1077 230 l 1
 1077 105 l 1
 981 28 871 -20 733 -20 c 0
 555 -20 309 71 215 377 c 1
 47 377 l 1
 87 476 l 1
 199 476 l 1
 199 555 l 1
 40 555 l 1
EndSplineSet
Validated: 1
EndChar

StartChar: gravecomb
Encoding: 768 768 242
Width: 0
VWidth: 0
Flags: W
HStem: 990 330<-453 -435>
VStem: -629 300
AnchorPoint: "top" -400 1000 mark 0
LayerCount: 3
Fore
SplineSet
-329 990 m 25
 -453 990 l 25
 -629 1320 l 25
 -435 1320 l 25
 -329 990 l 25
EndSplineSet
EndChar

StartChar: acutecomb
Encoding: 769 769 243
Width: 0
VWidth: 0
Flags: W
HStem: 990 330<-365 -347>
VStem: -471 300
AnchorPoint: "top" -400 1000 mark 0
LayerCount: 3
Back
SplineSet
-446 990 m 29
 -340 1320 l 29
 -196 1320 l 29
 -372 990 l 29
 -446 990 l 29
EndSplineSet
Fore
SplineSet
-471 990 m 29
 -365 1320 l 29
 -171 1320 l 29
 -347 990 l 29
 -471 990 l 29
EndSplineSet
EndChar

StartChar: uni0302
Encoding: 770 770 244
Width: 0
VWidth: 0
Flags: W
HStem: 1019 292<-496.217 -456.291>
VStem: -628 503
AnchorPoint: "top" -400 1000 mark 0
LayerCount: 3
Back
SplineSet
-160 1019 m 5
 -279 1019 l 5
 -322 1067 -364 1146 -405 1205 c 5
 -447 1142 -487 1069 -531 1019 c 5
 -608 1019 l 5
 -554 1101 -505 1191 -444 1301 c 5
 -324 1301 l 5
 -269 1201 -217 1101 -160 1019 c 5
EndSplineSet
Fore
SplineSet
-125 1019 m 1
 -294 1019 l 1
 -325 1068 -370 1146 -405 1205 c 1
 -446 1140 -486 1076 -526 1019 c 1
 -628 1019 l 1
 -573 1107 -525 1201 -464 1311 c 1
 -289 1311 l 1
 -234 1211 -183 1107 -125 1019 c 1
EndSplineSet
EndChar

StartChar: tildecomb
Encoding: 771 771 245
Width: 0
VWidth: 0
Flags: W
HStem: 1089 131<-385.219 -210.642> 1161 136<-579.175 -395.062>
VStem: -183 48<1265.3 1304.29>
AnchorPoint: "top" -400 1000 mark 0
LayerCount: 3
Fore
SplineSet
-492 1297 m 0x60
 -458 1297 -426 1287 -399 1272 c 2
 -337 1239 l 2
 -314 1226 -295 1220 -274 1220 c 0
 -238 1220 -201 1256 -183 1312 c 1
 -135 1301 l 1
 -148 1223 -201 1089 -301 1089 c 0xa0
 -333 1089 -357 1096 -380 1108 c 2
 -444 1142 l 2
 -463 1152 -493 1161 -526 1161 c 0
 -560 1161 -596 1128 -611 1054 c 1
 -660 1065 l 1
 -658 1073 -617 1297 -492 1297 c 0x60
EndSplineSet
Layer: 2
SplineSet
-648 1072 m 1x60
 -648 1072 -608 1287 -492 1287 c 0x60
 -460 1287 -430 1277 -404 1263 c 2
 -342 1230 l 2
 -318 1217 -297 1210 -274 1210 c 0
 -207 1210 -176 1301 -176 1301 c 1
 -146 1294 l 1
 -149 1283 -187 1101 -301 1101 c 0xa0
 -329 1101 -353 1108 -376 1119 c 2
 -440 1151 l 2
 -461 1161 -493 1171 -526 1171 c 0
 -598 1171 -619 1065 -619 1065 c 1
 -648 1072 l 1x60
EndSplineSet
EndChar

StartChar: uni0304
Encoding: 772 772 246
Width: 0
VWidth: 0
Flags: W
HStem: 1138 110<-622 -151>
VStem: -622 471<1138 1248>
AnchorPoint: "top" -400 1000 mark 0
LayerCount: 3
Fore
SplineSet
-151 1138 m 1
 -622 1138 l 1
 -622 1248 l 1
 -151 1248 l 1
 -151 1138 l 1
EndSplineSet
Layer: 2
SplineSet
-151 1167 m 5
 -622 1167 l 5
 -622 1265 l 5
 -151 1265 l 5
 -151 1167 l 5
EndSplineSet
EndChar

StartChar: uni0306
Encoding: 774 774 247
Width: 0
VWidth: 0
Flags: W
HStem: 1024 112<-457.183 -289.944>
VStem: -624 140<1161.79 1301> -258 82<1173.71 1301>
AnchorPoint: "top" -400 1000 mark 0
LayerCount: 3
Fore
SplineSet
-372 1136 m 0
 -317 1136 -258 1187 -258 1289 c 0
 -258 1293 -258 1297 -258 1301 c 1
 -177 1301 l 1
 -176 1292 -176 1282 -176 1271 c 0
 -176 1169 -224 1024 -397 1024 c 0
 -503 1024 -624 1068 -624 1276 c 0
 -624 1284 -623 1292 -623 1301 c 1
 -484 1301 l 1
 -484 1287 l 2
 -484 1206 -454 1136 -372 1136 c 0
EndSplineSet
Layer: 2
SplineSet
-501 1260 m 4
 -499 1180 -436 1136 -372 1136 c 4
 -307 1136 -242 1181 -242 1281 c 4
 -242 1293 -243 1301 -243 1301 c 5
 -192 1301 l 5
 -192 1301 -190 1286 -190 1265 c 4
 -190 1111 -285 1034 -397 1034 c 4
 -509 1034 -604 1112 -604 1270 c 4
 -604 1288 -603 1301 -603 1301 c 5
 -499 1301 l 5
 -499 1301 -501 1284 -501 1260 c 4
EndSplineSet
EndChar

StartChar: uni0307
Encoding: 775 775 248
Width: 0
VWidth: 0
Flags: W
HStem: 1045 264<-427.698 -299.945>
VStem: -488 251<1108.2 1245.82>
AnchorPoint: "top" -400 1000 mark 0
LayerCount: 3
Fore
SplineSet
-237 1178 m 0
 -237 1138 -335 1045 -362 1045 c 0
 -403 1045 -488 1154 -488 1178 c 0
 -488 1208 -403 1309 -368 1309 c 0
 -336 1309 -237 1213 -237 1178 c 0
EndSplineSet
Layer: 2
SplineSet
-488 1176 m 4
 -488 1216 -390 1309 -363 1309 c 4
 -322 1309 -237 1200 -237 1176 c 4
 -237 1146 -322 1045 -357 1045 c 4
 -389 1045 -488 1141 -488 1176 c 4
EndSplineSet
EndChar

StartChar: uni0308
Encoding: 776 776 249
Width: 0
VWidth: 0
Flags: W
HStem: 1045 264<-633.055 -505.302 -276.055 -148.302>
VStem: -696 251<1108.18 1245.8> -339 251<1108.18 1245.8>
AnchorPoint: "top" -400 1000 mark 0
LayerCount: 3
Fore
SplineSet
-696 1176 m 0
 -696 1216 -598 1309 -571 1309 c 0
 -530 1309 -445 1200 -445 1176 c 0
 -445 1146 -530 1045 -565 1045 c 0
 -597 1045 -696 1141 -696 1176 c 0
-339 1176 m 0
 -339 1216 -241 1309 -214 1309 c 0
 -173 1309 -88 1200 -88 1176 c 0
 -88 1146 -173 1045 -208 1045 c 0
 -240 1045 -339 1141 -339 1176 c 0
EndSplineSet
Layer: 2
SplineSet
-629 1216 m 4
 -629 1244 -561 1303 -540 1303 c 4
 -503 1303 -455 1233 -455 1210 c 4
 -455 1178 -518 1125 -545 1125 c 4
 -568 1125 -629 1182 -629 1216 c 4
-329 1216 m 4
 -329 1244 -261 1303 -240 1303 c 4
 -203 1303 -155 1233 -155 1210 c 4
 -155 1178 -218 1125 -245 1125 c 4
 -268 1125 -329 1182 -329 1216 c 4
EndSplineSet
EndChar

StartChar: uni030A
Encoding: 778 778 250
Width: 0
VWidth: 0
Flags: W
HStem: 1003 91<-456.479 -319.084> 1245 96<-453.387 -319.583>
VStem: -562 100<1100.29 1238.78> -314 100<1097.86 1239.88>
AnchorPoint: "top" -400 1000 mark 0
LayerCount: 3
Fore
SplineSet
-214 1168 m 0
 -214 1080 -290 1003 -381 1003 c 0
 -471 1003 -562 1070 -562 1160 c 0
 -562 1242 -477 1341 -387 1341 c 0
 -293 1341 -214 1256 -214 1168 c 0
-385 1094 m 0
 -354 1094 -314 1107 -314 1169 c 0
 -314 1229 -357 1245 -387 1245 c 0
 -451 1245 -462 1184 -462 1164 c 0
 -462 1121 -432 1094 -385 1094 c 0
EndSplineSet
Layer: 2
SplineSet
-387 1332 m 0
 -313 1332 -250 1263 -250 1193 c 0
 -250 1123 -311 1062 -383 1062 c 0
 -455 1062 -526 1116 -526 1187 c 0
 -526 1253 -458 1332 -387 1332 c 0
-385 1124 m 0
 -355 1124 -319 1138 -319 1194 c 0
 -319 1251 -360 1265 -387 1265 c 0
 -446 1265 -457 1208 -457 1190 c 0
 -457 1150 -429 1124 -385 1124 c 0
EndSplineSet
EndChar

StartChar: uni030B
Encoding: 779 779 251
Width: 0
VWidth: 0
Flags: W
HStem: 990 330<-541 -523 -241 -223>
VStem: -647 600
AnchorPoint: "top" -400 1000 mark 0
LayerCount: 3
Fore
SplineSet
-347 990 m 25
 -241 1320 l 25
 -47 1320 l 25
 -223 990 l 25
 -347 990 l 25
-647 990 m 25
 -541 1320 l 25
 -347 1320 l 25
 -523 990 l 25
 -647 990 l 25
EndSplineSet
EndChar

StartChar: uni030C
Encoding: 780 780 252
Width: 0
VWidth: 0
Flags: W
HStem: 1019 292<-504.709 -464.783>
VStem: -661 503
AnchorPoint: "top" -400 1000 mark 0
LayerCount: 3
Fore
SplineSet
-661 1311 m 1
 -492 1311 l 1
 -461 1262 -416 1184 -381 1125 c 1
 -340 1190 -300 1254 -260 1311 c 1
 -158 1311 l 1
 -213 1223 -261 1129 -322 1019 c 1
 -497 1019 l 1
 -552 1119 -603 1223 -661 1311 c 1
EndSplineSet
EndChar

StartChar: uni0312
Encoding: 786 786 253
Width: 0
VWidth: 0
Flags: W
HStem: 933 416
VStem: -544 156<1030 1237.9>
AnchorPoint: "top" -400 1000 mark 0
LayerCount: 3
Fore
SplineSet
-388 1190 m 0
 -388 1094 -284 1092 -284 1060 c 0
 -284 1034 -380 933 -400 933 c 0
 -414 933 -544 965 -544 1095 c 0
 -544 1307 -326 1349 -308 1349 c 0
 -289 1349 -284 1334 -284 1328 c 0
 -284 1282 -388 1284 -388 1190 c 0
EndSplineSet
Layer: 2
SplineSet
-493 1104 m 4
 -493 1240 -349 1322 -296 1322 c 4
 -283 1322 -275 1317 -275 1307 c 4
 -275 1267 -386 1262 -386 1161 c 4
 -386 1080 -294 1095 -294 1069 c 4
 -294 1065 -297 1060 -301 1054 c 6
 -345 997 l 6
 -349 993 -362 978 -373 978 c 4
 -383 978 -399 985 -425 1000 c 4
 -463 1022 -493 1033 -493 1104 c 4
EndSplineSet
EndChar

StartChar: uni0315
Encoding: 789 789 254
Width: 0
VWidth: 1500
Flags: W
HStem: 1032 354
VStem: -470 100<1043.99 1079.08>
AnchorPoint: "commaright" -400 1342 mark 0
LayerCount: 3
Fore
SplineSet
-470 1046 m 25
 -434 1386 l 25
 -268 1367 l 25
 -370 1032 l 25
 -470 1046 l 25
EndSplineSet
Layer: 2
SplineSet
-470 1044 m 29
 -434 1384 l 29
 -305 1369 l 29
 -401 1034 l 29
 -470 1044 l 29
EndSplineSet
EndChar

StartChar: uni0326
Encoding: 806 806 255
Width: 0
VWidth: 0
Flags: W
HStem: -539 416
VStem: -412 156<-427.897 -220>
AnchorPoint: "cedilla" -400 -190 mark 0
LayerCount: 3
Fore
SplineSet
-412 -380 m 0
 -412 -284 -516 -282 -516 -250 c 0
 -516 -224 -420 -123 -400 -123 c 0
 -386 -123 -256 -155 -256 -285 c 0
 -256 -497 -474 -539 -492 -539 c 0
 -511 -539 -516 -524 -516 -518 c 0
 -516 -472 -412 -474 -412 -380 c 0
EndSplineSet
EndChar

StartChar: uni0327
Encoding: 807 807 256
Width: 0
VWidth: 0
Flags: W
HStem: -539 416
VStem: -412 156<-427.897 -220>
AnchorPoint: "cedilla" -400 -190 mark 0
LayerCount: 3
Fore
SplineSet
-412 -380 m 0
 -412 -284 -516 -282 -516 -250 c 0
 -516 -224 -420 -123 -400 -123 c 0
 -386 -123 -256 -155 -256 -285 c 0
 -256 -497 -474 -539 -492 -539 c 0
 -511 -539 -516 -524 -516 -518 c 0
 -516 -472 -412 -474 -412 -380 c 0
EndSplineSet
Layer: 2
SplineSet
-286 -282 m 4
 -286 -418 -430 -500 -483 -500 c 4
 -496 -500 -504 -495 -504 -485 c 4
 -504 -445 -393 -440 -393 -339 c 4
 -393 -258 -485 -273 -485 -247 c 4
 -485 -243 -482 -238 -478 -232 c 6
 -434 -175 l 6
 -430 -171 -417 -156 -406 -156 c 4
 -396 -156 -380 -163 -354 -178 c 4
 -316 -200 -286 -211 -286 -282 c 4
EndSplineSet
EndChar

StartChar: gravecomb.cap
Encoding: 65602 -1 295
Width: 0
VWidth: 0
Flags: W
HStem: 990 290<-453 -435>
VStem: -629 300
AnchorPoint: "top" -400 1000 mark 0
LayerCount: 3
Fore
SplineSet
-329 990 m 25
 -453 990 l 25
 -629 1280 l 25
 -435 1280 l 25
 -329 990 l 25
EndSplineSet
EndChar

StartChar: acutecomb.cap
Encoding: 65603 -1 296
Width: 0
VWidth: 0
Flags: W
HStem: 990 290<-365 -347>
VStem: -471 300
AnchorPoint: "top" -400 1000 mark 0
LayerCount: 3
Fore
SplineSet
-471 990 m 25
 -365 1280 l 25
 -171 1280 l 25
 -347 990 l 25
 -471 990 l 25
EndSplineSet
EndChar

StartChar: uni0302.cap
Encoding: 65604 -1 297
Width: 0
VWidth: 0
Flags: W
HStem: 1029 242<-503.717 -455.154>
VStem: -628 503
AnchorPoint: "top" -400 1000 mark 0
LayerCount: 3
Back
SplineSet
-160 1029 m 5
 -279 1029 l 5
 -322 1077 -354 1115 -405 1175 c 5
 -456 1115 -487 1079 -531 1029 c 5
 -608 1029 l 5
 -546 1115 -516 1161 -444 1271 c 5
 -324 1271 l 5
 -260 1171 -220 1113 -160 1029 c 5
EndSplineSet
Fore
SplineSet
-125 1029 m 5
 -294 1029 l 5
 -334 1076 -354 1108 -405 1175 c 5
 -454 1112 -482 1079 -526 1029 c 5
 -628 1029 l 5
 -566 1115 -536 1161 -464 1271 c 5
 -289 1271 l 5
 -225 1171 -185 1113 -125 1029 c 5
EndSplineSet
EndChar

StartChar: uni030C.cap
Encoding: 65605 -1 298
Width: 0
VWidth: 0
Flags: W
HStem: 1029 242<-505.846 -457.283>
VStem: -661 503
AnchorPoint: "top" -400 1000 mark 0
LayerCount: 3
Fore
SplineSet
-661 1271 m 1
 -492 1271 l 1
 -452 1224 -432 1192 -381 1125 c 1
 -332 1188 -304 1221 -260 1271 c 1
 -158 1271 l 1
 -220 1185 -250 1139 -322 1029 c 1
 -497 1029 l 1
 -561 1129 -601 1187 -661 1271 c 1
EndSplineSet
EndChar

StartChar: uni0307.cap
Encoding: 65606 -1 299
Width: 0
VWidth: 0
Flags: W
HStem: 990 264<-450.055 -322.302>
VStem: -513 251<1053.18 1190.8>
AnchorPoint: "top" -400 1000 mark 0
LayerCount: 3
Fore
SplineSet
-513 1121 m 0
 -513 1161 -415 1254 -388 1254 c 0
 -347 1254 -262 1145 -262 1121 c 0
 -262 1091 -347 990 -382 990 c 0
 -414 990 -513 1086 -513 1121 c 0
EndSplineSet
Layer: 2
SplineSet
-513 1121 m 4
 -513 1161 -415 1254 -388 1254 c 4
 -347 1254 -262 1145 -262 1121 c 4
 -262 1091 -347 990 -382 990 c 4
 -414 990 -513 1086 -513 1121 c 4
EndSplineSet
EndChar

StartChar: uni030A.cap
Encoding: 65607 -1 300
Width: 0
VWidth: 0
Flags: W
HStem: 957 91<-466.479 -329.084> 1199 96<-463.387 -329.583>
VStem: -572 100<1054.29 1192.78> -324 100<1051.86 1193.88>
AnchorPoint: "top" -400 1000 mark 0
LayerCount: 3
Fore
SplineSet
-224 1122 m 0
 -224 1034 -300 957 -391 957 c 0
 -481 957 -572 1024 -572 1114 c 0
 -572 1196 -487 1295 -397 1295 c 0
 -303 1295 -224 1210 -224 1122 c 0
-395 1048 m 0
 -364 1048 -324 1061 -324 1123 c 0
 -324 1183 -367 1199 -397 1199 c 0
 -461 1199 -472 1138 -472 1118 c 0
 -472 1075 -442 1048 -395 1048 c 0
EndSplineSet
EndChar

StartChar: uni0308.cap
Encoding: 65608 -1 301
Width: 0
VWidth: 0
Flags: W
HStem: 990 264<-638.055 -510.302 -281.055 -153.302>
VStem: -701 251<1053.18 1190.8> -344 251<1053.18 1190.8>
AnchorPoint: "top" -400 1000 mark 0
LayerCount: 3
Fore
SplineSet
-701 1121 m 0
 -701 1161 -603 1254 -576 1254 c 0
 -535 1254 -450 1145 -450 1121 c 0
 -450 1091 -535 990 -570 990 c 0
 -602 990 -701 1086 -701 1121 c 0
-344 1121 m 0
 -344 1161 -246 1254 -219 1254 c 0
 -178 1254 -93 1145 -93 1121 c 0
 -93 1091 -178 990 -213 990 c 0
 -245 990 -344 1086 -344 1121 c 0
EndSplineSet
EndChar

StartChar: uni030B.cap
Encoding: 65609 -1 302
Width: 0
VWidth: 0
Flags: W
HStem: 990 290<-531 -513 -231 -213>
VStem: -637 600
AnchorPoint: "top" -400 1000 mark 0
LayerCount: 3
Fore
SplineSet
-337 990 m 25
 -231 1280 l 25
 -37 1280 l 25
 -213 990 l 25
 -337 990 l 25
-637 990 m 25
 -531 1280 l 25
 -337 1280 l 25
 -513 990 l 25
 -637 990 l 25
EndSplineSet
EndChar

StartChar: uni0304.cap
Encoding: 65610 -1 303
Width: 0
VWidth: 0
Flags: W
HStem: 1088 110<-623 -152>
VStem: -623 471<1088 1198>
AnchorPoint: "top" -400 1000 mark 0
LayerCount: 3
Fore
SplineSet
-152 1088 m 1
 -623 1088 l 1
 -623 1198 l 1
 -152 1198 l 1
 -152 1088 l 1
EndSplineSet
EndChar

StartChar: uni0306.cap
Encoding: 65611 -1 304
Width: 0
VWidth: 0
Flags: W
HStem: 1024 112<-457.372 -286.085>
VStem: -623 139<1162.8 1271> -258 81<1168.06 1271>
AnchorPoint: "top" -400 1000 mark 0
LayerCount: 3
Fore
SplineSet
-177 1271 m 1
 -177 1254 l 2
 -177 1062 -315 1024 -395 1024 c 0
 -532 1024 -623 1106 -623 1271 c 1
 -484 1271 l 1
 -484 1222 -465 1136 -368 1136 c 0
 -305 1136 -258 1194 -258 1271 c 1
 -177 1271 l 1
EndSplineSet
Layer: 2
SplineSet
-192 1271 m 5
 -192 1258 l 6
 -192 1119 -252 1034 -395 1034 c 4
 -561 1034 -604 1153 -604 1224 c 4
 -604 1238 -603 1255 -603 1271 c 5
 -499 1271 l 5
 -499 1254 l 6
 -499 1194 -484 1136 -368 1136 c 4
 -309 1136 -242 1174 -242 1256 c 4
 -242 1261 -243 1266 -243 1271 c 5
 -192 1271 l 5
EndSplineSet
EndChar

StartChar: tildecomb.cap
Encoding: 65612 -1 305
Width: 0
VWidth: 0
Flags: W
HStem: 1054 131<-385.219 -210.642> 1126 136<-579.175 -395.062>
VStem: -183 48<1230.3 1269.29>
AnchorPoint: "top" -400 1000 mark 0
LayerCount: 3
Fore
SplineSet
-492 1262 m 0x60
 -458 1262 -426 1252 -399 1237 c 2
 -337 1204 l 2
 -314 1191 -295 1185 -274 1185 c 0
 -238 1185 -201 1221 -183 1277 c 1
 -135 1266 l 1
 -148 1188 -201 1054 -301 1054 c 0xa0
 -333 1054 -357 1061 -380 1073 c 2
 -444 1107 l 2
 -463 1117 -493 1126 -526 1126 c 0
 -560 1126 -596 1093 -611 1019 c 1
 -660 1030 l 1
 -658 1038 -617 1262 -492 1262 c 0x60
EndSplineSet
Layer: 2
SplineSet
-643 1042 m 5x60
 -643 1042 -603 1257 -487 1257 c 4x60
 -455 1257 -425 1247 -399 1233 c 6
 -337 1200 l 6
 -313 1187 -292 1180 -269 1180 c 4
 -202 1180 -171 1271 -171 1271 c 5
 -141 1264 l 5
 -144 1253 -182 1071 -296 1071 c 4xa0
 -324 1071 -348 1078 -371 1089 c 6
 -435 1121 l 6
 -456 1131 -488 1141 -521 1141 c 4
 -593 1141 -614 1035 -614 1035 c 5
 -643 1042 l 5x60
EndSplineSet
EndChar

StartChar: periodcentered
Encoding: 183 183 439
Width: 414
VWidth: 0
Flags: W
HStem: 552 264<146.302 274.055>
VStem: 86 251<615.201 752.818>
LayerCount: 3
Fore
SplineSet
337 685 m 0
 337 645 239 552 212 552 c 0
 171 552 86 661 86 685 c 0
 86 715 171 816 206 816 c 0
 238 816 337 720 337 685 c 0
EndSplineSet
EndChar

StartChar: longs
Encoding: 383 383 442
Width: 671
VWidth: 0
Flags: W
HStem: 0 75<64 202.982 439.97 594> 702 100<114 204> 1400 94<457.578 613>
VStem: 204 235<76.9512 702 802 1279.49>
LayerCount: 3
Fore
SplineSet
205 802 m 5
 205 1024 l 2
 205 1428 423 1494 574 1494 c 0
 652 1494 755 1447 755 1380 c 0
 755 1347 674 1242 626 1242 c 0
 584 1242 568 1400 514 1400 c 0
 439 1400 439 1298 439 1206 c 2
 439 138 l 2
 439 67 445 77 596 75 c 1
 594 0 l 1
 64 0 l 1
 61 75 l 1
 186 78 204 66 204 132 c 2
 204 702 l 5
 90 702 l 5
 114 802 l 5
 205 802 l 5
EndSplineSet
EndChar

